<svg id="Color" enable-background="new 0 0 24 24" height="512" viewBox="0 0 24 24" width="512" xmlns="http://www.w3.org/2000/svg"><path d="m14.25 5.456c-.414 0-.75-.336-.75-.75v-2.106c0-.578-.471-1.05-1.05-1.05h-.9c-.579 0-1.05.472-1.05 1.05v2.106c0 .414-.336.75-.75.75s-.75-.336-.75-.75v-2.106c0-1.406 1.145-2.55 2.55-2.55h.9c1.405 0 2.55 1.143 2.55 2.55v2.106c0 .414-.336.75-.75.75z" fill="#607d8b"/><path d="m21.88 12.55c-.07-.479-.17-.96-.32-1.42-.149-.519-.35-1.019-.6-1.5-1.63-3.3-5.04-5.58-8.96-5.58s-7.33 2.28-8.96 5.58c-.25.48-.45.98-.6 1.5-.15.46-.25.941-.32 1.42-.08.49-.12.99-.12 1.5 0 .99.15 1.95.42 2.86.15.5.33.979.561 1.45 1.609 3.36 5.049 5.69 9.019 5.69s7.41-2.33 9.019-5.689c.221-.46.41-.95.561-1.44.27-.911.42-1.871.42-2.871 0-.51-.04-1.01-.12-1.5z" fill="#ffd54f"/><g fill="#ef5350"><path d="m22 14.05h-20c0-.51.04-1.01.12-1.5h19.76c.08.49.12.99.12 1.5z"/><path d="m21.56 11.13h-19.12c.149-.519.35-1.019.6-1.5h17.92c.25.48.45.98.6 1.5z"/><path d="m21.58 16.92c-.15.49-.34.98-.561 1.44l-2.609-1.87-2.47 2.47c-.28.28-.721.3-1.02.04l-2.92-2.5-2.92 2.5c-.3.26-.74.24-1.021-.04l-2.47-2.47-2.609 1.87c-.23-.47-.41-.95-.56-1.45l2.81-2.01c.3-.21.71-.181.97.08l2.43 2.43 2.88-2.47c.28-.24.7-.24.98 0l2.88 2.47 2.43-2.43c.26-.261.67-.29.97-.08z"/></g><path d="m12 .05h-.45c-1.405 0-2.55 1.143-2.55 2.55v1.912c.485-.153.987-.271 1.5-.349v-1.563c0-.578.471-1.05 1.05-1.05h.45z" fill="#546d79"/><path d="m12 14.05h-10c0 .99.15 1.95.42 2.86.15.5.33.979.561 1.45 1.609 3.36 5.049 5.69 9.019 5.69v-7.55l-2.92 2.5c-.142.123-.315.183-.487.183-.193 0-.385-.075-.533-.223l-2.47-2.47-2.61 1.87c-.23-.47-.41-.95-.56-1.45l2.81-2.01c.133-.093.287-.139.44-.139.193 0 .385.073.53.219l2.43 2.43 2.88-2.47c.14-.12.315-.18.49-.18zm0-2.92h-9.56c-.15.46-.25.941-.32 1.42h9.88zm0-7.08c-.51 0-1.01.039-1.5.113-.513.078-1.015.195-1.5.348-2.61.826-4.764 2.698-5.96 5.119h8.96z" fill="#deb945"/><path d="m12 12.55h-9.88c-.08.49-.12.99-.12 1.5h10z" fill="#d04846"/><path d="m12 9.63h-8.96c-.25.48-.45.98-.6 1.5h9.56z" fill="#d04846"/><path d="m12 14.76c-.175 0-.35.06-.49.18l-2.88 2.47-2.43-2.43c-.145-.146-.337-.219-.53-.219-.153 0-.307.046-.44.139l-2.81 2.01c.15.5.33.979.561 1.45l2.609-1.87 2.47 2.47c.148.148.34.223.533.223.173 0 .346-.06.487-.183l2.92-2.5z" fill="#d04846"/></svg>