<svg id="Color" enable-background="new 0 0 24 24" height="512" viewBox="0 0 24 24" width="512" xmlns="http://www.w3.org/2000/svg"><path d="m14.25 5.456c-.414 0-.75-.336-.75-.75v-2.106c0-.578-.471-1.05-1.05-1.05h-.9c-.579 0-1.05.472-1.05 1.05v2.106c0 .414-.336.75-.75.75s-.75-.336-.75-.75v-2.106c0-1.406 1.144-2.55 2.55-2.55h.9c1.406 0 2.55 1.143 2.55 2.55v2.106c0 .414-.336.75-.75.75z" fill="#607d8b"/><path d="m22 13.84v.21c0 5.51-4.49 10-10 10-3.11 0-5.89-1.43-7.73-3.66-.34-.42-.65-.87-.92-1.34-.43-.73-.77-1.53-.99-2.359-.14-.48-.23-.971-.29-1.471-.05-.38-.07-.77-.07-1.17 0-5.51 4.49-10 10-10 3.45 0 6.5 1.76 8.3 4.44.3.439.57.92.79 1.41.36.77.62 1.59.76 2.449.09.491.14.981.15 1.491z" fill="#66bb6a"/><path d="m21.09 9.9-.04.01c-4.82.58-6.36 1.53-8.14 2.63-.43.26-.86.53-1.35.8l-.31.18c-2.26 1.261-4.4 2.471-8.89 3.171-.14-.48-.23-.971-.29-1.471 4.25-.66 6.2-1.76 8.44-3.01l.32-.18c.47-.261.88-.52 1.29-.771 1.86-1.14 3.47-2.14 8.18-2.77.3.441.57.921.79 1.411z" fill="#ef5350"/><path d="m22 13.84c-4.02.36-5.94 1.44-8.33 2.78l-.54.31c-2.19 1.23-4.46 2.49-8.86 3.46-.34-.42-.65-.87-.92-1.34 4.59-.939 6.85-2.2 9.05-3.43l.54-.311c2.44-1.369 4.58-2.569 8.91-2.96.09.491.14.981.15 1.491z" fill="#ef5350"/><path d="m12 .05h-.45c-1.406 0-2.55 1.143-2.55 2.55v1.91c.485-.153.986-.27 1.5-.348v-1.562c0-.578.471-1.05 1.05-1.05h.45z" fill="#546d79"/><path d="m12 4.05c-.51 0-1.01.038-1.5.113-.514.077-1.015.194-1.5.347-4.051 1.279-7 5.075-7 9.54 0 .4.02.79.07 1.17.06.5.15.99.29 1.471.22.829.56 1.63.99 2.359.27.47.58.92.92 1.34 1.84 2.23 4.62 3.66 7.73 3.66v-6.494c-1.89 1.023-4.076 2.028-7.73 2.834-.34-.42-.65-.87-.92-1.34 4.312-.883 6.568-2.049 8.65-3.207v-2.754c-.142.083-.288.167-.44.251l-.31.18c-2.26 1.261-4.4 2.471-8.89 3.171-.14-.48-.23-.971-.29-1.471 4.25-.66 6.2-1.76 8.44-3.01l.32-.18c.424-.235.799-.47 1.17-.697z" fill="#59a35c"/><g fill="#d04846"><path d="m12 11.333c-.371.227-.746.462-1.17.697l-.32.18c-2.24 1.25-4.19 2.35-8.44 3.01.06.5.15.99.29 1.471 4.49-.7 6.63-1.91 8.89-3.171l.31-.18c.152-.084.298-.167.44-.251z"/><path d="m12 15.843c-2.081 1.158-4.337 2.324-8.65 3.207.27.47.58.92.92 1.34 3.654-.805 5.84-1.811 7.73-2.834z"/></g></svg>