<svg id="Color" enable-background="new 0 0 24 24" height="512" viewBox="0 0 24 24" width="512" xmlns="http://www.w3.org/2000/svg"><path d="m14 5.956c-.553 0-1-.448-1-1v-2.106c0-.441-.359-.8-.8-.8h-.4c-.44 0-.8.359-.8.8v2.106c0 .552-.447 1-1 1s-1-.448-1-1v-2.106c0-1.544 1.256-2.8 2.8-2.8h.4c1.544 0 2.8 1.256 2.8 2.8v2.106c0 .552-.447 1-1 1z" fill="#607d8b"/><path d="m22 12.3v.25c-.02.65-.09 1.25-.22 1.811-.07.35-.16.68-.271.989-.06.19-.13.37-.21.54-.129.31-.269.61-.439.89-1.38 2.48-3.811 3.98-5.761 5.18-1.02.63-1.98 1.23-2.569 1.82-.15.15-.34.22-.53.22s-.38-.07-.53-.22c-.59-.59-1.55-1.19-2.569-1.82-1.981-1.22-4.471-2.76-5.841-5.32-.13-.24-.25-.49-.36-.75-.1-.22-.18-.45-.26-.68-.091-.27-.16-.56-.221-.85-.129-.56-.199-1.16-.219-1.81v-.25c0-.1 0-.2.01-.29.01-.51.07-1.02.17-1.5v-.02c.09-.48.23-.95.4-1.4.19-.53.44-1.03.73-1.5 1.68-2.78 4.87-4.56 8.69-4.56s7.01 1.78 8.69 4.56c.29.47.54.97.729 1.5.17.45.311.92.4 1.4v.02c.1.481.16.99.17 1.5.011.09.011.19.011.29z" fill="#ef5350"/><g fill="#eceff1"><path d="m21.51 15.35c-.06.19-.13.37-.21.54-.13.31-.27.61-.44.89l-2.5-2.2-2.42 2.42c-.28.28-.721.3-1.021.04l-2.919-2.5-2.92 2.5c-.3.25-.74.24-1.02-.04l-2.44-2.44-2.56 2.08c-.13-.24-.25-.49-.36-.75-.1-.22-.18-.45-.26-.68l2.76-2.24c.3-.24.729-.22 1 .05l2.43 2.431 2.88-2.47c.28-.24.7-.24.98 0l2.88 2.47 2.43-2.431c.28-.279.73-.29 1.02-.029z"/><path d="m21.99 12.01h-19.98c.01-.51.07-1.02.17-1.5h19.64c.1.48.16.99.17 1.5z"/><path d="m21.42 9.09h-18.84c.19-.53.44-1.03.73-1.5h17.38c.29.47.54.97.73 1.5z"/></g><path d="m12 .05h-.2c-1.544 0-2.8 1.256-2.8 2.8v.57c.638-.173 1.307-.291 2-.349v-.221c0-.441.359-.8.8-.8h.2z" fill="#546d79"/><path d="m12 12.01h-9.99c-.01.09-.01.19-.01.29v.25c.02.65.09 1.25.22 1.811.061.29.13.58.221.85.079.229.159.459.259.679.11.26.23.51.36.75 1.37 2.56 3.86 4.1 5.84 5.32 1.019.63 1.979 1.23 2.569 1.82.151.15.341.22.531.22v-9.46l-2.92 2.5c-.143.119-.318.179-.492.179-.191 0-.382-.073-.529-.219l-2.44-2.44-2.56 2.08c-.129-.24-.249-.49-.359-.75-.1-.22-.18-.45-.26-.68l2.76-2.24c.14-.112.307-.167.474-.167.191 0 .381.073.526.217l2.43 2.431 2.88-2.47c.14-.12.315-.18.49-.18zm0-2.92h-9.42c-.17.45-.311.92-.4 1.4v.02h9.82zm0-6.06c-.339 0-.672.014-1 .041-.693.059-1.362.177-2 .349-2.466.669-4.474 2.157-5.69 4.17h8.69z" fill="#d04846"/><path d="m12 12.8c-.175 0-.35.06-.49.18l-2.88 2.47-2.43-2.43c-.145-.144-.335-.217-.526-.217-.167 0-.335.055-.474.167l-2.76 2.24c.08.23.16.46.26.68.11.26.23.51.36.75l2.56-2.08 2.44 2.44c.147.147.337.219.529.219.174 0 .349-.06.492-.179l2.92-2.5v-1.74z" fill="#cdd0d2"/><path d="m12 10.51h-9.82c-.1.481-.16.99-.17 1.5h9.99z" fill="#cdd0d2"/><path d="m12 7.59h-8.69c-.29.47-.54.97-.73 1.5h9.42z" fill="#cdd0d2"/></svg>