<svg id="Color" enable-background="new 0 0 24 24" height="512" viewBox="0 0 24 24" width="512" xmlns="http://www.w3.org/2000/svg"><path d="m14 5.956c-.552 0-1-.448-1-1v-2.106c0-.441-.359-.8-.8-.8h-.4c-.441 0-.8.359-.8.8v2.106c0 .552-.448 1-1 1s-1-.448-1-1v-2.106c0-1.544 1.256-2.8 2.8-2.8h.4c1.544 0 2.8 1.256 2.8 2.8v2.106c0 .552-.448 1-1 1z" fill="#607d8b"/><path d="m22 12.23v.07c0 5.391-3.99 7.86-6.9 9.66-1.02.63-1.98 1.23-2.57 1.82-.15.15-.34.22-.53.22s-.38-.07-.53-.22c-.59-.59-1.55-1.19-2.57-1.82-1.19-.729-2.54-1.57-3.74-2.69-.42-.37-.82-.79-1.19-1.25-.63-.789-1.16-1.689-1.5-2.75-.16-.449-.28-.939-.36-1.46-.07-.47-.11-.98-.11-1.51 0-5.29 4.3-9.27 10-9.27 3.28 0 6.09 1.32 7.88 3.439.37.42.69.88.96 1.36.5.88.85 1.86 1.03 2.9.08.481.13.991.13 1.501z" fill="#ef5350"/><path d="m20.84 7.83c-3.64.52-6.58 2.17-9.42 3.77l-.09.05c-2.82 1.581-5.5 3.07-8.86 3.62-.16-.449-.28-.939-.36-1.46 3.17-.489 5.75-1.95 8.49-3.47 2.72-1.53 5.7-3.21 9.28-3.87.37.42.69.88.96 1.36z" fill="#66bb6a"/><path d="m22 12.23c-3 .29-5.51 1.69-8.37 3.29-2.48 1.381-5.19 2.9-8.47 3.75-.42-.37-.82-.79-1.19-1.25 3.46-.76 6.33-2.359 8.87-3.779 3.08-1.72 5.73-3.19 9.03-3.51.08.479.13.989.13 1.499z" fill="#66bb6a"/><path d="m12 .05h-.2c-1.544 0-2.8 1.256-2.8 2.8v.571c.638-.173 1.307-.292 2-.35v-.221c0-.441.359-.8.8-.8h.2z" fill="#546d79"/><path d="m12 3.03c-.339 0-.672.014-1 .042-.693.058-1.362.177-2 .35-4.144 1.125-7 4.566-7 8.878 0 .53.04 1.04.11 1.51.08.52.2 1.011.36 1.46.34 1.061.87 1.961 1.5 2.75.37.46.77.88 1.19 1.25 1.2 1.12 2.55 1.961 3.74 2.69 1.02.63 1.98 1.23 2.57 1.82.15.15.34.22.53.22v-7.581c-2.038 1.102-4.263 2.183-6.84 2.851-.42-.37-.82-.79-1.19-1.25 3.085-.677 5.7-2.022 8.03-3.311v-3.434c-.194.109-.387.218-.58.326l-.09.05c-2.82 1.581-5.5 3.07-8.86 3.62-.16-.449-.28-.939-.36-1.46 3.17-.489 5.75-1.95 8.49-3.47.459-.258.925-.52 1.4-.781z" fill="#d04846"/><g fill="#59a35c"><path d="m12 9.559c-.475.261-.941.523-1.4.781-2.74 1.52-5.32 2.98-8.49 3.47.08.52.2 1.011.36 1.46 3.36-.55 6.04-2.039 8.86-3.62l.09-.05c.193-.109.386-.218.58-.326z"/><path d="m12 14.708c-2.331 1.29-4.946 2.634-8.03 3.311.37.461.77.881 1.19 1.251 2.577-.668 4.802-1.748 6.84-2.851z"/></g></svg>