<svg id="Color" enable-background="new 0 0 24 24" height="512" viewBox="0 0 24 24" width="512" xmlns="http://www.w3.org/2000/svg"><path d="m14 5.956c-.552 0-1-.448-1-1v-2.106c0-.441-.359-.8-.8-.8h-.4c-.441 0-.8.359-.8.8v2.106c0 .552-.448 1-1 1s-1-.448-1-1v-2.106c0-1.544 1.256-2.8 2.8-2.8h.4c1.544 0 2.8 1.256 2.8 2.8v2.106c0 .552-.448 1-1 1z" fill="#607d8b"/><path d="m12 3.026c-5.701 0-10 3.985-10 9.27 0 5.397 3.989 7.866 6.902 9.668 1.015.628 1.974 1.221 2.568 1.815.146.148.338.221.53.221s.384-.073.53-.22c.594-.595 1.553-1.188 2.568-1.815 2.913-1.803 6.902-4.272 6.902-9.669 0-5.284-4.299-9.27-10-9.27z" fill="#ef5350"/><path d="m15.134 13.596 2.414-.677c.4-.111.814.121.925.519.112.399-.121.814-.52.926l-2.02.566.548 2.147c.103.402-.14.811-.541.912l-.186.023c-.334 0-.64-.225-.726-.564l-.654-2.559-1.624-.982v2.028l1.788 1.874c.286.299.275.773-.024 1.061-.146.139-.332.207-.518.207-.198 0-.395-.078-.542-.232l-1.454-1.523-1.453 1.521c-.286.301-.759.312-1.061.025-.299-.287-.311-.762-.024-1.061l1.788-1.874v-2.028l-1.624.982-.654 2.559c-.086.34-.392.564-.726.564l-.186-.022c-.401-.102-.644-.51-.541-.912l.548-2.147-2.02-.566c-.399-.112-.631-.526-.52-.926.112-.398.529-.629.925-.519l2.413.677 1.685-1.02-1.685-1.02-2.413.678-.202.029c-.328 0-.628-.216-.722-.547-.112-.398.121-.812.52-.925l2.02-.567-.549-2.147c-.103-.401.14-.81.541-.912.399-.105.81.139.912.541l.654 2.559 1.624.982v-2.028l-1.788-1.874c-.286-.3-.275-.774.024-1.061.301-.286.774-.275 1.061.024l1.453 1.524 1.453-1.522c.287-.3.761-.31 1.061-.024.299.286.311.761.024 1.061l-1.788 1.872v2.028l1.624-.983.654-2.558c.102-.402.512-.646.912-.541.401.103.644.511.541.912l-.548 2.146 2.02.567c.399.112.631.526.52.925-.093.331-.394.547-.722.547l-.203-.028-2.414-.678-1.686 1.02z" fill="#eceff1"/><path d="m12 .05h-.2c-1.544 0-2.8 1.256-2.8 2.8v.568c.638-.173 1.307-.292 2-.35v-.218c0-.441.359-.8.8-.8h.2z" fill="#546d79"/><path d="m12 3.026c-.339 0-.672.014-1 .042-.693.058-1.362.177-2 .35-4.144 1.126-7 4.571-7 8.878 0 5.397 3.989 7.866 6.902 9.668 1.015.628 1.974 1.221 2.568 1.815.146.148.338.221.53.221v-6.678l-1.453 1.521c-.147.155-.344.233-.542.233-.186 0-.372-.069-.518-.208-.299-.287-.311-.762-.024-1.061l1.788-1.874v-2.028l-1.624.982-.654 2.559c-.086.34-.392.564-.726.564l-.187-.022c-.401-.102-.644-.51-.541-.912l.548-2.147-2.02-.566c-.399-.112-.631-.526-.52-.926.093-.331.397-.547.724-.547.066 0 .134.009.201.028l2.413.677 1.685-1.02-1.685-1.02-2.413.678-.202.029c-.328 0-.628-.216-.722-.547-.112-.398.121-.812.52-.925l2.02-.567-.549-2.147c-.103-.401.14-.81.541-.912.063-.017.126-.025.188-.025.333 0 .638.227.724.566l.654 2.559 1.624.982v-2.028l-1.788-1.874c-.286-.3-.275-.774.024-1.061.146-.139.332-.208.519-.208.197 0 .394.078.542.232l1.453 1.524z" fill="#d04846"/><path d="m10.005 6.076c-.186 0-.373.069-.519.208-.299.286-.31.76-.024 1.06l1.788 1.874v2.028l-1.624-.982-.654-2.559c-.086-.339-.391-.566-.724-.566-.062 0-.125.008-.188.025-.401.103-.643.511-.541.912l.548 2.146-2.02.567c-.399.112-.631.526-.52.925.093.331.394.547.722.547l.203-.028 2.413-.678 1.685 1.02-1.685 1.02-2.413-.677c-.067-.019-.134-.028-.201-.028-.327 0-.631.215-.724.547-.112.399.121.814.52.926l2.02.566-.548 2.147c-.103.402.14.811.541.912l.186.023c.334 0 .64-.225.726-.564l.654-2.559 1.624-.982v2.028l-1.788 1.874c-.286.299-.275.773.024 1.061.146.139.332.208.518.208.198 0 .395-.078.542-.233l1.454-1.522v-9.491l-1.453-1.522c-.148-.155-.345-.233-.542-.233z" fill="#cdd0d2"/></svg>