<svg id="Color" enable-background="new 0 0 24 24" height="512" viewBox="0 0 24 24" width="512" xmlns="http://www.w3.org/2000/svg"><path d="m14.25 5.423c-.414 0-.75-.336-.75-.75v-2.107c0-.578-.471-1.049-1.05-1.049h-.9c-.579 0-1.05.471-1.05 1.049v2.106c0 .414-.336.75-.75.75s-.75-.335-.75-.749v-2.107c0-1.405 1.144-2.549 2.55-2.549h.9c1.406 0 2.55 1.144 2.55 2.549v2.106c0 .415-.336.751-.75.751z" fill="#607d8b"/><path d="m20.276 13.537h-16.552c-.414 0-.75.336-.75.75 0 4.921 3.965 8.775 9.026 8.775s9.026-3.855 9.026-8.775c0-.414-.336-.75-.75-.75z" fill="#ffd54f"/><path d="m12 19.05c-.414 0-.75-.336-.75-.75v-4.013c0-.414.336-.75.75-.75s.75.336.75.75v4.013c0 .414-.336.75-.75.75z" fill="#ef5350"/><path d="m12 4.037c-5.42 0-10 4.693-10 10.25 0 .414.336.75.75.75h18.5c.414 0 .75-.336.75-.75 0-5.557-4.58-10.25-10-10.25z" fill="#ef5350"/><path d="m12 .018h-.45c-1.406 0-2.55 1.143-2.55 2.548v1.962c.486-.163.987-.287 1.5-.37v-1.592c0-.578.471-1.049 1.05-1.049h.45z" fill="#546d79"/><path d="m11.25 15.037h-8.245c.379 4.557 4.194 8.025 8.995 8.025v-4.012c-.414 0-.75-.336-.75-.75z" fill="#deb945"/><g fill="#d04846"><path d="m12 15.037h-.75v3.263c0 .414.336.75.75.75z"/><path d="m12 4.037c-.508 0-1.009.041-1.5.121-.513.083-1.014.207-1.5.37-4.009 1.341-7 5.268-7 9.759 0 .414.336.75.75.75h.255 8.245.75z"/></g></svg>