<svg id="Color" enable-background="new 0 0 24 24" height="512" viewBox="0 0 24 24" width="512" xmlns="http://www.w3.org/2000/svg"><path d="m12 10.8c-.552 0-1-.448-1-1v-2.25c0-.552.448-1 1-1s1 .448 1 1v2.25c0 .552-.448 1-1 1z" fill="#607d8b"/><path d="m12.585.431c-.285-.354-.886-.354-1.171 0-.402.503-2.414 3.086-2.414 4.519 0 1.654 1.346 3 3 3s3-1.346 3-3c0-1.433-2.012-4.016-2.415-4.519z" fill="#ffca28"/><path d="m16.5 9h-8.5c-.965 0-1.75.785-1.75 1.75v11.5c0 .965.785 1.75 1.75 1.75h8.5c.965 0 1.75-.785 1.75-1.75v-11.5c0-.965-.785-1.75-1.75-1.75z" fill="#e3f2fd"/><path d="m15.5 9h-3.25-3.25c-.414 0-.75.336-.75.75v3.482c0 .926.753 1.678 1.679 1.678.925 0 1.678-.752 1.678-1.678v-2.09c0-.355.289-.643.643-.643s.643.288.643.643v.232c0 .926.753 1.679 1.678 1.679.926 0 1.679-.753 1.679-1.679v-1.624c0-.414-.336-.75-.75-.75z" fill="#607d8b"/><path d="m11 7.779v1.221h1v-1.05c-.351 0-.687-.06-1-.171z" fill="#546d79"/><path d="m12 .165c-.221 0-.443.089-.585.266-.403.503-2.415 3.086-2.415 4.519 0 1.304.836 2.416 2 2.829.313.111.649.171 1 .171z" fill="#deb023"/><path d="m9 9h-1c-.965 0-1.75.785-1.75 1.75v11.5c0 .965.785 1.75 1.75 1.75h4v-13.449c-.231.098-.393.326-.393.592v2.09c0 .926-.753 1.678-1.678 1.678-.926 0-1.679-.752-1.679-1.678v-3.483c0-.414.336-.75.75-.75z" fill="#c6d3dc"/><path d="m12 9h-1-2c-.414 0-.75.336-.75.75v3.482c0 .926.753 1.678 1.679 1.678.925 0 1.678-.752 1.678-1.678v-2.09c0-.266.162-.494.393-.592z" fill="#546d79"/></svg>