<svg id="Color" enable-background="new 0 0 24 24" height="512" viewBox="0 0 24 24" width="512" xmlns="http://www.w3.org/2000/svg"><path d="m12 10.3c-.414 0-.75-.336-.75-.75v-2c0-.414.336-.75.75-.75s.75.336.75.75v2c0 .414-.336.75-.75.75z" fill="#607d8b"/><path d="m15.25 24.05h-6.5c-.965 0-1.75-.785-1.75-1.75v-11.5c0-.965.785-1.75 1.75-1.75h6.5c.965 0 1.75.785 1.75 1.75v11.5c0 .965-.785 1.75-1.75 1.75z" fill="#e3f2fd"/><path d="m12 8.05c-1.878 0-3-1.028-3-2.75 0-1.544 1.992-4.385 2.392-4.939.282-.391.935-.391 1.217 0 .399.554 2.391 3.394 2.391 4.939 0 1.722-1.122 2.75-3 2.75z" fill="#ffca28"/><path d="m11.25 7.989v1.061h.75v-1c-.265 0-.516-.021-.75-.061z" fill="#546d79"/><path d="m12 9.05h-.75-2.5c-.965 0-1.75.785-1.75 1.75v11.5c0 .965.785 1.75 1.75 1.75h3.25z" fill="#c6d3dc"/><path d="m12 .068c-.234 0-.467.098-.608.293-.4.554-2.392 3.394-2.392 4.939 0 1.479.827 2.446 2.25 2.689.234.04.485.061.75.061z" fill="#deb023"/></svg>