<svg id="Color" enable-background="new 0 0 24 24" height="512" viewBox="0 0 24 24" width="512" xmlns="http://www.w3.org/2000/svg"><g><path d="m15.759 6.157c-.256 0-.512-.098-.707-.293-.391-.391-.391-1.023 0-1.414l1.367-1.367c.391-.391 1.023-.391 1.414 0s.391 1.023 0 1.414l-1.367 1.367c-.195.196-.451.293-.707.293z" fill="#ffd54f"/></g><path d="m12 15.55c-.552 0-1-.448-1-1v-2.75c0-.552.448-1 1-1s1 .448 1 1v2.75c0 .552-.448 1-1 1z" fill="#607d8b"/><path d="m15.25 14.05h-6.5c-.965 0-1.75.785-1.75 1.75v3.65c0 .414.336.75.75.75s.75-.336.75-.75v-.057l7.011-.528c.03.387.344.694.739.694.414 0 .75-.336.75-.75v-3.009c0-.965-.785-1.75-1.75-1.75z" fill="#e3f2fd"/><path d="m12.59 5.087c-.284-.362-.896-.362-1.181 0-.402.513-2.409 3.152-2.409 4.713 0 1.794 1.206 3 3 3s3-1.206 3-3c0-1.561-2.007-4.2-2.41-4.713z" fill="#ffca28"/><path d="m12 3.933c-.552 0-1-.448-1-1v-1.933c0-.552.448-1 1-1s1 .448 1 1v1.933c0 .552-.448 1-1 1z" fill="#ffd54f"/><path d="m1 23.996c-.279 0-.556-.116-.753-.342-.363-.416-.321-1.047.095-1.411 6.408-5.601 15.949-6.237 23.202-1.543.463.3.596.919.296 1.383-.3.463-.917.597-1.383.296-6.506-4.209-15.059-3.647-20.798 1.37-.19.165-.425.247-.659.247z" fill="#607d8b"/><path d="m11 12.66v1.389h1v-1.249c-.358 0-.693-.048-1-.14z" fill="#546d79"/><path d="m12 14.05h-1-2.25c-.965 0-1.75.785-1.75 1.75v2.69c1.62-.519 3.303-.82 5-.9z" fill="#c6d3dc"/><path d="m12 4.815c-.224 0-.448.091-.59.272-.403.513-2.41 3.152-2.41 4.713 0 1.436.772 2.495 2 2.861.307.091.642.139 1 .139z" fill="#deb023"/><path d="m12 0c-.552 0-1 .448-1 1v1.933c0 .552.448 1 1 1z" fill="#deb945"/><path d="m12 17.589c-1.697.08-3.38.382-5 .9-2.411.772-4.684 2.027-6.658 3.753-.416.364-.458.995-.095 1.411.198.227.475.343.753.343.233 0 .468-.082.658-.247 2.93-2.562 6.592-3.962 10.342-4.159z" fill="#546d79"/><path d="m8.241 6.157c-.256 0-.512-.098-.707-.293l-1.368-1.367c-.391-.391-.391-1.023 0-1.414s1.023-.391 1.414 0l1.368 1.367c.391.391.391 1.023 0 1.414-.196.196-.451.293-.707.293z" fill="#ffd54f"/><path d="m6.166 3.083c-.391.391-.391 1.023 0 1.414l1.367 1.367c.196.196.452.293.708.293s.511-.097.707-.293z" fill="#deb945"/><path d="m17.833 3.083c.391.391.391 1.023 0 1.414l-1.367 1.367c-.195.195-.451.293-.707.293s-.512-.098-.707-.293z" fill="#deb945"/><path d="m6.683 9.55h-1.933c-.552 0-1-.448-1-1s.448-1 1-1h1.933c.552 0 1 .448 1 1s-.448 1-1 1z" fill="#ffd54f"/><path d="m19.25 9.55h-1.933c-.552 0-1-.448-1-1s.448-1 1-1h1.933c.552 0 1 .448 1 1s-.448 1-1 1z" fill="#ffd54f"/><g fill="#deb945"><path d="m7.683 8.52h-3.933v.03c0 .552.448 1 1 1h1.933c.552 0 1-.448 1-1 0-.01 0-.02 0-.03z"/><path d="m20.25 8.52h-3.932v.03c0 .552.448 1 1 1h1.933c.552 0 1-.448 1-1-.001-.01-.001-.02-.001-.03z"/></g></svg>