<svg id="Color" enable-background="new 0 0 24 24" height="512" viewBox="0 0 24 24" width="512" xmlns="http://www.w3.org/2000/svg"><path d="m12 10.8c-.553 0-1-.448-1-1v-2.25c0-.552.447-1 1-1s1 .448 1 1v2.25c0 .552-.447 1-1 1z" fill="#607d8b"/><path d="m15.25 9.05h-6.5c-.965 0-1.75.785-1.75 1.75v8.75c0 .414.336.75.75.75s.75-.336.75-.75h7c0 .414.336.75.75.75s.75-.336.75-.75v-8.75c0-.965-.785-1.75-1.75-1.75z" fill="#e3f2fd"/><path d="m12.59.337c-.283-.362-.897-.362-1.18 0-.402.513-2.41 3.152-2.41 4.713 0 1.794 1.206 3 3 3s3-1.206 3-3c0-1.561-2.008-4.2-2.41-4.713z" fill="#ffca28"/><path d="m22.841 19.289c-.142-.183-.361-.289-.591-.289l-20.5.001c-.231 0-.449.106-.591.289-.143.182-.192.419-.137.644.703 2.804 3.843 4.066 5.85 4.066h10.256c2.343 0 5.188-1.426 5.85-4.068.055-.224.005-.461-.137-.643z" fill="#607d8b"/><path d="m11 7.91v1.14h1v-1c-.359 0-.693-.048-1-.14z" fill="#546d79"/><path d="m12 9.05h-1-2.25c-.965 0-1.75.785-1.75 1.75v8.201h5z" fill="#c6d3dc"/><path d="m12 .065c-.224 0-.448.091-.59.272-.402.513-2.41 3.152-2.41 4.713 0 1.436.772 2.495 2 2.86.307.091.642.139 1 .139z" fill="#deb023"/><path d="m12 19h-5-5.25c-.231 0-.449.106-.591.289-.143.182-.192.419-.137.644.703 2.805 3.843 4.067 5.85 4.067h5.128z" fill="#546d79"/></svg>