<svg id="Color" enable-background="new 0 0 24 24" height="512" viewBox="0 0 24 24" width="512" xmlns="http://www.w3.org/2000/svg"><path d="m5 6.55c-.553 0-1 .448-1 1v2c0 .552.447 1 1 1s1-.448 1-1v-2c0-.552-.447-1-1-1z" fill="#607d8b"/><path d="m4.41.337c-.402.513-2.41 3.152-2.41 4.713 0 1.883 1.262 3.25 3 3.25s3-1.367 3-3.25c0-1.561-2.008-4.2-2.41-4.713-.283-.362-.897-.362-1.18 0z" fill="#ffca28"/><path d="m8.25 9.05h-6.5c-.965 0-1.75.785-1.75 1.75v11.5c0 .965.785 1.75 1.75 1.75h6.5c.965 0 1.75-.785 1.75-1.75v-11.5c0-.965-.785-1.75-1.75-1.75z" fill="#e3f2fd"/><path d="m4 8.136v.914h1v-.75c-.355 0-.691-.057-1-.164z" fill="#546d79"/><path d="m5 .065c-.224 0-.448.091-.59.272-.402.513-2.41 3.152-2.41 4.713 0 1.498.798 2.669 2 3.086.309.107.645.164 1 .164z" fill="#deb023"/><path d="m5 9.05h-1-2.25c-.965 0-1.75.785-1.75 1.75v11.5c0 .965.785 1.75 1.75 1.75h3.25z" fill="#c6d3dc"/><path d="m19 12.55c-.553 0-1 .448-1 1v2c0 .552.447 1 1 1s1-.448 1-1v-2c0-.552-.447-1-1-1z" fill="#607d8b"/><path d="m19.59 6.337c-.283-.362-.896-.362-1.18 0-.402.513-2.41 3.152-2.41 4.713 0 1.883 1.262 3.25 3 3.25s3-1.367 3-3.25c0-1.561-2.008-4.2-2.41-4.713z" fill="#ffca28"/><path d="m22.25 15.05h-6.5c-.965 0-1.75.785-1.75 1.75v5.5c0 .965.785 1.75 1.75 1.75h6.5c.965 0 1.75-.785 1.75-1.75v-5.5c0-.965-.785-1.75-1.75-1.75z" fill="#e3f2fd"/><path d="m18 14.136v.914h1v-.75c-.356 0-.691-.057-1-.164z" fill="#546d79"/><path d="m19 6.065c-.224 0-.448.091-.59.272-.402.513-2.41 3.152-2.41 4.713 0 1.498.798 2.669 2 3.086.309.107.645.164 1 .164z" fill="#deb023"/><path d="m19 15.05h-1-2.25c-.965 0-1.75.785-1.75 1.75v5.5c0 .965.785 1.75 1.75 1.75h3.25z" fill="#c6d3dc"/></svg>