<svg id="Color" enable-background="new 0 0 24 24" height="512" viewBox="0 0 24 24" width="512" xmlns="http://www.w3.org/2000/svg"><path d="m9.077.242c-2.799 0-5.077 2.278-5.077 5.077 0 1.209.983 2.192 2.192 2.192s2.192-.983 2.192-2.192c0-.382.311-.692.692-.692s.692.311.692.692v16.346c0 1.208.983 2.192 2.192 2.192s2.192-.983 2.192-2.192v-16.346c.002-2.799-2.276-5.077-5.075-5.077z" fill="#ef5350"/><path d="m17.899 15.521-1.414-2.442c-.208-.359-.666-.481-1.024-.273-.186.107-.305.283-.351.476l-2.143-.51-.357-.616c-.208-.358-.667-.479-1.025-.272-.358.208-.48.667-.272 1.025l2.789 4.808c.135.233.384.374.649.374l.099-.006c.3-.04.547-.257.626-.549l.334-1.247 1.247.334c.294.078.605-.027.79-.268.183-.244.204-.572.052-.834z" fill="#ffb300"/><path d="m12.338 11.882c-.359-.207-.817-.086-1.025.272l-.357.616-2.143.51c-.046-.193-.165-.369-.351-.476-.356-.208-.817-.085-1.024.273l-1.414 2.442c-.152.263-.131.591.054.832s.496.345.79.268l1.247-.334.334 1.247c.079.292.326.509.626.549l.099.006c.265 0 .514-.141.649-.374l2.789-4.808c.206-.356.084-.815-.274-1.023z" fill="#ffb300"/><path d="m11.961 14.026-2.14 3.689c-.016.028-.034.054-.053.079v3.872c0 1.208.983 2.192 2.192 2.192h.039v-9.765zm-2.192-1.885v.912l.771-.184c-.114-.073-.223-.155-.326-.247-.17-.14-.319-.302-.445-.481zm-.692-11.899c-2.799 0-5.077 2.278-5.077 5.077 0 1.209.983 2.192 2.192 2.192s2.192-.983 2.192-2.192c0-.382.311-.692.692-.692s.692.311.692.692v3.763c.13-.185.285-.353.462-.5.453-.413 1.084-.625 1.722-.625h.047v-6.787c-.826-.584-1.835-.928-2.922-.928z" fill="#d04846"/><path d="m12 13.96-.039.066.039.066z" fill="#de9c00"/><path d="m8.088 12.704c-.259 0-.511.134-.65.375l-1.414 2.442c-.152.263-.131.591.054.832.144.188.366.293.596.293.064 0 .129-.008.193-.025l1.247-.334.334 1.247c.079.292.326.509.626.549l.099.006c.234 0 .454-.109.596-.295.019-.025.037-.051.053-.079l2.14-3.689.038-.066v-.68c-.013 0-.027 0-.04 0-.516 0-.999-.141-1.42-.411l-.771.184-.957.228c-.046-.193-.165-.369-.351-.476-.117-.069-.246-.101-.373-.101z" fill="#de9c00"/><path d="m15.5 6.97c-.599 0-1.183.223-1.645.626l-1.14 1c-.165.145-.258.355-.255.575.003.219.103.427.271.567.25.207.398.533.398.872s-.149.666-.399.873c-.169.14-.268.347-.271.567s.09.429.255.574l1.104.966.142.113c.435.346.98.537 1.538.537.199 0 .37-.021.477-.053 1.174-.217 2.025-1.246 2.025-2.447v-2.27c0-1.379-1.122-2.5-2.5-2.5z" fill="#ffd54f"/><path d="m10.79 10.61c0-.339.149-.666.398-.872.168-.14.268-.346.271-.565s-.089-.429-.253-.574l-1.133-1.003c-.46-.404-1.048-.626-1.653-.626-1.378 0-2.5 1.122-2.5 2.5v2.271c0 1.199.855 2.229 1.975 2.434.164.044.336.066.525.066.573 0 1.108-.186 1.549-.537l.108-.082 1.13-1c.164-.145.256-.354.253-.573s-.103-.426-.271-.565c-.25-.208-.399-.535-.399-.874z" fill="#ffd54f"/><path d="m18 10.619h-4.87c-.003.336-.151.659-.399.864-.169.14-.268.347-.271.567s.09.429.255.574l1.104.966.142.113c.435.346.98.537 1.538.537.199 0 .37-.021.477-.053 1.173-.217 2.024-1.246 2.024-2.447z" fill="#deb945"/><path d="m10.79 10.619h-4.87v1.121c0 1.199.855 2.229 1.975 2.434.164.044.336.066.525.066.573 0 1.108-.186 1.549-.537l.108-.082 1.13-1c.164-.145.256-.354.253-.573s-.103-.426-.271-.565c-.248-.205-.396-.528-.399-.864z" fill="#deb945"/><path d="m13.715 8.605c-.958-.871-2.578-.848-3.483-.023-.599.496-.942 1.235-.942 2.028 0 .792.343 1.531.924 2.013.488.43 1.091.658 1.746.658s1.258-.228 1.729-.643c.598-.496.941-1.235.941-2.027 0-.794-.343-1.533-.915-2.006z" fill="#ffb300"/><path d="m11.953 7.958c-.638 0-1.269.212-1.722.625-.177.147-.332.315-.462.5-.309.438-.479.969-.479 1.527 0 .561.172 1.096.479 1.531.126.179.275.341.445.482.104.091.213.174.326.247.421.27.904.411 1.42.411h.04v-5.323c-.016 0-.031 0-.047 0z" fill="#de9c00"/></svg>