<svg id="Color" enable-background="new 0 0 24 24" height="512" viewBox="0 0 24 24" width="512" xmlns="http://www.w3.org/2000/svg"><path d="m21.67 10.49-9.25-6.36c-.25-.17-.59-.17-.84 0l-9.25 6.36c-.21.14-.33.37-.33.62v11.14c0 .96.79 1.75 1.75 1.75h16.5c.96 0 1.75-.79 1.75-1.75v-11.14c0-.25-.12-.48-.33-.62z" fill="#eceff1"/><g fill="#607d8b"><path d="m13.5 1.55h-.75v-.75c0-.414-.336-.75-.75-.75s-.75.336-.75.75v.75h-.75c-.414 0-.75.336-.75.75s.336.75.75.75h.75v1.5c0 .414.336.75.75.75s.75-.336.75-.75v-1.5h.75c.414 0 .75-.336.75-.75s-.336-.75-.75-.75z"/><path d="m22.999 13.3c-.194 0-.39-.056-.563-.174l-10.436-7.116-10.437 7.116c-.456.311-1.078.193-1.39-.263-.312-.457-.193-1.079.263-1.39l11-7.5c.34-.231.787-.231 1.127 0l11 7.5c.456.311.574.933.263 1.39-.193.284-.508.437-.827.437z"/><path d="m15 16.8v7.2h-6v-7.2c0-.41.34-.75.75-.75h4.5c.41 0 .75.34.75.75z"/></g><path d="m12 6.01-10 6.818v9.422c0 .96.79 1.75 1.75 1.75h8.25-3v-7.2c0-.41.34-.75.75-.75h2.25z" fill="#cdd0d2"/><path d="m12 .05c-.414 0-.75.336-.75.75v.75h-.75c-.414 0-.75.336-.75.75s.336.75.75.75h.75v1.051l.186-.127c.17-.116.367-.174.564-.174z" fill="#546d79"/><path d="m12 3.8c-.197 0-.394.058-.563.174l-.187.127-10.813 7.373c-.456.311-.574.933-.263 1.39.194.283.508.436.827.436.194 0 .39-.056.562-.174l.437-.298 10-6.818z" fill="#546d79"/><path d="m12 16.05h-2.25c-.41 0-.75.34-.75.75v7.2h3z" fill="#546d79"/></svg>