<svg id="Color" enable-background="new 0 0 24 24" height="512" viewBox="0 0 24 24" width="512" xmlns="http://www.w3.org/2000/svg"><path d="m23.6 12.836-4.75-2.5c-.366-.192-.82-.052-1.014.314-.192.366-.052.82.314 1.013l.35.184v10.653c-.414 0-.75.336-.75.75s.336.75.75.75h3.75c.965 0 1.75-.785 1.75-1.75v-8.75c0-.278-.154-.534-.4-.664z" fill="#cfd8dc"/><path d="m18.501 10.25c-.27 0-.531.145-.665.4-.192.366-.052.82.314 1.013l.35.184v10.653c-.414 0-.75.336-.75.75s.336.75.75.75h3v-12.269l-2.65-1.395c-.112-.058-.231-.086-.349-.086z" fill="#b4bcc0"/><path d="m5.75 22.5v-10.662l.335-.168c.371-.186.521-.636.336-1.006-.186-.369-.635-.521-1.006-.335l-5 2.5c-.255.127-.415.387-.415.671v8.75c0 .965.785 1.75 1.75 1.75h4c.414 0 .75-.336.75-.75s-.336-.75-.75-.75z" fill="#cfd8dc"/><path d="m2.644 11.715-2.229 1.114c-.255.127-.415.387-.415.671v8.75c0 .965.785 1.75 1.75 1.75h.894z" fill="#b4bcc0"/><path d="m19 5.85v17.4c0 .41-.34.75-.75.75h-12.5c-.41 0-.75-.34-.75-.75v-17.4c0-.23.1-.44.28-.58l6.25-5.09c.27-.22.67-.22.939 0l6.25 5.09c.181.14.281.35.281.58z" fill="#eceff1"/><g fill="#607d8b"><path d="m13.5 5.55h-.75v-.75c0-.414-.336-.75-.75-.75s-.75.336-.75.75v.75h-.75c-.414 0-.75.336-.75.75s.336.75.75.75h.75v2.25c0 .414.336.75.75.75s.75-.336.75-.75v-2.25h.75c.414 0 .75-.336.75-.75s-.336-.75-.75-.75z"/><path d="m19.999 8.25c-.215 0-.432-.069-.614-.212l-7.385-5.769-7.385 5.77c-.437.34-1.064.261-1.403-.173-.34-.435-.263-1.063.173-1.403l8-6.25c.361-.282.869-.282 1.23 0l8 6.25c.436.34.513.969.173 1.403-.197.252-.491.384-.789.384z"/><path d="m15 16.8v7.2h-6v-7.2c0-.41.34-.75.75-.75h4.5c.41 0 .75.34.75.75z"/></g><path d="m12 2.269-7 5.468v15.513c0 .41.34.75.75.75h6.25-3v-7.2c0-.41.34-.75.75-.75h2.25v-6c-.414 0-.75-.336-.75-.75v-2.25h-.75c-.414 0-.75-.336-.75-.75s.336-.75.75-.75h.75v-.75c0-.414.336-.75.75-.75z" fill="#cdd0d2"/><path d="m12 4.05c-.414 0-.75.336-.75.75v.75h-.75c-.414 0-.75.336-.75.75s.336.75.75.75h.75v2.25c0 .414.336.75.75.75z" fill="#546d79"/><path d="m12 0c-.217 0-.435.071-.615.212l-8 6.25c-.436.34-.513.969-.173 1.403.197.252.491.384.789.384.215 0 .431-.069.614-.211l.385-.301 7-5.469z" fill="#546d79"/><path d="m12 16.05h-2.25c-.41 0-.75.34-.75.75v7.2h3z" fill="#546d79"/></svg>