<svg id="Color" enable-background="new 0 0 24 24" height="512" viewBox="0 0 24 24" width="512" xmlns="http://www.w3.org/2000/svg"><path d="m13.25 24.009h-2.5c-.965 0-1.75-.785-1.75-1.75v-11.25h-5.25c-.965 0-1.75-.785-1.75-1.75v-2.5c0-.965.785-1.75 1.75-1.75h5.25v-3.25c0-.965.785-1.75 1.75-1.75h2.5c.965 0 1.75.785 1.75 1.75v3.25h5.25c.965 0 1.75.785 1.75 1.75v2.5c0 .965-.785 1.75-1.75 1.75h-5.25v11.25c0 .965-.785 1.75-1.75 1.75z" fill="#607d8b"/><path d="m12 .009h-1.25c-.965 0-1.75.785-1.75 1.75v3.25h-5.25c-.965 0-1.75.785-1.75 1.75v2.5c0 .965.785 1.75 1.75 1.75h5.25v11.25c0 .965.785 1.75 1.75 1.75h1.25z" fill="#546d79"/></svg>