<svg id="Color" enable-background="new 0 0 24 24" height="512" viewBox="0 0 24 24" width="512" xmlns="http://www.w3.org/2000/svg"><path d="m15.559.184c-.61 0-1.198.221-1.656.624l-1.141 1.003c-.162.143-.255.348-.255.563v2.92c0 .216.093.421.255.563l1.141 1.003c.458.402 1.046.624 1.656.624 1.383 0 2.508-1.125 2.508-2.509v-2.284c-.001-1.382-1.126-2.507-2.508-2.507z" fill="#ef5350"/><path d="m10.098.809c-.458-.405-1.046-.625-1.656-.625h-.001c-1.383 0-2.508 1.125-2.508 2.508v2.283c0 1.384 1.125 2.509 2.508 2.509.609 0 1.197-.222 1.656-.624l1.141-1.003c.162-.143.255-.348.255-.563v-2.92c0-.215-.093-.42-.255-.563z" fill="#ef5350"/><path d="m18.066 4h-5.56v1.293c0 .216.093.421.255.563l1.141 1.003c.458.402 1.046.624 1.656.624 1.383 0 2.508-1.125 2.508-2.509z" fill="#d04846"/><path d="m11.493 4h-5.56v.975c0 1.384 1.125 2.509 2.508 2.509.609 0 1.197-.222 1.656-.624l1.141-1.003c.162-.143.255-.348.255-.563z" fill="#d04846"/><path d="m12 9.666c-.552 0-1-.447-1-1v-2.899c0-.552.448-1 1-1s1 .448 1 1v2.899c0 .553-.448 1-1 1z" fill="#ffb300"/><path d="m12 1.15c-1.479 0-2.683 1.203-2.683 2.684 0 1.479 1.204 2.683 2.683 2.683 1.48 0 2.683-1.204 2.683-2.683 0-1.48-1.203-2.684-2.683-2.684z" fill="#e53935"/><path d="m12 7.916c-4.411 0-8 3.59-8 8 0 4.412 3.589 8 8 8s8-3.588 8-8c0-4.41-3.589-8-8-8z" fill="#ffd54f"/><path d="m11 6.323v1.655c.328-.041.661-.062 1-.062v-1.399c-.353 0-.691-.069-1-.194z" fill="#de9c00"/><path d="m12 1.15c-1.479 0-2.683 1.203-2.683 2.684 0 1.125.697 2.092 1.683 2.489.309.125.647.193 1 .193z" fill="#c7322e"/><path d="m12 7.916c-.339 0-.672.021-1 .062-3.941.494-7 3.866-7 7.938 0 4.412 3.589 8 8 8z" fill="#deb945"/></svg>