<svg id="Color" enable-background="new 0 0 24 24" height="512" viewBox="0 0 24 24" width="512" xmlns="http://www.w3.org/2000/svg"><path d="m18 24h-12c-1.657 0-3-1.343-3-3v-18c0-1.657 1.343-3 3-3h12c1.657 0 3 1.343 3 3v18c0 1.657-1.343 3-3 3z" fill="#eceff1"/><path d="m15.94 10.546c-.12.271-.391.45-.69.45h-6.5c-.3 0-.569-.18-.689-.45-.121-.27-.061-.59.139-.81l3.25-3.5c.28-.311.82-.311 1.1 0l3.25 3.5c.2.22.261.54.14.81z" fill="#66bb6a"/><path d="m15.92 13.576c-.12.26-.38.42-.67.42h-6.5c-.29 0-.55-.16-.68-.42-.12-.26-.09-.57.09-.8l1.42-1.78h4.851l1.409 1.78c.18.23.21.54.08.8z" fill="#43a047"/><path d="m12.75 13.996v1.25c0 .41-.34.75-.75.75s-.75-.34-.75-.75v-1.25z" fill="#388e3c"/><path d="m12 0h-6c-1.657 0-3 1.343-3 3v18c0 1.657 1.343 3 3 3h6v-8.004c-.41 0-.75-.34-.75-.75v-1.25h-2.5c-.29 0-.55-.16-.68-.42-.12-.26-.09-.57.09-.8l1.42-1.78h-.83c-.3 0-.569-.18-.689-.45-.121-.27-.061-.59.139-.81l3.25-3.5c.14-.155.345-.233.55-.233z" fill="#cdd0d2"/><path d="m12 6.003c-.205 0-.41.078-.55.233l-3.25 3.5c-.2.22-.26.54-.14.81.12.271.39.45.689.45h.83 2.421z" fill="#59a35c"/><path d="m12 10.996h-2.42l-1.42 1.78c-.18.229-.21.54-.09.8.13.26.39.42.68.42h2.5.75z" fill="#3a8b3e"/><path d="m12 13.996h-.75v1.25c0 .41.34.75.75.75z" fill="#317c34"/></svg>