<svg id="Color" enable-background="new 0 0 24 24" height="512" viewBox="0 0 24 24" width="512" xmlns="http://www.w3.org/2000/svg"><path d="m22 18.39c0 .42-.34.75-.75.75h-18.5c-.41 0-.75-.33-.75-.75 0-1.029.1-2.029.3-2.979.15-.811.38-1.59.67-2.33 1.6-4.211 5.05-7.121 9.03-7.121s7.43 2.91 9.03 7.12c.29.74.52 1.52.67 2.33.2.95.3 1.95.3 2.98z" fill="#ef5350"/><path d="m12 1.05c-1.654 0-3 1.346-3 3s1.346 3 3 3 3-1.346 3-3-1.346-3-3-3z" fill="#f44336"/><path d="m21.7 15.41-3.29-2.37-2.47 2.47c-.28.28-.72.3-1.02.04l-2.92-2.5-2.92 2.5c-.3.26-.74.24-1.02-.04l-2.47-2.47-3.29 2.37c.15-.811.38-1.59.67-2.33l2.26-1.63c.3-.21.71-.181.97.08l2.43 2.43 2.88-2.47c.28-.24.7-.24.98 0l2.88 2.47 2.43-2.43c.26-.261.67-.29.97-.08l2.26 1.63c.29.74.52 1.52.67 2.33z" fill="#e3f2fd"/><path d="m21.5 18.05h-19c-1.378 0-2.5 1.122-2.5 2.5s1.122 2.5 2.5 2.5h19c1.378 0 2.5-1.122 2.5-2.5s-1.122-2.5-2.5-2.5z" fill="#66bb6a"/><path d="m5.59 13.04-3.29 2.37c-.181.861-.28 1.762-.297 2.689.161-.033.327-.05.497-.05h9.5v-5l-2.92 2.5c-.142.123-.315.183-.487.183-.193 0-.385-.075-.533-.223zm4.347-6.814c-3.084.808-5.651 3.392-6.967 6.854l2.26-1.63c.133-.093.287-.139.44-.139.193 0 .385.073.53.219l2.43 2.43 2.88-2.47c.14-.12.315-.18.49-.18v-4.26c-.798 0-1.525-.314-2.063-.824z" fill="#d04846"/><path d="m12 1.05c-1.654 0-3 1.346-3 3 0 .856.36 1.629.937 2.176.538.51 1.265.824 2.063.824z" fill="#d43a2f"/><path d="m12 11.31c-.175 0-.35.06-.49.18l-2.88 2.47-2.43-2.43c-.145-.146-.337-.219-.53-.219-.153 0-.307.046-.44.139l-2.26 1.63c-.29.74-.52 1.52-.67 2.33l3.29-2.37 2.47 2.47c.148.148.34.223.533.223.173 0 .346-.06.487-.183l2.92-2.5z" fill="#c6d3dc"/><path d="m12 18.05h-9.5c-.17 0-.337.017-.497.05-1.141.231-2.003 1.242-2.003 2.45 0 1.378 1.122 2.5 2.5 2.5h9.5z" fill="#59a35c"/></svg>