<svg id="Color" enable-background="new 0 0 24 24" height="512" viewBox="0 0 24 24" width="512" xmlns="http://www.w3.org/2000/svg"><path d="m24 8.65v1.59l-11.07 5.78c-.58.301-1.279.301-1.859 0l-11.071-5.78v-1.59c0-.83.46-1.59 1.19-1.98l9.75-5.21c.659-.35 1.46-.35 2.119 0l9.75 5.21c.731.39 1.191 1.15 1.191 1.98z" fill="#e53935"/><path d="m21 2.75c0-1.519-1.231-2.75-2.75-2.75h-12.5c-1.519 0-2.75 1.231-2.75 2.75v17.32c0 .414.336.75.75.75h16.5c.414 0 .75-.336.75-.75z" fill="#f5f5f5"/><path d="m24 10.24v10.51c0 1.24-1.01 2.25-2.25 2.25h-19.5c-1.24 0-2.25-1.01-2.25-2.25v-10.51l11.07 5.779c.58.301 1.279.301 1.859 0z" fill="#ef5350"/><path d="m15.94 6.546c-.12.271-.391.45-.69.45h-6.5c-.3 0-.569-.18-.689-.45-.121-.27-.061-.59.139-.81l3.25-3.5c.28-.311.82-.311 1.1 0l3.25 3.5c.2.22.26.54.14.81z" fill="#66bb6a"/><path d="m15.92 9.576c-.12.26-.38.42-.67.42h-6.5c-.29 0-.55-.16-.68-.42-.12-.26-.09-.57.09-.8l1.42-1.78h4.851l1.409 1.78c.18.23.21.54.08.8z" fill="#43a047"/><path d="m12.75 9.996v1.25c0 .41-.34.75-.75.75s-.75-.34-.75-.75v-1.25z" fill="#388e3c"/><path d="m3 5.703-1.81.967c-.73.39-1.19 1.15-1.19 1.98v1.59l3 1.566z" fill="#c7322e"/><path d="m12 0h-6.25c-1.519 0-2.75 1.231-2.75 2.75v2.953 6.103l8.07 4.213c.29.15.61.226.93.226v-4.249c-.41 0-.75-.34-.75-.75v-1.25h-2.5c-.29 0-.55-.16-.68-.42-.12-.26-.09-.57.09-.8l1.42-1.78h-.83c-.3 0-.569-.18-.689-.45-.121-.27-.061-.59.139-.81l3.25-3.5c.14-.155.345-.233.55-.233z" fill="#d5d5d5"/><path d="m0 10.24v10.51c0 1.24 1.01 2.25 2.25 2.25h9.75v-6.755c-.32 0-.64-.075-.93-.226l-8.07-4.213z" fill="#d04846"/><path d="m12 2.003c-.205 0-.41.078-.55.233l-3.25 3.5c-.2.22-.26.54-.14.81.12.271.39.45.689.45h.83 2.421z" fill="#59a35c"/><path d="m12 6.996h-2.42l-1.42 1.78c-.18.229-.21.54-.09.8.13.26.39.42.68.42h2.5.75z" fill="#3a8b3e"/><path d="m12 9.996h-.75v1.25c0 .41.34.75.75.75z" fill="#317c34"/></svg>