<svg id="Color" enable-background="new 0 0 24 24" height="512" viewBox="0 0 24 24" width="512" xmlns="http://www.w3.org/2000/svg"><path d="m12 .139c-4.962 0-9 4.037-9 9 0 7.051 8.157 14.329 8.504 14.636.142.125.319.188.496.188s.354-.062.496-.188c.347-.307 8.504-7.586 8.504-14.636 0-4.963-4.038-9-9-9z" fill="#ef5350"/><path d="m15.819 10.922-1.369-1.594h.8c.293 0 .56-.172.682-.438.122-.267.078-.58-.113-.803l-3.25-3.777c-.284-.331-.853-.331-1.137 0l-3.25 3.777c-.192.224-.236.537-.114.804.122.265.389.437.682.437h.806l-1.374 1.594c-.192.222-.236.535-.114.802s.388.438.682.438h2.5v1.138c0 .414.336.75.75.75s.75-.336.75-.75v-1.139h2.5c.293 0 .559-.171.682-.436.122-.267.078-.58-.113-.803z" fill="#e3f2fd"/><path d="m12 .139c-4.962 0-9 4.037-9 9 0 7.051 8.157 14.329 8.504 14.636.142.125.319.188.496.188v-9.913c-.414 0-.75-.336-.75-.75v-1.139h-2.5c-.293 0-.56-.171-.682-.438-.123-.267-.078-.58.114-.802l1.374-1.594h-.806c-.293 0-.56-.172-.682-.438-.122-.265-.078-.578.114-.801l3.25-3.777c.142-.166.355-.249.568-.249z" fill="#d04846"/><path d="m12 4.062c-.213 0-.426.083-.568.248l-3.25 3.777c-.192.224-.236.537-.114.804.122.265.389.437.682.437h.806l-1.374 1.594c-.192.222-.236.535-.114.802s.388.438.682.438h2.5v1.138c0 .414.336.75.75.75z" fill="#c6d3dc"/></svg>