<svg id="Color" enable-background="new 0 0 24 24" height="512" viewBox="0 0 24 24" width="512" xmlns="http://www.w3.org/2000/svg"><path d="m16.5.05c-.175 0-.355.028-.536.082l-.079.029-11.693 3.98c-.348.119-.559.472-.498.834.061.361.373.626.739.626h.003l12.817-.051c.413-.002.747-.337.747-.75v-3c0-1.292-.808-1.75-1.5-1.75z" fill="#e57373"/><path d="m19.25 4.05h-14.5c-.189 0-.375.03-.554.09-.716.238-1.196.905-1.196 1.66v16.5c0 .965.785 1.75 1.75 1.75h14.5c.965 0 1.75-.785 1.75-1.75v-16.5c0-.965-.785-1.75-1.75-1.75z" fill="#ef5350"/><path d="m14.301 14.05h.949c.298 0 .568-.177.687-.45s.065-.592-.138-.81l-3.25-3.5c-.285-.306-.814-.306-1.1 0l-3.25 3.5c-.203.218-.257.537-.138.81s.39.45.688.45h.955l-1.522 1.759c-.191.222-.236.536-.115.803.122.267.389.438.683.438h2.5v1.25c0 .414.336.75.75.75s.75-.336.75-.75v-1.25h2.5c.293 0 .56-.171.682-.437.122-.267.078-.58-.113-.802z" fill="#fff"/><path d="m12 1.483-7.791 2.652c.175-.056.357-.085.541-.085h7.25z" fill="#c76464"/><path d="m12 4.05h-7.25c-.184 0-.366.029-.541.086-.004.001-.008.002-.013.004-.716.238-1.196.905-1.196 1.66v16.5c0 .965.785 1.75 1.75 1.75h7.25v-5c-.414 0-.75-.336-.75-.75v-1.25h-2.5c-.294 0-.561-.171-.683-.438-.121-.267-.076-.581.115-.803l1.522-1.759h-.954c-.298 0-.568-.177-.688-.45-.119-.273-.065-.592.138-.81l3.25-3.5c.143-.153.346-.23.55-.23z" fill="#d04846"/><path d="m12 9.06c-.204 0-.407.076-.55.229l-3.25 3.5c-.203.218-.257.537-.138.81s.39.45.688.45h.955l-1.522 1.759c-.191.222-.236.536-.115.803.122.267.389.438.683.438h2.5v1.25c0 .414.336.75.75.75v-9.989z" fill="#dedede"/></svg>