<svg id="Color" enable-background="new 0 0 24 24" height="512" viewBox="0 0 24 24" width="512" xmlns="http://www.w3.org/2000/svg"><path d="m13.5 1.55h-.75v-.75c0-.414-.336-.75-.75-.75s-.75.336-.75.75v.75h-.75c-.414 0-.75.336-.75.75s.336.75.75.75h.75v1.75c0 .414.336.75.75.75s.75-.336.75-.75v-1.75h.75c.414 0 .75-.336.75-.75s-.336-.75-.75-.75z" fill="#607d8b"/><path d="m24 12.5v9.75c0 .96-.79 1.75-1.75 1.75h-20.5c-.96 0-1.75-.79-1.75-1.75v-9.75c0-.96.79-1.75 1.75-1.75h3.25v-3.25c0-.3.18-.57.45-.69l6.25-2.75c.19-.08.41-.08.6 0l6.25 2.75c.27.12.45.39.45.69v3.25h3.25c.96 0 1.75.79 1.75 1.75z" fill="#cfd8dc"/><path d="m16 19.05v4.95h-8v-4.95c0-2.21 1.79-4 4-4s4 1.79 4 4z" fill="#607d8b"/><path d="m12 .05c-.414 0-.75.336-.75.75v.75h-.75c-.414 0-.75.336-.75.75s.336.75.75.75h.75v1.208l.45-.198c.095-.04.197-.06.3-.06z" fill="#546d79"/><path d="m12 4c-.103 0-.205.02-.3.06l-.45.198-5.8 2.552c-.27.12-.45.39-.45.69v3.25h-3.25c-.96 0-1.75.79-1.75 1.75v9.75c0 .96.79 1.75 1.75 1.75h10.25-4v-4.95c0-2.21 1.79-4 4-4z" fill="#b4bcc0"/><path d="m12 15.05c-2.21 0-4 1.79-4 4v4.95h4z" fill="#546d79"/></svg>