<svg id="Color" enable-background="new 0 0 24 24" height="512" viewBox="0 0 24 24" width="512" xmlns="http://www.w3.org/2000/svg"><g><path d="m20.657 19.049c-.339 0-.683-.086-.997-.268-.955-.551-1.283-1.777-.731-2.731.267-.462.698-.793 1.214-.932.517-.136 1.055-.067 1.518.2.955.552 1.283 1.777.732 2.731-.371.641-1.045 1-1.736 1zm.004-2.499c-.043 0-.087.006-.13.018-.129.034-.236.117-.303.232-.138.239-.056.545.182.683.239.139.545.055.683-.183.138-.239.056-.545-.183-.683-.077-.044-.162-.067-.249-.067z" fill="#cfd8dc"/></g><g><path d="m3.343 19.049c-.691 0-1.365-.358-1.735-1-.551-.955-.223-2.18.732-2.731.463-.267 1.002-.336 1.518-.2.516.139.947.47 1.214.933.551.954.223 2.18-.732 2.731-.314.181-.658.267-.997.267zm.622-.917h.01zm-.626-1.582c-.086 0-.172.023-.249.067-.239.138-.321.444-.183.683.138.238.444.322.683.183.238-.138.32-.444.183-.683-.067-.116-.174-.199-.303-.233-.044-.011-.088-.017-.131-.017z" fill="#cfd8dc"/></g><path d="m12 21.3c-.414 0-.75-.336-.75-.75v-6c0-.414.336-.75.75-.75s.75.336.75.75v6c0 .414-.336.75-.75.75z" fill="#eceff1"/><path d="m12 10.3c-.414 0-.75-.336-.75-.75v-6c0-.414.336-.75.75-.75s.75.336.75.75v6c0 .414-.336.75-.75.75z" fill="#eceff1"/><g fill="#cfd8dc"><path d="m14.478 19.74c-.165 0-.33-.054-.468-.165l-2.01-1.607-2.01 1.608c-.324.261-.796.207-1.054-.117-.259-.324-.207-.795.117-1.054l2.479-1.983c.274-.22.663-.22.937 0l2.479 1.983c.323.259.375.73.117 1.054-.149.185-.367.281-.587.281z"/><path d="m12 7.842c-.166 0-.332-.055-.469-.165l-2.478-1.982c-.323-.259-.376-.731-.117-1.054s.73-.376 1.054-.117l2.01 1.608 2.01-1.608c.325-.259.796-.207 1.054.117.259.324.207.795-.117 1.054l-2.479 1.983c-.136.11-.302.164-.468.164z"/><path d="m12 4.05c-1.103 0-2-.897-2-2s.897-2 2-2 2 .897 2 2-.897 2-2 2zm0-2.5c-.276 0-.5.224-.5.5s.224.5.5.5.5-.224.5-.5-.224-.5-.5-.5z"/><path d="m12 24c-1.103 0-2-.897-2-2s.897-2 2-2 2 .897 2 2-.897 2-2 2z"/><path d="m12 4c-1.103 0-2-.897-2-2s.897-2 2-2 2 .897 2 2-.897 2-2 2z"/></g><path d="m12 17.968-.75.6v1.578c.232-.094.485-.146.75-.146zm-.75-3.013v1.692l.281-.225c.137-.11.303-.165.469-.165v-1.207c-.259 0-.51-.033-.75-.095z" fill="#cdd0d2"/><path d="m11.25 7.453v1.692c.24-.062.491-.095.75-.095v-1.208c-.166 0-.332-.055-.469-.165zm0-3.549v1.628l.75.6v-2.082c-.265 0-.518-.052-.75-.146z" fill="#cdd0d2"/><path d="m12 16.257c-.166 0-.332.055-.469.165l-.281.225-2.197 1.758c-.323.259-.375.73-.117 1.054.148.185.366.282.586.282.164 0 .33-.054.468-.165l1.26-1.008.75-.6z" fill="#b4bcc0"/><path d="m9.522 4.359c-.22 0-.438.096-.586.281-.259.324-.206.796.117 1.055l2.197 1.758.281.225c.137.11.303.165.469.165v-1.71l-.75-.6-1.26-1.009c-.138-.111-.304-.165-.468-.165z" fill="#b4bcc0"/><path d="m10 2.025v.025c0 .838.518 1.557 1.25 1.854.232.094.485.146.75.146v-.05c-1.095 0-1.987-.883-2-1.975z" fill="#b4bcc0"/><path d="m12 20c-.265 0-.518.052-.75.146-.732.297-1.25 1.016-1.25 1.854 0 1.103.897 2 2 2z" fill="#b4bcc0"/><path d="m12 0c-1.103 0-2 .897-2 2v.025c.013 1.092.905 1.975 2 1.975z" fill="#b4bcc0"/><path d="m9.811 11.669c-.134 0-.27-.034-.394-.105l-5.456-3.15c-.377-.217-.505-.699-.288-1.076s.699-.505 1.076-.288l5.456 3.15c.377.217.505.699.288 1.076-.146.253-.411.393-.682.393z" fill="#eceff1"/><path d="m19.813 17.444c-.134 0-.269-.034-.393-.105l-5.456-3.15c-.377-.217-.506-.699-.288-1.076.217-.377.7-.505 1.076-.288l5.456 3.15c.376.217.505.699.288 1.076-.146.253-.411.393-.683.393z" fill="#eceff1"/><path d="m4.75 11.477c-.3 0-.583-.181-.699-.477-.15-.386.04-.821.426-.972l2.397-.937-.387-2.545c-.062-.409.219-.792.629-.854.409-.06.792.219.854.628l.478 3.138c.053.347-.142.684-.468.812l-2.957 1.155c-.09.035-.182.052-.273.052z" fill="#cfd8dc"/><path d="m16.771 18.417c-.364 0-.684-.266-.74-.637l-.478-3.138c-.053-.347.142-.684.468-.812l2.957-1.155c.386-.149.821.04.972.426.15.386-.04.821-.426.972l-2.397.937.387 2.545c.062.409-.219.792-.628.854z" fill="#cfd8dc"/><path d="m3.336 9.051c-.347 0-.688-.091-.997-.269-.954-.552-1.282-1.777-.731-2.732.55-.956 1.774-1.285 2.732-.732.955.552 1.283 1.777.731 2.732-.266.462-.697.793-1.214.931-.172.047-.347.07-.521.07z" fill="#cfd8dc"/><path d="m20.657 19.049c-.339 0-.683-.086-.997-.268-.955-.551-1.283-1.777-.731-2.731.267-.462.698-.793 1.214-.932.517-.136 1.055-.067 1.518.2.955.552 1.283 1.777.732 2.731-.371.641-1.045 1-1.736 1z" fill="#cfd8dc"/><path d="m8.356 9.946c-.083.144-.213.26-.377.324l-.479.187 1.917 1.107c.124.072.26.105.394.105.272 0 .537-.141.682-.394.014-.024.027-.049.038-.074zm-3.285-1.896c-.153.265-.36.488-.607.655l1.372.792 1.038-.406z" fill="#cdd0d2"/><path d="m17.126 15.009.168 1.102 1.373.793c.021-.292.107-.584.262-.853zm-3.405-1.965c-.016.022-.031.045-.045.07-.218.377-.089.858.288 1.076l1.666.962-.078-.509c-.027-.173.009-.344.092-.488z" fill="#cdd0d2"/><path d="m6.874 9.091-1.038.406-1.359.531c-.386.151-.576.586-.426.972.116.296.399.477.699.477.091 0 .183-.017.273-.051l2.477-.969.479-.187c.163-.064.294-.18.377-.324z" fill="#b4bcc0"/><path d="m15.644 14.154c-.083.144-.118.314-.092.488l.078.509.4 2.629c.056.372.376.637.74.637l.114-.009c.41-.062.691-.445.628-.854l-.22-1.443-.168-1.102z" fill="#b4bcc0"/><path d="m1.608 6.05c-.551.955-.223 2.18.732 2.732.308.178.65.269.996.269.174 0 .349-.023.521-.069.22-.059.424-.153.607-.277.247-.168.454-.39.607-.655z" fill="#b4bcc0"/><path d="m18.929 16.05c-.156.27-.241.562-.262.853-.053.74.309 1.483.994 1.878.314.182.657.268.997.268.691 0 1.365-.359 1.735-1z" fill="#b4bcc0"/><path d="m14.125 11.669c-.272 0-.537-.141-.683-.394-.217-.377-.088-.858.288-1.076l5.457-3.15c.375-.218.858-.089 1.075.288.218.377.089.858-.288 1.076l-5.456 3.15c-.123.073-.259.106-.393.106z" fill="#eceff1"/><path d="m4.639 17.05c-.259 0-.511-.134-.65-.375-.207-.359-.084-.817.274-1.024l5.196-3c.358-.207.817-.084 1.024.274.207.359.084.817-.274 1.024l-5.196 3c-.117.069-.246.101-.374.101z" fill="#eceff1"/><path d="m19.25 11.477c-.091 0-.183-.017-.273-.051l-2.957-1.155c-.327-.128-.521-.465-.468-.812l.478-3.139c.062-.41.451-.688.854-.628.41.062.691.445.628.854l-.387 2.545 2.397.937c.386.151.576.586.426.972-.115.296-.398.477-.698.477z" fill="#cfd8dc"/><path d="m7.229 18.417-.114-.009c-.41-.062-.691-.445-.628-.854l.387-2.545-2.397-.937c-.386-.151-.576-.586-.426-.972.151-.386.586-.575.972-.426l2.957 1.155c.327.128.521.465.468.812l-.478 3.139c-.056.371-.376.637-.741.637z" fill="#cfd8dc"/><path d="m20.664 9.051c-.174 0-.349-.023-.521-.069-.516-.138-.947-.469-1.214-.932-.551-.954-.223-2.18.732-2.731.955-.553 2.182-.223 2.732.732.551.955.223 2.18-.732 2.731-.309.178-.651.269-.997.269z" fill="#cfd8dc"/><path d="m3.343 19.049c-.691 0-1.365-.358-1.735-1-.551-.955-.223-2.18.732-2.731.463-.267 1.002-.336 1.518-.2.516.139.947.47 1.214.933.551.954.223 2.18-.732 2.731-.314.181-.658.267-.997.267zm.622-.917h.01z" fill="#cfd8dc"/><path d="m15.644 9.946-2.225 1.285c.007.015.016.03.024.045.146.253.411.394.683.394.134 0 .269-.034.393-.105l1.943-1.122-.441-.172c-.164-.065-.294-.181-.377-.325zm3.285-1.896-1.803 1.041 1 .39 1.381-.797c-.234-.164-.431-.379-.578-.634z" fill="#cdd0d2"/><path d="m6.874 15.009-1.803 1.041c.132.229.214.474.248.722l1.41-.814zm3.61-2.084-2.128 1.229c.083.144.118.314.092.488l-.054.356 1.817-1.049c.358-.207.48-.665.273-1.024z" fill="#cdd0d2"/><path d="m17.126 9.091-1.482.855c.083.144.213.26.377.324l.441.172 2.516.983c.09.035.182.051.273.051.3 0 .583-.181.699-.477.15-.386-.04-.821-.426-.972l-1.398-.546z" fill="#b4bcc0"/><path d="m8.356 14.154-1.482.855-.144.949-.243 1.596c-.063.409.219.792.628.854l.114.009c.364 0 .684-.266.74-.637l.424-2.782.054-.356c.027-.174-.008-.345-.091-.488z" fill="#b4bcc0"/><path d="m22.392 6.05-3.464 2c.147.255.344.47.578.635.19.134.405.235.636.297.172.046.347.069.521.069.347 0 .688-.091.997-.269.955-.552 1.283-1.777.732-2.732z" fill="#b4bcc0"/><path d="m5.071 16.05-3.289 1.899-.174.101c.37.641 1.044 1 1.735 1 .339 0 .683-.086.997-.268.726-.419 1.089-1.227.98-2.009-.034-.248-.116-.493-.249-.723.001.001.001 0 0 0z" fill="#b4bcc0"/><path d="m12 15.05c-1.654 0-3-1.346-3-3s1.346-3 3-3 3 1.346 3 3-1.346 3-3 3z" fill="#cfd8dc"/><path d="m12 9.05c-.259 0-.51.033-.75.095-1.292.334-2.25 1.509-2.25 2.905 0 1.395.958 2.571 2.25 2.905.24.062.491.095.75.095z" fill="#b4bcc0"/></svg>