<svg id="Color" enable-background="new 0 0 24 24" height="512" viewBox="0 0 24 24" width="512" xmlns="http://www.w3.org/2000/svg"><path d="m15.854 23.146c-1.314-1.314-1.353-2.586-1.354-2.649-.002-.274-.225-.497-.5-.497h-4.02c-.276 0-.5.227-.5.503 0 .054-.018 1.327-1.334 2.644-.143.143-.186.357-.108.545.077.187.26.308.462.308h7c.202 0 .385-.121.462-.309.077-.187.034-.402-.108-.545z" fill="#546e7a"/><path d="m22.25 4h-20.5c-.965 0-1.75.785-1.75 1.75v13.5c0 .965.785 1.75 1.75 1.75h20.5c.965 0 1.75-.785 1.75-1.75v-13.5c0-.965-.785-1.75-1.75-1.75z" fill="#607d8b"/><path d="m22 16.75h-20v-11h20z" fill="#eceff1"/><path d="m15.94 5.6c-.12.271-.39.45-.69.45h-6.5c-.3 0-.57-.18-.69-.45s-.06-.59.14-.81l3.25-3.5c.28-.31.82-.31 1.1 0l3.25 3.5c.2.22.26.54.14.81z" fill="#66bb6a"/><path d="m15.92 8.63c-.12.26-.38.42-.67.42h-6.5c-.29 0-.55-.16-.68-.42-.12-.26-.09-.57.09-.8l1.42-1.78h4.85l1.41 1.78c.18.23.21.54.08.8z" fill="#43a047"/><path d="m12.75 9.05v1.25c0 .41-.34.75-.75.75s-.75-.34-.75-.75v-1.25z" fill="#388e3c"/><path d="m12 21h-2.591c-.118.501-.431 1.315-1.262 2.146-.143.143-.186.357-.108.545.076.188.259.309.461.309h3.5z" fill="#49606a"/><path d="m8.934 4h-7.184c-.965 0-1.75.785-1.75 1.75v13.5c0 .965.785 1.75 1.75 1.75h7.659 2.591v-4.25h-10v-11h6.149c-.035-.046-.065-.096-.089-.15-.12-.27-.06-.59.14-.81z" fill="#546d79"/><path d="m8.149 5.75h-6.149v11h10v-5.7c-.41 0-.75-.34-.75-.75v-1.25h-2.5c-.29 0-.55-.16-.68-.42-.12-.26-.09-.57.09-.8l1.42-1.78h-.83c-.24 0-.461-.115-.601-.3z" fill="#cdd0d2"/><path d="m12 1.058c-.205 0-.41.077-.55.232l-2.516 2.71-.734.79c-.2.22-.26.54-.14.81.024.054.054.104.089.15.14.185.361.3.601.3h.83 2.42z" fill="#59a35c"/><path d="m12 6.05h-2.42l-1.42 1.78c-.18.23-.21.54-.09.8.13.26.39.42.68.42h2.5.75z" fill="#3a8b3e"/><path d="m12 9.05h-.75v1.25c0 .41.34.75.75.75z" fill="#317c34"/></svg>