<svg id="Color" enable-background="new 0 0 24 24" height="512" viewBox="0 0 24 24" width="512" xmlns="http://www.w3.org/2000/svg"><path d="m13.29 16.964c-.125 0-.25-.031-.363-.094l-4.427-2.447-4.427 2.447c-.252.14-.56.123-.795-.043-.234-.166-.354-.451-.308-.734l.854-5.234-3.61-3.7c-.197-.202-.264-.497-.175-.763.089-.267.32-.46.598-.503l4.959-.758 2.225-4.74c.247-.526 1.11-.526 1.357 0l2.225 4.74 4.959.758c.278.043.509.236.598.503s.021.562-.175.763l-3.61 3.7.854 5.234c.046.283-.074.568-.308.734-.129.091-.28.137-.431.137z" fill="#ffd54f"/><path d="m8.5 0c-.278 0-.555.131-.679.395l-2.225 4.74-4.959.758c-.278.043-.509.236-.598.503-.089.266-.022.561.174.762l3.61 3.7-.853 5.235c-.046.283.074.568.308.734.129.091.28.137.432.137.125 0 .25-.031.363-.094l4.427-2.447z" fill="#deb945"/><g fill="#ffb300"><path d="m23 22.095c-.378 0-.739-.215-.908-.581-2.161-4.677-6.679-5.87-6.724-5.882-.536-.136-.859-.68-.724-1.215.136-.536.679-.861 1.215-.724.223.057 5.492 1.448 8.048 6.981.232.501.013 1.096-.488 1.327-.135.065-.278.094-.419.094z"/><path d="m23.001 15.414c-.367 0-.72-.203-.896-.553-1.173-2.347-4.719-3.024-4.754-3.03-.544-.095-.909-.613-.814-1.157s.618-.906 1.157-.814c.186.033 4.562.829 6.2 4.106.247.494.046 1.095-.447 1.342-.143.072-.296.106-.446.106z"/><path d="m19.183 24.004c-.333 0-.659-.166-.849-.47-2.047-3.275-5.489-3.101-5.522-3.1-.549.039-1.026-.385-1.06-.937-.034-.551.385-1.025.937-1.06.186-.016 4.669-.238 7.341 4.036.292.468.15 1.085-.318 1.378-.165.105-.348.153-.529.153z"/></g><path d="m15.611 13.663c-.446 0-.852.302-.967.755-.136.535.188 1.079.724 1.215.027.007 1.624.429 3.371 1.744l.906-1.82c-1.938-1.376-3.66-1.831-3.785-1.862-.084-.022-.167-.032-.249-.032z" fill="#de9c00"/><path d="m17.526 9.846c-.476 0-.904.341-.989.828-.095.544.27 1.062.814 1.157.026.004 1.93.368 3.41 1.482l.903-1.816c-1.813-1.245-3.845-1.614-3.97-1.637-.056-.01-.112-.014-.168-.014z" fill="#de9c00"/><path d="m12.919 18.432c-.129 0-.209.005-.23.006-.551.034-.971.508-.937 1.06.032.528.471.939.99.939.023 0 .046-.001.069-.002.003 0 .04-.002.106-.002.431 0 2.1.079 3.689 1.231l.903-1.815c-1.94-1.292-3.922-1.417-4.59-1.417z" fill="#de9c00"/></svg>