<svg id="Color" enable-background="new 0 0 24 24" height="512" viewBox="0 0 24 24" width="512" xmlns="http://www.w3.org/2000/svg"><path d="m18.888 2.55h-13.776c-1.44 0-2.612 1.172-2.612 2.612v13.775c0 1.44 1.172 2.612 2.612 2.612h13.775c1.44 0 2.612-1.172 2.612-2.612v-13.775c.001-1.44-1.171-2.612-2.611-2.612z" fill="#ef5350"/><path d="m18.888 2.55h-13.776c-1.44 0-2.612 1.172-2.612 2.612v13.775c0 .657.244 1.258.646 1.718l17.459-17.46c-.459-.402-1.06-.645-1.717-.645z" fill="#d04846"/><path d="m14.75 14.05h8c.689 0 1.25-.561 1.25-1.25v-1.5c0-.689-.561-1.25-1.25-1.25h-8z" fill="#ffd54f"/><path d="m9.25 10.05h-7.811c-.807 0-1.439.549-1.439 1.25v1.5c0 .701.632 1.25 1.439 1.25h7.811z" fill="#ffd54f"/><path d="m24 12h-6v1.759c0 .099-.006.196-.018.291h4.768c.689 0 1.25-.561 1.25-1.25z" fill="#deb945"/><path d="m6 12h-6v.8c0 .701.632 1.25 1.439 1.25h4.579c-.012-.096-.018-.193-.018-.291z" fill="#deb945"/><path d="m10 14.05v8.561c0 .807.549 1.439 1.25 1.439h1.5c.701 0 1.25-.632 1.25-1.439v-8.561z" fill="#ffd54f"/><path d="m14 10.05v-8.75c0-.689-.561-1.25-1.25-1.25h-1.5c-.689 0-1.25.56-1.25 1.25v8.75z" fill="#ffd54f"/><path d="m10.249 14.05h-.249v8.561c0 .807.549 1.439 1.25 1.439h.75v-9.341c-.67 0-1.283-.249-1.751-.659z" fill="#deb945"/><path d="m12 .05h-.75c-.689 0-1.25.56-1.25 1.25v8.75h.25c.468-.41 1.08-.659 1.75-.659z" fill="#deb945"/><g><path d="m10.759 12.75v-1.4c.172 0 .347-.05.488-.171.314-.27.351-.743.082-1.058l-1.132-1.322c-.449-.534-1.11-.84-1.814-.84-1.314 0-2.383 1.069-2.383 2.382v3.417c0 1.313 1.069 2.382 2.382 2.382.704 0 1.365-.306 1.811-.835l1.136-1.327c.269-.314.232-.788-.082-1.058-.142-.12-.315-.17-.488-.17z" fill="#e53935"/><path d="m15.618 7.959c-.704 0-1.366.306-1.811.835l-1.136 1.327c-.269.314-.232.788.082 1.058.142.121.315.171.488.171v1.4c-.172 0-.346.05-.488.171-.314.27-.351.743-.082 1.058l1.132 1.323c.45.533 1.111.839 1.814.839 1.314 0 2.382-1.069 2.382-2.382v-3.417c.001-1.314-1.068-2.383-2.381-2.383z" fill="#e53935"/><path d="m10.759 12h-4.759v1.759c0 .099.006.196.018.291.144 1.177 1.15 2.091 2.365 2.091.704 0 1.365-.306 1.811-.835l1.136-1.327c.269-.314.232-.788-.082-1.058-.142-.121-.315-.171-.488-.171v-.75z" fill="#c7322e"/><path d="m18 12h-4.759v.75c-.172 0-.346.05-.488.171-.314.27-.351.743-.082 1.058l1.132 1.323c.45.533 1.111.839 1.814.839 1.215 0 2.221-.915 2.365-2.091.012-.096.018-.193.018-.291z" fill="#c7322e"/><path d="m12 9.391c-1.466 0-2.659 1.193-2.659 2.659s1.193 2.659 2.659 2.659 2.659-1.193 2.659-2.659-1.193-2.659-2.659-2.659z" fill="#ef5350"/><path d="m12 9.391c-.67 0-1.282.249-1.75.659-.557.488-.909 1.204-.909 2s.352 1.512.908 2c.468.41 1.081.659 1.751.659z" fill="#d04846"/></g></svg>