<svg id="Color" enable-background="new 0 0 24 24" height="512" viewBox="0 0 24 24" width="512" xmlns="http://www.w3.org/2000/svg"><path d="m24 5.8v12.5c0 1.52-1.23 2.75-2.75 2.75h-18.5c-1.52 0-2.75-1.23-2.75-2.75v-12.5c0-1.52 1.23-2.75 2.75-2.75h18.5c1.52 0 2.75 1.23 2.75 2.75z" fill="#ef5350"/><path d="m4.25 3.05h-1.5c-1.52 0-2.75 1.23-2.75 2.75v12.5c0 1.52 1.23 2.75 2.75 2.75h1.5z" fill="#d04846"/><path d="m16.375 3.05h-7.375v18h7.375z" fill="#d04846"/><path d="m9.75 12.55v8.5h-1.5v-8.5c0-.41.34-.75.75-.75s.75.34.75.75z" fill="#66bb6a"/><path d="m9.75 3.05v5.5c0 .41-.34.75-.75.75s-.75-.34-.75-.75v-5.5z" fill="#66bb6a"/><path d="m8.25 13.175v7.875h.75v-7.77c-.259 0-.511-.035-.75-.105z" fill="#59a35c"/><path d="m9 3.05h-.75v5.007c.24-.066.491-.099.743-.099h.007z" fill="#59a35c"/><path d="m24 10.05v1.5h-9.5c-.41 0-.75-.34-.75-.75s.34-.75.75-.75z" fill="#66bb6a"/><path d="m4.25 10.8c0 .41-.34.75-.75.75h-3.5v-1.5h3.5c.41 0 .75.34.75.75z" fill="#66bb6a"/><path d="m24 10.8h-8.96v.75h8.96z" fill="#59a35c"/><path d="m2.96 10.8h-2.96v.75h2.96z" fill="#59a35c"/><path d="m14.939 15.521-1.414-2.442c-.208-.359-.666-.481-1.024-.273-.186.107-.305.283-.351.476l-2.143-.51-.357-.618c-.208-.358-.666-.479-1.025-.272-.358.208-.48.667-.272 1.025l2.789 4.808c.135.233.384.374.649.374l.099-.006c.3-.04.547-.257.626-.549l.334-1.247 1.247.334c.294.078.605-.027.79-.268.183-.242.204-.57.052-.832z" fill="#ffb300"/><path d="m9.413 11.903c.331.217.438.657.238 1.004l-.649 1.119 2.14 3.689c.135.233.384.374.649.374l.099-.006c.3-.04.547-.257.626-.549l.334-1.247-2.311-3.389-.53-.126-.359-.618c-.06-.104-.142-.189-.237-.251zm-.412-.122c-.128 0-.257.033-.376.101-.01.006-.021.012-.03.019.121-.079.263-.12.406-.12z" fill="#de9c00"/><g><path d="m9.378 11.882c-.359-.207-.817-.086-1.025.272l-.357.616-2.143.51c-.046-.193-.165-.369-.351-.476-.356-.208-.817-.085-1.024.273l-1.414 2.442c-.152.263-.131.591.054.832s.496.345.79.268l1.247-.334.334 1.247c.079.292.326.509.626.549l.099.006c.265 0 .514-.141.649-.374l2.789-4.808c.206-.356.084-.815-.274-1.023z" fill="#ffb300"/><path d="m5.128 12.704c-.259 0-.511.134-.65.375l-1.414 2.442c-.152.263-.131.591.054.832.144.188.366.293.596.293.064 0 .129-.008.193-.025l1.247-.334 2.389-3.408-1.69.403c-.046-.193-.165-.369-.351-.476-.118-.07-.247-.102-.374-.102z" fill="#de9c00"/></g><g><path d="m12.54 6.97c-.599 0-1.183.223-1.645.626l-1.14 1c-.165.145-.258.355-.255.575.003.219.103.427.271.567.25.207.398.533.398.872s-.149.666-.399.873c-.168.14-.267.347-.27.567s.09.429.255.574l1.104.966.142.113c.435.346.98.537 1.538.537.199 0 .37-.021.477-.053 1.172-.218 2.023-1.247 2.023-2.447v-2.27c.001-1.379-1.121-2.5-2.499-2.5z" fill="#ffd54f"/><path d="m7.83 10.61c0-.339.149-.666.398-.872.169-.14.268-.346.272-.566.003-.219-.089-.429-.253-.574l-1.133-1.002c-.461-.404-1.049-.626-1.654-.626-1.378 0-2.5 1.122-2.5 2.5v2.271c0 1.199.855 2.229 1.975 2.434.164.044.336.066.525.066.573 0 1.108-.186 1.549-.537l.108-.082 1.13-1c.164-.145.256-.354.253-.573s-.103-.426-.271-.565c-.25-.208-.399-.535-.399-.874z" fill="#ffd54f"/><g fill="#deb945"><path d="m7.846 10.8h-4.886v.75.19c0 1.199.855 2.229 1.975 2.434.164.044.336.066.525.066.573 0 1.108-.186 1.549-.537l.108-.082 1.13-1c.164-.145.256-.354.253-.573s-.103-.426-.271-.565c-.203-.168-.339-.415-.383-.683z"/><path d="m15.04 10.8h-4.886c-.044.268-.181.515-.383.683-.169.14-.268.347-.271.567s.09.429.255.574l1.104.966.142.113c.435.346.98.537 1.538.537.199 0 .37-.021.477-.053 1.172-.218 2.023-1.247 2.023-2.447v-.19-.75z"/></g></g><g><path d="m10.755 8.605c-.958-.871-2.578-.848-3.484-.022-.598.495-.941 1.234-.941 2.027 0 .792.343 1.531.924 2.013.488.43 1.091.657 1.746.657s1.258-.228 1.729-.643c.598-.496.941-1.235.941-2.027 0-.793-.343-1.532-.915-2.005z" fill="#ffb300"/><path d="m8.993 7.958c-.252 0-.504.033-.743.099-.366.1-.705.276-.979.526-.598.495-.941 1.234-.941 2.027 0 .792.343 1.531.924 2.013.295.26.631.446.996.552.239.07.491.105.75.105v-5.322c-.002 0-.004 0-.007 0z" fill="#de9c00"/></g></svg>