<svg id="Color" enable-background="new 0 0 24 24" height="512" viewBox="0 0 24 24" width="512" xmlns="http://www.w3.org/2000/svg"><path d="m18.498 21.793c-.832 0-1.663-.314-2.295-.94-.21-.209-.384-.436-.519-.677-.163-.293-.112-.659.125-.896l3.42-3.42c.236-.237.6-.288.894-.126.241.134.47.308.678.517l.002.001c1.255 1.267 1.255 3.329 0 4.596-.637.63-1.472.945-2.305.945z" fill="#ffb300"/><path d="m8.75 6.32-5.76-5.76-.001-.001c-.648-.647-1.829-.648-2.479.001-.684.684-.684 1.796 0 2.48l5.76 5.76c.14.141.331.22.53.22s.39-.079.53-.22l1.42-1.42c.293-.293.293-.767 0-1.06z" fill="#607d8b"/><path d="m23.425 10.8c-.28-.28-.651-.458-1.044-.502-1.658-.184-3.222-.935-4.402-2.115l-1.52-1.52c-1.274-1.275-2.97-1.977-4.772-1.977-1.803 0-3.498.702-4.773 1.977-2.632 2.632-2.632 6.914 0 9.546l1.52 1.52c1.18 1.181 1.932 2.744 2.116 4.402.044.393.222.763.502 1.044l.459.459c.235.236.549.366.883.366s.647-.13.884-.366l10.147-10.147c.358-.359.557-.836.557-1.343-.001-.508-.198-.985-.557-1.344z" fill="#ffd54f"/><path d="m18.433 18.478-2.301 2.301c.023.025.047.049.071.073.632.627 1.463.94 2.295.94.833 0 1.668-.315 2.305-.945z" fill="#de9c00"/><path d="m.51.56c-.684.684-.684 1.796 0 2.48l5.22 5.22c.274-.515.62-1.001 1.037-1.445z" fill="#546d79"/><path d="m6.766 6.815c-.417.444-.762.93-1.037 1.445-1.359 2.552-.965 5.801 1.184 7.949l1.52 1.52c1.18 1.181 1.932 2.744 2.116 4.402.044.393.222.763.502 1.044l.459.459c.236.236.55.366.884.366s.647-.13.884-.366l2.855-2.854 2.301-2.301z" fill="#deb945"/></svg>