<svg id="Color" enable-background="new 0 0 24 24" height="512" viewBox="0 0 24 24" width="512" xmlns="http://www.w3.org/2000/svg"><path d="m4.645 10.607c-.18-.185-.442-.268-.695-.211-.253.053-.46.233-.549.477l-3.355 9.225c-.104.289-.023.612.206.816.23.205.561.248.834.111l3.077-1.539.752 3.007c.08.318.357.548.685.567h.043c.312 0 .592-.192.702-.486l2.592-6.916c.102-.271.038-.577-.163-.785z" fill="#ffd54f"/><path d="m4.109 10.379c-.053 0-.107.006-.16.018-.253.053-.46.233-.549.477l-3.355 9.225c-.104.289-.023.612.206.816.141.126.32.19.5.19.114 0 .228-.026.334-.079l3.077-1.539 2.755-6.53-2.272-2.348c-.142-.148-.336-.23-.536-.23z" fill="#deb945"/><path d="m23.955 20.098-3.355-9.225c-.089-.243-.296-.424-.549-.477-.253-.057-.517.025-.695.211l-4.128 4.266c-.201.208-.265.514-.163.785l2.592 6.916c.11.294.391.486.702.486h.043c.327-.02.604-.249.685-.567l.752-3.007 3.077 1.539c.273.137.604.094.834-.111.229-.204.31-.527.205-.816z" fill="#ffd54f"/><path d="m17.532 12.491-2.305 2.382c-.201.208-.265.514-.163.785l2.592 6.916c.11.294.391.486.702.486h.043c.327-.02.604-.249.685-.567l.752-3.007z" fill="#deb945"/><path d="m16.912.039c-1.965 0-3.778.885-4.912 2.332-1.134-1.447-2.947-2.332-4.912-2.332-3.369 0-6.109 2.584-6.109 5.762 0 5.754 10.16 12.91 10.592 13.213.129.09.279.135.43.135.15 0 .301-.045.43-.135.432-.303 10.592-7.459 10.592-13.213-.001-3.178-2.742-5.762-6.111-5.762z" fill="#ef5350"/><path d="m7.088.039c-3.369 0-6.109 2.584-6.109 5.762 0 5.754 10.16 12.91 10.592 13.213.129.09.279.135.43.135v-16.778c-1.135-1.447-2.948-2.332-4.913-2.332z" fill="#d04846"/></svg>