<svg id="Color" enable-background="new 0 0 24 24" height="512" viewBox="0 0 24 24" width="512" xmlns="http://www.w3.org/2000/svg"><path d="m12 7.419c-.414 0-.75-.336-.75-.75v-5.869c0-.414.336-.75.75-.75s.75.336.75.75v5.87c0 .414-.336.749-.75.749z" fill="#eceff1"/><path d="m12 24.05c-.414 0-.75-.336-.75-.75v-5.869c0-.414.336-.75.75-.75s.75.336.75.75v5.869c0 .414-.336.75-.75.75z" fill="#eceff1"/><path d="m15.362 24.05c-.175 0-.351-.061-.493-.185l-2.869-2.504-2.87 2.504c-.313.272-.787.239-1.058-.072-.272-.312-.24-.786.072-1.058l3.363-2.935c.282-.247.704-.247.986 0l3.363 2.935c.312.272.344.746.072 1.058-.148.17-.356.257-.566.257z" fill="#cfd8dc"/><path d="m12 4.485c-.176 0-.352-.062-.493-.185l-3.363-2.935c-.312-.273-.344-.746-.072-1.058.272-.312.746-.345 1.058-.072l2.87 2.504 2.87-2.504c.312-.273.786-.241 1.058.072.272.312.24.786-.072 1.058l-3.363 2.935c-.141.123-.317.185-.493.185z" fill="#cfd8dc"/><path d="m11.25 4.076v2.165l.37-.218c.117-.069.249-.103.38-.103v-1.435c-.176 0-.352-.062-.493-.185zm.75-4.026c-.414 0-.75.336-.75.75v1.285l.75.654z" fill="#cdd0d2"/><path d="m12 21.361-.75.654v1.285c0 .414.336.75.75.75zm-.75-3.501v2.165l.257-.224c.141-.124.317-.185.493-.185v-1.434c-.131 0-.263-.035-.38-.104z" fill="#cdd0d2"/><path d="m12 19.615c-.176 0-.352.062-.493.185l-.257.224-3.106 2.71c-.312.272-.344.746-.072 1.058.148.169.355.256.565.256.175 0 .351-.061.494-.185l2.12-1.849.749-.653z" fill="#b4bcc0"/><path d="m8.638.05c-.209 0-.417.087-.565.257-.273.312-.241.785.071 1.058l3.106 2.711.257.224c.141.123.317.185.493.185v-1.746l-.75-.655-2.12-1.85c-.142-.123-.317-.184-.492-.184z" fill="#b4bcc0"/><path d="m2.432 18.425c-.257 0-.507-.132-.647-.37-.21-.357-.091-.816.267-1.026l4.993-2.935c.355-.209.815-.091 1.025.266s.091.816-.267 1.026l-4.993 2.935c-.118.071-.249.104-.378.104z" fill="#eceff1"/><path d="m16.577 10.11c-.257 0-.507-.132-.647-.37-.21-.357-.091-.816.267-1.026l4.993-2.935c.356-.21.816-.091 1.026.267.21.357.091.816-.267 1.026l-4.993 2.935c-.119.07-.25.103-.379.103z" fill="#eceff1"/><path d="m23.25 10.14-.253-.044-4.178-1.498c-.346-.124-.551-.48-.485-.842l.815-4.433c.075-.407.464-.676.874-.602.407.075.677.466.602.874l-.7 3.806 3.578 1.283c.39.14.593.569.453.959-.11.307-.398.497-.706.497z" fill="#cfd8dc"/><path d="m4.114 21.39-.137-.012c-.407-.075-.677-.466-.602-.874l.7-3.806-3.578-1.283c-.39-.14-.593-.569-.453-.959.14-.391.57-.594.959-.453l4.178 1.498c.346.124.551.48.485.842l-.815 4.433c-.067.361-.382.614-.737.614z" fill="#cfd8dc"/><path d="m4.073 16.71-2.288 1.345c.14.238.39.37.647.37.129 0 .26-.033.379-.104l1.082-.636zm3.997-2.35-2.496 1.467c.089.151.125.333.091.516l-.061.337 2.2-1.293c.357-.21.476-.67.266-1.027z" fill="#cdd0d2"/><path d="m18.426 8.273-2.496 1.467c.14.238.39.37.647.37.129 0 .26-.033.379-.104l2.193-1.289-.33-.118c-.17-.062-.307-.179-.393-.326zm3.789-2.228-2.288 1.345-.002.012.908.326 1.115-.656c.358-.211.477-.67.267-1.027z" fill="#cdd0d2"/><path d="m19.927 7.39-1.502.883c.086.147.223.265.394.326l.33.118 3.848 1.379.253.044c.308 0 .596-.19.706-.497.14-.39-.063-.819-.453-.959l-2.67-.957-.908-.326z" fill="#b4bcc0"/><path d="m5.574 15.827-1.501.883-.179.975-.518 2.819c-.076.408.194.799.601.874l.137.012c.355 0 .67-.253.737-.614l.753-4.096.062-.337c.033-.183-.003-.365-.092-.516z" fill="#b4bcc0"/><path d="m7.423 10.11c-.129 0-.26-.033-.379-.104l-4.993-2.935c-.357-.21-.477-.669-.267-1.026s.671-.477 1.026-.267l4.993 2.935c.358.21.477.67.267 1.027-.139.238-.39.37-.647.37z" fill="#eceff1"/><path d="m21.568 18.425c-.129 0-.26-.033-.379-.104l-4.993-2.935c-.357-.21-.477-.669-.267-1.026s.672-.476 1.026-.267l4.993 2.935c.357.21.477.669.267 1.026-.139.238-.39.371-.647.371z" fill="#eceff1"/><path d="m.75 10.14c-.308 0-.596-.19-.706-.497-.14-.39.063-.819.453-.959l3.578-1.283-.7-3.806c-.075-.407.195-.798.602-.873.406-.074.799.195.874.602l.815 4.433c.066.361-.139.718-.485.842l-4.178 1.498z" fill="#cfd8dc"/><path d="m19.886 21.39c-.355 0-.67-.253-.737-.614l-.815-4.433c-.066-.361.139-.718.485-.842l4.178-1.498c.389-.14.819.063.959.453s-.063.819-.453.959l-3.578 1.283.7 3.806c.075.408-.195.798-.602.874z" fill="#cfd8dc"/><path d="m5.574 8.273c-.086.147-.223.264-.393.326l-.33.118 2.193 1.289c.119.07.25.104.379.104.257 0 .507-.132.647-.37zm-3.789-2.228c-.21.357-.091.816.267 1.026l1.115.656.908-.326-.002-.011z" fill="#cdd0d2"/><path d="m19.927 16.71.179.975 1.082.636c.119.07.25.104.379.104.257 0 .507-.132.647-.37zm-3.997-2.35c-.21.357-.091.817.266 1.027l2.2 1.293-.062-.337c-.034-.183.002-.365.091-.516z" fill="#cdd0d2"/><path d="m4.073 7.39.002.012-.908.325-2.67.957c-.39.14-.593.569-.453.959.11.307.398.497.706.497l.253-.044 3.848-1.379.33-.118c.17-.062.307-.179.393-.326z" fill="#b4bcc0"/><path d="m18.426 15.827c-.089.151-.125.333-.091.516l.062.337.753 4.096c.066.361.382.614.737.614l.137-.012c.407-.075.677-.466.602-.874l-.518-2.819-.179-.975z" fill="#b4bcc0"/><path d="m16.956 8.713-4.576-2.69c-.234-.138-.525-.138-.76 0l-4.576 2.69c-.229.135-.37.381-.37.646v5.38c0 .266.141.512.37.646l4.576 2.69c.117.069.249.104.38.104s.263-.035.38-.104l4.576-2.69c.229-.135.37-.381.37-.646v-5.379c0-.266-.14-.512-.37-.647z" fill="#cfd8dc"/><path d="m12 5.92c-.131 0-.263.034-.38.103l-.37.218-4.206 2.472c-.229.135-.37.381-.37.646v5.38c0 .266.141.512.37.646l4.206 2.473.37.218c.117.069.249.104.38.104z" fill="#b4bcc0"/></svg>