<svg id="Color" enable-background="new 0 0 24 24" height="512" viewBox="0 0 24 24" width="512" xmlns="http://www.w3.org/2000/svg"><path d="m5.5 0c-.829 0-1.5.671-1.5 1.5v1.5 1.5c0 .829.671 1.5 1.5 1.5z" fill="#494949"/><path d="m18.5 0c-.829 0-1.5.671-1.5 1.5v1.5 1.5c0 .829.671 1.5 1.5 1.5z" fill="#494949"/><path d="m5.5 0c-.828 0-1.5.672-1.5 1.5v3c0 .828.672 1.5 1.5 1.5.828 0 1.5-.672 1.5-1.5v-3c0-.828-.672-1.5-1.5-1.5z" fill="#616161"/><path d="m18.5 0c-.828 0-1.5.672-1.5 1.5v3c0 .828.672 1.5 1.5 1.5.828 0 1.5-.672 1.5-1.5v-3c0-.828-.672-1.5-1.5-1.5z" fill="#616161"/><path d="m24 7.062h-24v13.938c0 1.657 1.343 3 3 3h18c1.657 0 3-1.343 3-3z" fill="#eceff1"/><path d="m21 3h-18c-1.654 0-3 1.346-3 3v2.479.561 1h1 3.771 14.458 3.771 1v-1-.561-2.479c0-1.654-1.346-3-3-3z" fill="#ef5350"/><path d="m15.94 16.546c-.12.27-.39.45-.69.45h-6.5c-.3 0-.57-.18-.69-.45s-.06-.59.14-.81l3.25-3.5c.28-.31.82-.31 1.1 0l3.25 3.5c.2.22.26.54.14.81z" fill="#66bb6a"/><path d="m15.92 19.576c-.12.26-.38.42-.67.42h-6.5c-.29 0-.55-.16-.68-.42-.12-.26-.09-.57.09-.8l1.42-1.78h4.85l1.41 1.78c.18.23.21.54.08.8z" fill="#43a047"/><path d="m12.75 19.996v1.25c0 .41-.34.75-.75.75s-.75-.34-.75-.75v-1.25z" fill="#388e3c"/><path d="m0 7.062v13.938c0 1.657 1.343 3 3 3h9v-2.004c-.41 0-.75-.34-.75-.75v-1.25h-2.5c-.29 0-.55-.16-.68-.42-.12-.26-.09-.57.09-.8l1.42-1.78h-.83c-.3 0-.57-.18-.69-.45s-.06-.59.14-.81l3.25-3.5c.14-.155.345-.233.55-.233v-1.963h-7.229-3.771-1v-1-.561z" fill="#cdd0d2"/><path d="m12 3h-9c-1.654 0-3 1.346-3 3v1.063 1.417.56 1h1 3.771 7.229z" fill="#d04846"/><path d="m12 12.004c-.205 0-.41.078-.55.233l-3.25 3.5c-.2.22-.26.54-.14.81s.39.45.69.45h.83 2.42z" fill="#59a35c"/><path d="m12 16.996h-2.42l-1.42 1.78c-.18.23-.21.54-.09.8.13.26.39.42.68.42h2.5.75z" fill="#3a8b3e"/><path d="m12 19.996h-.75v1.25c0 .41.34.75.75.75z" fill="#317c34"/></svg>