<svg id="Color" enable-background="new 0 0 24 24" height="512" viewBox="0 0 24 24" width="512" xmlns="http://www.w3.org/2000/svg"><path d="m20 5h-16c-1.103 0-2 .897-2 2v10h20v-10c0-1.103-.897-2-2-2z" fill="#607d8b"/><path d="m23 17h-22c-.552 0-1 .447-1 1s.448 1 1 1h22c.552 0 1-.447 1-1s-.448-1-1-1z" fill="#546e7a"/><path d="m20 17h-16v-10h16z" fill="#eceff1"/><path d="m15.94 5.6c-.12.271-.39.45-.69.45h-6.5c-.3 0-.57-.18-.69-.45s-.06-.59.14-.81l3.25-3.5c.28-.31.82-.31 1.1 0l3.25 3.5c.2.22.26.54.14.81z" fill="#66bb6a"/><path d="m15.92 8.63c-.12.26-.38.42-.67.42h-6.5c-.29 0-.55-.16-.68-.42-.12-.26-.09-.57.09-.8l1.42-1.78h4.85l1.41 1.78c.18.23.21.54.08.8z" fill="#43a047"/><path d="m12.75 9.05v1.25c0 .41-.34.75-.75.75s-.75-.34-.75-.75v-1.25z" fill="#388e3c"/><path d="m8.064 5h-4.064c-1.103 0-2 .897-2 2v10h10-8v-10h4.822l.758-.95h-.83c-.3 0-.57-.18-.69-.45-.086-.193-.08-.411.004-.6z" fill="#546d79"/><path d="m12 17h-10-1c-.552 0-1 .447-1 1s.448 1 1 1h11z" fill="#49606a"/><path d="m8.822 7h-4.822v10h8v-5.95c-.41 0-.75-.34-.75-.75v-1.25h-2.5c-.29 0-.55-.16-.68-.42-.12-.26-.09-.57.09-.8z" fill="#cdd0d2"/><path d="m12 1.058c-.205 0-.41.077-.55.232l-3.25 3.5c-.057.063-.103.134-.136.21-.084.189-.09.407-.004.6.12.27.39.45.69.45h.83 2.42z" fill="#59a35c"/><path d="m12 6.05h-2.42l-.758.95-.662.83c-.18.23-.21.54-.09.8.13.26.39.42.68.42h2.5.75z" fill="#3a8b3e"/><path d="m12 9.05h-.75v1.25c0 .41.34.75.75.75z" fill="#317c34"/></svg>