<svg id="Color" enable-background="new 0 0 24 24" height="512" viewBox="0 0 24 24" width="512" xmlns="http://www.w3.org/2000/svg"><path d="m21.866 2.112v16.906 4.982s-13.13 0-13.866 0c-1.472 0-2.667-1.184-2.667-2.646v-18.687c0-.736-.299-1.397-.778-1.889-.491-.479-1.153-.778-1.888-.778h17.066c1.173 0 2.133.949 2.133 2.112z" fill="#eceff1"/><path d="m23 19.019c.553 0 1 .448 1 1v1.869c0 1.163-.96 2.112-2.134 2.112h-13.866c.736 0 1.398-.299 1.888-.778.48-.47.779-1.131.779-1.867v-1.336c0-.552.447-1 1-1z" fill="#cfd8dc"/><path d="m17.94 10.6c-.12.271-.391.45-.69.45h-6.5c-.3 0-.57-.18-.69-.45s-.06-.59.14-.81l3.25-3.5c.28-.31.819-.31 1.1 0l3.25 3.5c.2.22.26.54.14.81z" fill="#66bb6a"/><path d="m17.92 13.63c-.12.26-.38.42-.67.42h-6.5c-.29 0-.55-.16-.68-.42-.12-.26-.09-.57.09-.8l1.42-1.78h4.85l1.41 1.78c.18.23.21.54.08.8z" fill="#43a047"/><path d="m14.75 14.05v1.25c0 .41-.34.75-.75.75s-.75-.34-.75-.75v-1.25z" fill="#388e3c"/><path d="m14 0h-11.333c.735 0 1.397.299 1.888.778.479.492.778 1.153.778 1.889v1.557 17.131c0 1.461 1.195 2.645 2.667 2.645h6-6c.736 0 1.398-.299 1.888-.778.48-.47.779-1.131.779-1.867v-1.336c0-.552.447-1 1-1h2.333v-2.969c-.41 0-.75-.34-.75-.75v-1.25h-2.5c-.29 0-.55-.16-.68-.42-.12-.26-.09-.57.09-.8l1.42-1.78h-.83c-.3 0-.57-.18-.69-.45s-.06-.59.14-.81l3.25-3.5c.14-.155.345-.232.55-.232z" fill="#cdd0d2"/><path d="m14 19.019h-2.333c-.553 0-1 .448-1 1v1.336c0 .736-.299 1.398-.779 1.867-.491.479-1.152.778-1.888.778h6z" fill="#b4bcc0"/><path d="m14 6.058c-.205 0-.41.077-.55.232l-3.25 3.5c-.2.22-.26.54-.141.81.12.271.391.45.69.45h.83 2.421z" fill="#59a35c"/><path d="m14 11.05h-2.42l-1.42 1.78c-.18.229-.21.54-.09.8.13.26.39.42.68.42h2.5.75z" fill="#3a8b3e"/><path d="m14 14.05h-.75v1.25c0 .41.34.75.75.75z" fill="#317c34"/><path d="m5.333 2.667v1.557h-4.333c-.553 0-1-.447-1-1v-.557c0-1.291.917-2.368 2.134-2.613.17-.033.351-.054.533-.054.735 0 1.397.299 1.888.778.479.492.778 1.153.778 1.889z" fill="#cfd8dc"/><path d="m2.667 0c-.182 0-.363.021-.533.054-1.217.245-2.134 1.322-2.134 2.613v.557c0 .553.447 1 1 1h1.667z" fill="#b4bcc0"/></svg>