<svg id="Color" enable-background="new 0 0 24 24" height="512" viewBox="0 0 24 24" width="512" xmlns="http://www.w3.org/2000/svg"><path d="m14 5.956c-.553 0-1-.448-1-1v-2.106c0-.441-.359-.8-.8-.8h-.4c-.44 0-.8.359-.8.8v2.106c0 .552-.447 1-1 1s-1-.448-1-1v-2.106c0-1.544 1.256-2.8 2.8-2.8h.4c1.544 0 2.8 1.256 2.8 2.8v2.106c0 .552-.447 1-1 1z" fill="#607d8b"/><path d="m12 3.06c-5.7 0-10 3.99-10 9.27 0 5.4 3.99 7.87 6.9 9.67 1.019.63 1.979 1.22 2.569 1.82.15.14.34.22.53.22s.38-.08.53-.22c.59-.601 1.55-1.19 2.569-1.82 2.91-1.8 6.9-4.269 6.9-9.67.002-5.28-4.298-9.27-9.998-9.27z" fill="#ef5350"/><path d="m12.41 17.93c-.12.08-.271.12-.41.12-.14 0-.29-.04-.41-.12-.57-.38-5.59-3.77-5.59-6.71 0-1.75 1.57-3.17 3.49-3.17.96 0 1.859.36 2.51.97.65-.61 1.55-.97 2.51-.97 1.92 0 3.49 1.42 3.49 3.17 0 2.94-5.02 6.33-5.59 6.71z" fill="#eceff1"/><path d="m12 .05h-.2c-1.544 0-2.8 1.256-2.8 2.8v.602c.638-.174 1.307-.292 2-.351v-.251c0-.441.359-.8.8-.8h.2z" fill="#546d79"/><path d="m12 3.06c-.339 0-.672.014-1 .042-.693.058-1.362.177-2 .35-4.144 1.127-7 4.574-7 8.878 0 5.4 3.99 7.87 6.9 9.67 1.019.63 1.979 1.22 2.569 1.82.15.14.34.22.53.22v-5.99c-.14 0-.29-.04-.41-.12-.569-.38-5.589-3.77-5.589-6.71 0-1.75 1.57-3.17 3.49-3.17.96 0 1.859.36 2.51.97z" fill="#d04846"/><path d="m9.49 8.05c-1.92 0-3.49 1.42-3.49 3.17 0 2.94 5.02 6.33 5.59 6.71.12.08.27.12.41.12v-9.03c-.65-.61-1.55-.97-2.51-.97z" fill="#cdd0d2"/></svg>