<svg id="Color" enable-background="new 0 0 24 24" height="512" viewBox="0 0 24 24" width="512" xmlns="http://www.w3.org/2000/svg"><path d="m14.25 5.456c-.414 0-.75-.336-.75-.75v-2.106c0-.578-.471-1.05-1.05-1.05h-.9c-.579 0-1.05.472-1.05 1.05v2.106c0 .414-.336.75-.75.75s-.75-.336-.75-.75v-2.106c0-1.406 1.145-2.55 2.55-2.55h.9c1.405 0 2.55 1.143 2.55 2.55v2.106c0 .414-.336.75-.75.75z" fill="#607d8b"/><path d="m12 4.05c-5.514 0-10 4.485-10 10s4.486 10 10 10 10-4.485 10-10-4.486-10-10-10z" fill="#ffd54f"/><path d="m14.511 10.05c-.964 0-1.865.36-2.511.966-.646-.606-1.547-.966-2.511-.966-1.924 0-3.489 1.421-3.489 3.169 0 2.939 5.016 6.33 5.587 6.707.126.082.27.124.413.124.144 0 .287-.042.413-.124.571-.377 5.587-3.768 5.587-6.707 0-1.748-1.565-3.169-3.489-3.169z" fill="#ef5350"/><path d="m12 .05h-.45c-1.405 0-2.55 1.143-2.55 2.55v1.91c.485-.153.987-.27 1.5-.347v-1.563c0-.578.471-1.05 1.05-1.05h.45z" fill="#546d79"/><path d="m12 4.05c-.51 0-1.01.038-1.5.112-.513.078-1.015.195-1.5.347-4.053 1.277-7 5.07-7 9.54 0 5.515 4.486 10 10 10v-4c-.144 0-.287-.042-.413-.124-.571-.376-5.587-3.767-5.587-6.706 0-1.748 1.565-3.169 3.489-3.169.964 0 1.865.36 2.511.966z" fill="#deb945"/><path d="m9.489 10.05c-1.924 0-3.489 1.421-3.489 3.169 0 2.939 5.016 6.33 5.587 6.707.126.082.27.124.413.124v-9.034c-.645-.606-1.547-.966-2.511-.966z" fill="#d04846"/></svg>