<svg id="Color" enable-background="new 0 0 24 24" height="512" viewBox="0 0 24 24" width="512" xmlns="http://www.w3.org/2000/svg"><path d="m14.272 11.617c-.058-.362-.369-.629-.736-.631l-3.061-.018h-.004c-.368 0-.683.268-.74.631l-1.846 11.532c-.035.217.027.438.17.605.142.168.35.264.57.264h6.75c.22 0 .428-.096.57-.264.143-.167.205-.389.17-.605z" fill="#ffb300"/><path d="m19.461 5.879c-.089-.267-.319-.461-.598-.503l-4.269-.652-1.916-4.081c-.246-.527-1.111-.527-1.357 0l-1.916 4.081-4.268.652c-.279.042-.509.236-.598.503-.09.267-.022.561.174.762l3.111 3.188-.736 4.511c-.046.283.073.568.309.734.235.166.544.182.795.043l3.808-2.105 3.809 2.105c.113.062.238.094.363.094.151 0 .303-.046.432-.137.235-.166.354-.451.309-.734l-.736-4.511 3.111-3.188c.195-.202.263-.496.173-.762z" fill="#ffd54f"/><path d="m12 13.012-2.738 1.513-1.377 8.606c-.035.217.027.438.17.605.142.168.35.264.57.264h3.375z" fill="#de9c00"/><path d="m12 .247c-.278 0-.556.132-.679.396l-1.916 4.081-4.268.652c-.279.042-.509.236-.598.503-.09.267-.022.561.174.762l3.111 3.188-.736 4.511c-.046.283.073.568.309.734.129.091.28.137.431.137.125 0 .25-.031.363-.094l1.071-.592 2.738-1.513z" fill="#deb945"/></svg>