<svg id="Color" enable-background="new 0 0 24 24" height="512" viewBox="0 0 24 24" width="512" xmlns="http://www.w3.org/2000/svg"><path d="m20 3c0-1.654-1.346-3-3-3h-10c-1.654 0-3 1.346-3 3v18c0 1.654 1.346 3 3 3h10c1.654 0 3-1.346 3-3z" fill="#607d8b"/><path d="m18 21c0 .553-.448 1-1 1h-10c-.552 0-1-.447-1-1v-18c0-.553.448-1 1-1h.5c.552 0 1 .447 1 1s.448 1 1 1h5c.552 0 1-.447 1-1s.448-1 1-1h.5c.552 0 1 .447 1 1z" fill="#eceff1"/><path d="m15.94 11.6c-.12.27-.39.45-.69.45h-6.5c-.3 0-.57-.18-.69-.45s-.06-.59.14-.81l3.25-3.5c.28-.309.82-.309 1.1 0l3.25 3.5c.2.22.26.54.14.81z" fill="#66bb6a"/><path d="m15.92 14.63c-.12.26-.38.42-.67.42h-6.5c-.29 0-.55-.16-.68-.42-.12-.26-.09-.57.09-.8l1.42-1.78h4.85l1.41 1.78c.18.23.21.54.08.8z" fill="#43a047"/><path d="m12.75 15.05v1.25c0 .41-.34.75-.75.75s-.75-.34-.75-.75v-1.25z" fill="#388e3c"/><path d="m12 0h-5c-1.654 0-3 1.346-3 3v18c0 1.654 1.346 3 3 3h5v-2h-5c-.552 0-1-.447-1-1v-18c0-.553.448-1 1-1h.5c.552 0 1 .447 1 1s.448 1 1 1h2.5z" fill="#546d79"/><path d="m7.5 2h-.5c-.552 0-1 .447-1 1v18c0 .553.448 1 1 1h5v-4.95c-.41 0-.75-.34-.75-.75v-1.25h-2.5c-.29 0-.55-.16-.68-.42-.12-.26-.09-.57.09-.8l1.42-1.78h-.83c-.3 0-.57-.18-.69-.45s-.06-.59.14-.81l3.25-3.5c.14-.155.345-.232.55-.232v-3.058h-2.5c-.552 0-1-.447-1-1s-.448-1-1-1z" fill="#cdd0d2"/><path d="m12 7.058c-.205 0-.41.077-.55.232l-3.25 3.5c-.2.22-.26.54-.14.81s.39.45.69.45h.83 2.42z" fill="#59a35c"/><path d="m12 12.05h-2.42l-1.42 1.78c-.18.229-.21.54-.09.8.13.26.39.42.68.42h2.5.75z" fill="#3a8b3e"/><path d="m12 15.05h-.75v1.25c0 .41.34.75.75.75z" fill="#317c34"/></svg>