<svg id="Color" enable-background="new 0 0 24 24" height="512" viewBox="0 0 24 24" width="512" xmlns="http://www.w3.org/2000/svg"><path d="m10 20v2h-2c-.553 0-1 .447-1 1s.447 1 1 1h8c.553 0 1-.447 1-1s-.447-1-1-1h-2v-2z" fill="#546e7a"/><path d="m22.25 4h-20.5c-.965 0-1.75.785-1.75 1.75v12.5c0 .965.785 1.75 1.75 1.75h20.5c.965 0 1.75-.785 1.75-1.75v-12.5c0-.965-.785-1.75-1.75-1.75z" fill="#607d8b"/><path d="m22 18h-20v-12h20z" fill="#fafafa"/><path d="m15.94 5.6c-.12.271-.391.45-.69.45h-6.5c-.3 0-.57-.18-.69-.45s-.06-.59.14-.81l3.25-3.5c.28-.31.819-.31 1.1 0l3.25 3.5c.2.22.26.54.14.81z" fill="#66bb6a"/><path d="m15.92 8.63c-.12.26-.38.42-.67.42h-6.5c-.29 0-.55-.16-.68-.42-.12-.26-.09-.57.09-.8l1.42-1.78h4.85l1.41 1.78c.179.23.21.54.08.8z" fill="#43a047"/><path d="m12.75 9.05v1.25c0 .41-.34.75-.75.75s-.75-.34-.75-.75v-1.25z" fill="#388e3c"/><path d="m12 20h-2v2h-2c-.553 0-1 .447-1 1s.447 1 1 1h4z" fill="#49606a"/><path d="m8.934 4h-7.184c-.965 0-1.75.785-1.75 1.75v12.5c0 .965.785 1.75 1.75 1.75h10.25v-2h-10v-12h6.482c-.186-.071-.34-.214-.422-.4-.12-.27-.06-.59.14-.81z" fill="#546d79"/><path d="m8.481 6h-6.481v12h10v-6.95c-.41 0-.75-.34-.75-.75v-1.25h-2.5c-.29 0-.55-.16-.68-.42-.12-.26-.09-.57.09-.8l1.42-1.78h-.83c-.094 0-.184-.018-.269-.05z" fill="#dadada"/><path d="m12 1.058c-.205 0-.41.077-.55.232l-2.516 2.71-.734.79c-.2.22-.26.54-.14.81.082.186.236.329.421.4.085.032.175.05.269.05h.83 2.42z" fill="#59a35c"/><path d="m12 6.05h-2.42l-1.42 1.78c-.18.23-.21.54-.09.8.13.26.39.42.68.42h2.5.75z" fill="#3a8b3e"/><path d="m12 9.05h-.75v1.25c0 .41.34.75.75.75z" fill="#317c34"/></svg>