<svg id="Color" enable-background="new 0 0 24 24" height="512" viewBox="0 0 24 24" width="512" xmlns="http://www.w3.org/2000/svg"><path d="m12 24c-.214 0-.417-.091-.559-.25-.528-.59-1.382-1.182-2.286-1.807-2.608-1.807-6.182-4.281-6.182-9.654 0-.414.336-.75.75-.75h16.553c.414 0 .75.336.75.75 0 5.373-3.573 7.848-6.182 9.654-.904.625-1.758 1.217-2.286 1.807-.141.159-.344.25-.558.25z" fill="#ffd54f"/><path d="m14 5.956c-.553 0-1-.448-1-1v-2.106c0-.441-.359-.8-.8-.8h-.4c-.44 0-.8.359-.8.8v2.106c0 .552-.447 1-1 1s-1-.448-1-1v-2.106c0-1.544 1.256-2.8 2.8-2.8h.4c1.544 0 2.8 1.256 2.8 2.8v2.106c0 .552-.447 1-1 1z" fill="#607d8b"/><path d="m12 3.063c-5.701 0-10 3.982-10 9.263 0 .414.336.75.75.75h18.5c.414 0 .75-.336.75-.75 0-5.281-4.299-9.263-10-9.263z" fill="#ef5350"/><path d="m12 13.076h-9c.33 4.833 3.678 7.151 6.155 8.867.904.625 1.758 1.217 2.286 1.807.142.159.345.25.559.25z" fill="#deb945"/><path d="m12 .05h-.2c-1.544 0-2.8 1.256-2.8 2.8v.604c.638-.173 1.307-.292 2-.35v-.254c0-.441.359-.8.8-.8h.2z" fill="#546d79"/><path d="m12 3.063c-.339 0-.672.014-1 .042-.693.058-1.362.177-2 .35-4.144 1.125-7 4.567-7 8.871 0 .414.336.75.75.75h.25 9z" fill="#d04846"/></svg>