<svg id="Color" enable-background="new 0 0 24 24" height="512" viewBox="0 0 24 24" width="512" xmlns="http://www.w3.org/2000/svg"><path d="m20.276 13.55h-16.552c-.414 0-.75.336-.75.75 0 5.468 3.965 9.75 9.026 9.75s9.026-4.282 9.026-9.75c0-.414-.336-.75-.75-.75z" fill="#ffd54f"/><path d="m14.25 5.456c-.414 0-.75-.336-.75-.75v-2.106c0-.578-.471-1.05-1.05-1.05h-.9c-.579 0-1.05.472-1.05 1.05v2.106c0 .414-.336.75-.75.75s-.75-.336-.75-.75v-2.106c0-1.406 1.145-2.55 2.55-2.55h.9c1.405 0 2.55 1.143 2.55 2.55v2.106c0 .414-.336.75-.75.75z" fill="#607d8b"/><path d="m12 4.05c-5.421 0-10 4.694-10 10.25 0 .414.336.75.75.75h18.5c.414 0 .75-.336.75-.75 0-5.556-4.579-10.25-10-10.25z" fill="#66bb6a"/><path d="m12 15.05h-9.001c.344 5.104 4.174 9 9.001 9z" fill="#deb945"/><path d="m12 .05h-.45c-1.405 0-2.55 1.143-2.55 2.55v1.941c.486-.163.988-.287 1.5-.37v-1.571c0-.578.471-1.05 1.05-1.05h.45z" fill="#546d79"/><path d="m12 4.05c-.509 0-1.009.041-1.5.121-.512.083-1.014.207-1.5.37-4.009 1.341-7 5.269-7 9.759 0 .414.336.75.75.75h.249 9.001z" fill="#59a35c"/></svg>