<svg id="Color" enable-background="new 0 0 24 24" height="512" viewBox="0 0 24 24" width="512" xmlns="http://www.w3.org/2000/svg"><path d="m13.5 18.5h-3c-.414 0-.75.336-.75.75v3.5c0 .69.561 1.25 1.25 1.25h2c.689 0 1.25-.561 1.25-1.25v-3.5c0-.414-.336-.75-.75-.75z" fill="#607d8b"/><path d="m21.87 18.879-5.287-7.789c-.14-.206-.371-.329-.62-.329h-7.926c-.249 0-.48.123-.62.329l-5.287 7.789c-.156.229-.173.527-.043.771.131.246.386.399.663.399h18.5c.277 0 .532-.153.663-.399.13-.244.113-.542-.043-.771z" fill="#43a047"/><path d="m19.867 10.873-7.25-10.5c-.279-.404-.955-.404-1.234 0l-7.25 10.5c-.158.23-.177.528-.047.775.13.246.386.401.664.401h14.5c.278 0 .534-.155.664-.401.13-.247.111-.545-.047-.775z" fill="#66bb6a"/><path d="m12 20.05h-2.25v2.7c0 .69.561 1.25 1.25 1.25h1z" fill="#546d79"/><path d="m12 12.05h-5.235l-4.635 6.829c-.156.229-.173.527-.043.771.131.246.386.399.663.399h7 2.25z" fill="#3a8b3e"/><path d="m12 .07c-.239 0-.478.101-.617.303l-7.25 10.5c-.158.23-.177.528-.047.775.13.246.386.401.664.401h2.015 5.235z" fill="#59a35c"/></svg>