<svg id="Color" enable-background="new 0 0 24 24" height="512" viewBox="0 0 24 24" width="512" xmlns="http://www.w3.org/2000/svg"><path d="m21.25 9.8h-18.5c-.414 0-.75.336-.75.75v10.75c0 1.517 1.233 2.75 2.75 2.75h14.5c1.517 0 2.75-1.233 2.75-2.75v-10.75c0-.414-.336-.75-.75-.75z" fill="#ef5350"/><path d="m14.25 20.05c-.146 0-.29-.043-.416-.126l-1.834-1.223-1.834 1.223c-.229.152-.527.168-.77.037-.244-.13-.396-.385-.396-.661v-7.75c0-.414.336-.75.75-.75h4.5c.414 0 .75.336.75.75v7.75c0 .276-.152.531-.396.661-.111.059-.233.089-.354.089z" fill="#ffd54f"/><path d="m16.724.751c-1.002-1.001-2.747-1.001-3.747 0-.365.365-.698 1.123-.977 1.929-.279-.806-.612-1.565-.977-1.929-1-1.001-2.745-1.001-3.747 0-.501.5-.776 1.166-.776 1.874 0 .707.275 1.373.776 1.873.832.832 3.702 1.519 4.562 1.709l.162.018.162-.018c.859-.19 3.729-.877 4.561-1.709.501-.5.776-1.166.776-1.873.001-.708-.274-1.374-.775-1.874zm-8.387 2.686c-.217-.216-.337-.505-.337-.812 0-.308.12-.597.337-.814.218-.217.506-.336.813-.336s.596.119.813.336v.001c.265.265.675 1.414 1.009 2.635-1.22-.335-2.37-.745-2.635-1.01zm7.326 0c-.265.265-1.415.675-2.635 1.009.334-1.22.744-2.37 1.009-2.635.217-.217.506-.336.813-.336.308 0 .596.119.813.337.217.216.337.505.337.813 0 .307-.12.596-.337.812z" fill="#ffd54f"/><path d="m22.25 5.05h-20.5c-.965 0-1.75.785-1.75 1.75v3.5c0 .965.785 1.75 1.75 1.75h20.5c.965 0 1.75-.785 1.75-1.75v-3.5c0-.965-.785-1.75-1.75-1.75z" fill="#e53935"/><path d="m9 12.05h-7v9.25c0 1.517 1.233 2.75 2.75 2.75h7.25v-5.349l-1.834 1.223c-.125.083-.271.126-.417.126-.121 0-.242-.029-.352-.089-.245-.13-.397-.385-.397-.661z" fill="#d04846"/><path d="m12 12.05h-3v7.25c0 .276.152.531.396.661.11.059.231.089.352.089.146 0 .292-.042.417-.126l1.835-1.223z" fill="#deb945"/><path d="m10.972 4.446c-1.22-.334-2.37-.744-2.635-1.009-.217-.216-.337-.505-.337-.812 0-.308.12-.597.337-.814.218-.217.506-.336.813-.336s.596.119.813.336v.001c.265.264.675 1.414 1.009 2.634zm-1.821-4.446c-.687 0-1.374.25-1.875.751-.501.5-.776 1.166-.776 1.874 0 .707.275 1.373.776 1.873.194.193.497.379.859.552h3.865v-2.37c-.279-.806-.612-1.565-.977-1.929-.5-.501-1.186-.751-1.872-.751z" fill="#deb945"/><path d="m12 5.05h-3.865-6.385c-.965 0-1.75.785-1.75 1.75v3.5c0 .965.785 1.75 1.75 1.75h.25 7 3z" fill="#c7322e"/></svg>