<svg id="Color" enable-background="new 0 0 24 24" height="512" viewBox="0 0 24 24" width="512" xmlns="http://www.w3.org/2000/svg"><path d="m8.187 10.599c-.127 0-.256-.032-.374-.101l-5.931-3.424c-.359-.207-.482-.665-.275-1.024.207-.358.665-.482 1.024-.274l5.931 3.424c.358.207.481.666.274 1.024-.138.241-.39.375-.649.375z" fill="#eceff1"/><path d="m21.742 18.425c-.127 0-.256-.032-.374-.101l-5.931-3.424c-.358-.207-.481-.666-.274-1.024.206-.358.665-.483 1.024-.274l5.931 3.424c.358.207.481.666.274 1.024-.138.241-.39.375-.65.375z" fill="#eceff1"/><path d="m1.882 9.782c-.3 0-.583-.181-.698-.477-.152-.386.039-.821.425-.972l2.357-.921-.38-2.503c-.063-.409.219-.792.628-.854.423-.062.792.219.854.628l.472 3.097c.053.347-.142.684-.469.812l-2.917 1.14c-.089.034-.181.05-.272.05z" fill="#cfd8dc"/><path d="m5.27 11.739c-.127 0-.256-.032-.374-.101-.358-.207-.482-.666-.274-1.024l2.445-4.236c.206-.358.663-.483 1.024-.275.358.207.481.666.274 1.024l-2.445 4.237c-.139.24-.391.375-.65.375z" fill="#cfd8dc"/><path d="m19.672 20.054c-.364 0-.684-.266-.74-.637l-.472-3.097c-.053-.347.142-.684.469-.812l2.917-1.14c.384-.148.821.04.971.426.151.386-.039.821-.426.972l-2.357.921.381 2.503c.062.409-.219.792-.628.854z" fill="#cfd8dc"/><path d="m16.283 18.097c-.127 0-.256-.032-.374-.101-.358-.207-.481-.666-.274-1.024l2.445-4.236c.206-.358.665-.483 1.024-.274.358.207.481.666.274 1.024l-2.445 4.236c-.138.241-.39.375-.65.375z" fill="#cfd8dc"/><path d="m7.143 9.246-.375.65 1.045.603c.118.068.247.101.374.101.26 0 .512-.134.65-.375zm-1.695-.979c-.083.144-.213.26-.377.324l-.335.131.733.423.375-.65zm-3.841-2.217c-.207.359-.084.817.275 1.024l1.191.687.894-.35z" fill="#cdd0d2"/><path d="m20.033 16.688.144.949 1.191.687c.118.068.247.101.374.101.26 0 .512-.134.65-.375zm-1.877-1.084-.375.649.733.423-.054-.356c-.026-.173.009-.344.092-.488zm-2.993-1.728c-.207.359-.084.817.274 1.024l1.045.603.375-.649z" fill="#cdd0d2"/><path d="m3.967 7.412-.894.35-1.464.571c-.386.151-.577.586-.425.972.115.296.398.477.698.477.091 0 .184-.017.272-.051l2.582-1.009.335-.131c.164-.064.294-.18.377-.324z" fill="#b4bcc0"/><path d="m5.844 8.496-.375.65-.848 1.468c-.207.359-.084.817.274 1.024.118.068.247.101.374.101.26 0 .512-.134.65-.375l.848-1.469.375-.65z" fill="#b4bcc0"/><path d="m18.552 15.832c-.083.144-.118.314-.092.488l.054.356.417 2.74c.057.372.376.637.74.637l.114-.009c.409-.062.69-.445.628-.854l-.236-1.554-.144-.949z" fill="#b4bcc0"/><path d="m16.857 14.854-.375.649-.848 1.468c-.207.359-.084.817.274 1.024.118.068.247.101.374.101.26 0 .512-.134.65-.375l.848-1.469.375-.649z" fill="#b4bcc0"/><path d="m2.258 18.425c-.26 0-.512-.134-.65-.375-.207-.359-.084-.817.274-1.024l5.931-3.424c.36-.209.818-.084 1.024.274.207.359.084.817-.274 1.024l-5.931 3.424c-.118.069-.247.101-.374.101z" fill="#eceff1"/><path d="m15.813 10.599c-.26 0-.512-.134-.65-.375-.207-.359-.084-.817.274-1.024l5.931-3.424c.36-.208.818-.084 1.024.274.207.359.084.817-.274 1.024l-5.931 3.424c-.118.069-.247.101-.374.101z" fill="#eceff1"/><path d="m4.328 20.054-.114-.009c-.409-.062-.69-.445-.628-.854l.381-2.503-2.357-.921c-.387-.151-.577-.586-.426-.972.15-.386.588-.574.971-.426l2.917 1.14c.327.128.521.465.469.812l-.472 3.096c-.057.371-.377.637-.741.637z" fill="#cfd8dc"/><path d="m7.717 18.097c-.26 0-.512-.134-.65-.375l-2.445-4.236c-.207-.359-.084-.817.274-1.024.36-.208.817-.083 1.024.274l2.445 4.236c.207.359.084.817-.274 1.024-.118.069-.247.101-.374.101z" fill="#cfd8dc"/><path d="m22.118 9.782c-.091 0-.184-.017-.272-.051l-2.917-1.14c-.327-.128-.522-.465-.469-.812l.472-3.097c.062-.41.442-.69.854-.628.409.062.69.445.628.854l-.381 2.503 2.357.921c.387.151.577.586.426.972-.115.297-.398.478-.698.478z" fill="#cfd8dc"/><path d="m18.73 11.739c-.26 0-.512-.134-.65-.375l-2.445-4.236c-.207-.359-.084-.817.274-1.024.36-.208.818-.083 1.024.274l2.445 4.236c.207.359.084.817-.274 1.024-.118.069-.247.101-.374.101z" fill="#cfd8dc"/><path d="m3.966 16.688-2.359 1.362c.139.241.391.375.65.375.127 0 .256-.032.374-.101l1.191-.687zm1.878-1.084-.396.228c.083.144.118.315.092.488l-.054.356.733-.423zm2.993-1.728-1.694.978.375.649 1.044-.603c.359-.207.482-.665.275-1.024z" fill="#cdd0d2"/><path d="m16.857 9.245-1.694.978c.139.241.391.375.65.375.127 0 .256-.032.374-.101l1.045-.603zm1.695-.978-.395.228.375.65.733-.423-.335-.131c-.165-.064-.295-.18-.378-.324zm3.841-2.217-2.359 1.362.894.35 1.191-.687c.358-.208.481-.666.274-1.025z" fill="#cdd0d2"/><path d="m5.448 15.832-1.482.855-.144.949-.236 1.554c-.062.409.219.792.628.854l.114.009c.364 0 .684-.266.74-.637l.417-2.74.055-.356c.026-.173-.009-.344-.092-.488z" fill="#b4bcc0"/><path d="m7.143 14.854-1.299.75.375.649.848 1.469c.139.241.391.375.65.375.127 0 .256-.032.374-.101.358-.207.481-.666.274-1.024l-.848-1.468z" fill="#b4bcc0"/><path d="m20.033 7.412-1.482.855c.083.144.213.26.377.324l.335.131 2.582 1.009c.089.035.182.051.272.051.3 0 .583-.181.698-.477.151-.386-.039-.821-.426-.972l-1.463-.572z" fill="#b4bcc0"/><path d="m18.156 8.496-1.299.75.375.65.848 1.469c.139.241.391.375.65.375.127 0 .256-.032.374-.101.358-.207.481-.665.274-1.024l-.848-1.468z" fill="#b4bcc0"/><path d="m12 8.398c-.414 0-.75-.336-.75-.75v-6.848c0-.414.336-.75.75-.75s.75.336.75.75v6.848c0 .414-.336.75-.75.75z" fill="#eceff1"/><path d="m11.995 17.202c-2.841 0-5.152-2.312-5.152-5.152 0-2.841 2.312-5.152 5.152-5.152 2.841 0 5.152 2.311 5.152 5.152s-2.311 5.152-5.152 5.152zm0-8.804c-2.014 0-3.652 1.638-3.652 3.652s1.639 3.652 3.652 3.652c2.014 0 3.652-1.639 3.652-3.652 0-2.014-1.638-3.652-3.652-3.652z" fill="#eceff1"/><path d="m12 24.05c-.414 0-.75-.336-.75-.75v-6.848c0-.414.336-.75.75-.75s.75.336.75.75v6.848c0 .414-.336.75-.75.75z" fill="#eceff1"/><g fill="#cfd8dc"><path d="m12 4.485c-.166 0-.332-.055-.469-.165l-2.445-1.956c-.323-.259-.376-.731-.117-1.054.261-.324.732-.375 1.055-.117l1.976 1.581 1.977-1.582c.324-.258.795-.207 1.055.117.259.324.206.795-.117 1.054l-2.446 1.957c-.137.11-.303.165-.469.165z"/><path d="m11.995 14.268c-1.223 0-2.218-.995-2.218-2.218s.995-2.217 2.218-2.217 2.218.995 2.218 2.217-.995 2.218-2.218 2.218z"/><path d="m14.445 6.441h-4.89c-.414 0-.75-.336-.75-.75s.336-.75.75-.75h4.891c.414 0 .75.336.75.75s-.337.75-.751.75z"/><path d="m14.445 23.072c-.165 0-.33-.054-.469-.165l-1.976-1.581-1.977 1.582c-.322.259-.794.208-1.055-.117-.259-.324-.206-.795.117-1.054l2.445-1.957c.273-.22.664-.22.938 0l2.445 1.957c.323.259.376.73.117 1.054-.147.185-.365.281-.585.281z"/><path d="m14.445 19.159h-4.89c-.414 0-.75-.336-.75-.75s.336-.75.75-.75h4.891c.414 0 .75.336.75.75-.001.414-.337.75-.751.75z"/></g><path d="m12 6.441h-.75v.51c.243-.035.492-.054.745-.054h.005zm-.75-2.346v.846h.75v-.456c-.166 0-.332-.055-.469-.165zm.75-4.045c-.414 0-.75.336-.75.75v1.374l.75.6z" fill="#cdd0d2"/><path d="m11.995 6.898c-.253 0-.502.018-.745.054-2.489.362-4.407 2.51-4.407 5.098s1.918 4.736 4.407 5.099v-.696c0-.414.336-.75.75-.75-.002 0-.003 0-.005 0-2.014 0-3.652-1.639-3.652-3.652 0-2.014 1.639-3.652 3.652-3.652h.005v-1.5c-.002-.001-.003-.001-.005-.001z" fill="#cdd0d2"/><path d="m12 21.326-.75.6v1.374c0 .414.336.75.75.75zm0-2.167h-.75v.846l.281-.225c.137-.11.303-.165.469-.165zm0-3.457c-.414 0-.75.336-.75.75v.696.51h.75z" fill="#cdd0d2"/><path d="m9.555 1.029c-.22 0-.438.096-.587.281-.258.323-.205.795.118 1.054l2.164 1.731.281.225c.137.11.303.165.469.165v-1.71l-.75-.6-1.227-.981c-.138-.112-.303-.165-.468-.165z" fill="#b4bcc0"/><path d="m11.995 9.833c-1.223 0-2.218.995-2.218 2.217 0 1.223.995 2.218 2.218 2.218h.005v-4.435c-.002 0-.003 0-.005 0z" fill="#b4bcc0"/><path d="m12 4.941h-.75-1.695c-.414 0-.75.336-.75.75s.336.75.75.75h1.695.75z" fill="#b4bcc0"/><path d="m12 19.615c-.166 0-.332.055-.469.165l-.281.225-2.164 1.732c-.323.259-.376.73-.117 1.054.149.186.367.282.586.282.165 0 .33-.054.468-.165l1.227-.981.75-.6z" fill="#b4bcc0"/><path d="m12 17.659h-.75-1.695c-.414 0-.75.336-.75.75s.336.75.75.75h1.695.75z" fill="#b4bcc0"/></svg>