<svg id="Color" enable-background="new 0 0 24 24" height="512" viewBox="0 0 24 24" width="512" xmlns="http://www.w3.org/2000/svg"><path d="m15.614 6.412 3.012-3.464c.456-.524.56-1.242.272-1.874-.288-.632-.898-1.024-1.593-1.024h-10.597c-.696 0-1.307.394-1.594 1.028-.288.633-.181 1.353.278 1.876l3.02 3.442c-3.204 2.113-5.412 6.587-5.412 11.081 0 3.272 1.732 6.573 5.603 6.573h6.794c3.871 0 5.603-3.301 5.603-6.573 0-4.482-2.196-8.946-5.386-11.065z" fill="#ef5350"/><path d="m16.25 7.55h-8.5c-.552 0-1-.448-1-1s.448-1 1-1h8.5c.552 0 1 .448 1 1s-.448 1-1 1z" fill="#ffca28"/><path d="m14.301 16.05h.949c.298 0 .568-.177.687-.45s.065-.592-.138-.81l-3.25-3.5c-.284-.306-.815-.306-1.1 0l-3.25 3.5c-.203.218-.257.537-.138.81s.389.45.687.45h.956l-1.522 1.759c-.192.222-.237.536-.115.803.123.266.39.438.683.438h2.5v1.25c0 .414.336.75.75.75s.75-.336.75-.75v-1.25h2.5c.293 0 .56-.171.682-.438.123-.267.078-.58-.113-.802z" fill="#fff"/><path d="m7.177 7.369c-2.523 2.342-4.177 6.218-4.177 10.108 0 3.272 1.732 6.573 5.603 6.573h3.397v-3c-.414 0-.75-.336-.75-.75v-1.25h-2.5c-.293 0-.56-.171-.682-.438s-.077-.581.115-.803l1.522-1.759h-.955c-.298 0-.568-.177-.687-.45s-.065-.592.138-.81l3.25-3.5c.142-.153.346-.229.55-.229v-3.511h-4.251c-.213 0-.411-.067-.573-.181zm4.823-7.319h-5.292c-.696 0-1.307.394-1.594 1.028-.288.633-.181 1.353.278 1.876l2.28 2.599c.025-.002.052-.003.078-.003h4.25z" fill="#d04846"/><path d="m12 5.55h-4.25c-.026 0-.053.001-.079.003-.515.04-.921.471-.921.997 0 .339.169.639.427.82.162.114.36.18.573.18h4.25z" fill="#deb023"/><path d="m12 11.06c-.204 0-.408.076-.55.229l-3.25 3.5c-.203.218-.257.537-.138.81s.389.45.687.45h.956l-1.522 1.759c-.192.222-.237.536-.115.803s.389.439.682.439h2.5v1.25c0 .414.336.75.75.75z" fill="#dedede"/></svg>