<svg id="Color" enable-background="new 0 0 24 24" height="512" viewBox="0 0 24 24" width="512" xmlns="http://www.w3.org/2000/svg"><path d="m19.404 4.792c-1.769-1.985-4.26-2.992-7.404-2.992-10.585 0-11.164 7.857-11.169 7.936-.021.366.226.694.583.775l2.52.57c.258.059.52-.021.702-.208.371-.381.835-.557 1.394-.572.396.244.369 2.559-.266 5.105l-.01.05c-.077.399.182.762.579.85.393.084.796-.181.895-.575l.032-.131h13.495c.001.351.234.667.593.736l.144.014c.352 0 .666-.249.735-.607l.019-.107c.031-.277.74-6.825-2.842-10.844z" fill="#ef5350"/><path d="m21 15.05h-14c-1.654 0-3 1.346-3 3s1.346 3 3 3h14c1.654 0 3-1.346 3-3s-1.346-3-3-3z" fill="#e3f2fd"/><path d="m12 1.8c-10.585 0-11.164 7.857-11.169 7.936-.021.366.226.694.583.775l2.52.57c.056.013.112.019.168.019.2 0 .392-.08.534-.227.371-.381.835-.557 1.394-.572.39.241.37 2.498-.241 5.004.37-.164.78-.255 1.211-.255h7v-13.101c-.634-.099-1.301-.149-2-.149z" fill="#d04846"/><path d="m14 15.05h-7c-.431 0-.841.091-1.211.255-1.053.467-1.789 1.521-1.789 2.745 0 1.654 1.346 3 3 3h7z" fill="#c6d3dc"/><path d="m2.5 9.05c-1.379 0-2.5 1.122-2.5 2.5s1.121 2.5 2.5 2.5 2.5-1.122 2.5-2.5c0-1.379-1.121-2.5-2.5-2.5z" fill="#e3f2fd"/><path d="m2.5 9.05c-1.379 0-2.5 1.122-2.5 2.5s1.121 2.5 2.5 2.5z" fill="#c6d3dc"/></svg>