<svg id="Color" enable-background="new 0 0 24 24" height="512" viewBox="0 0 24 24" width="512" xmlns="http://www.w3.org/2000/svg"><path d="m15.812 15.001c-.127 0-.256-.032-.374-.101l-7.625-4.402c-.358-.207-.482-.666-.274-1.024.206-.358.663-.482 1.024-.274l7.625 4.402c.358.207.481.666.274 1.024-.139.241-.391.375-.65.375z" fill="#eceff1"/><path d="m5.646 9.131c-.127 0-.256-.032-.374-.101l-3.39-1.957c-.359-.206-.482-.664-.275-1.023.207-.358.664-.482 1.024-.274l3.39 1.957c.359.206.482.664.275 1.023-.139.241-.391.375-.65.375z" fill="#eceff1"/><path d="m21.742 18.425c-.127 0-.256-.032-.374-.101l-3.39-1.957c-.358-.207-.481-.666-.274-1.024.206-.358.664-.482 1.024-.274l3.39 1.957c.358.207.481.666.274 1.024-.138.24-.39.375-.65.375z" fill="#eceff1"/><g fill="#cfd8dc"><path d="m1.034 9.293c-.3 0-.583-.181-.698-.477-.151-.386.039-.821.426-.972l2.357-.921-.38-2.503c-.062-.41.219-.792.629-.855.413-.059.791.22.854.629l.47 3.096c.053.347-.142.684-.469.812l-2.917 1.14c-.088.034-.181.051-.272.051z"/><path d="m20.519 20.543c-.364 0-.684-.266-.74-.637l-.471-3.096c-.053-.347.142-.684.469-.811l2.917-1.14c.383-.148.82.04.971.426s-.039.821-.426.972l-2.357.921.38 2.503c.062.41-.219.792-.629.855z"/><path d="m8.025 7.195c-.513-.296-1.112-.377-1.682-.222-.572.153-1.051.521-1.346 1.033-.296.514-.375 1.111-.222 1.683s.52 1.051 1.033 1.347c.349.201.729.296 1.105.296.767 0 1.514-.397 1.924-1.108.296-.513.375-1.111.222-1.683-.154-.572-.521-1.05-1.034-1.346z"/><path d="m18.191 13.064c-.512-.296-1.111-.375-1.682-.222-.572.153-1.051.521-1.347 1.033-.296.513-.375 1.111-.222 1.683s.521 1.051 1.033 1.346c.342.197.721.298 1.105.298.193 0 .388-.025.579-.077.571-.153 1.049-.521 1.344-1.033.296-.513.375-1.11.222-1.683-.152-.57-.518-1.048-1.032-1.345z"/></g><path d="m8.837 10.224c-.132.228-.298.424-.488.584l6.551 3.782c.045-.248.133-.489.263-.714z" fill="#cdd0d2"/><path d="m4.601 7.778c-.083.144-.213.26-.377.324l-.335.131.845.488c.045-.248.133-.489.263-.714zm-2.994-1.728c-.207.359-.084.817.275 1.024l.343.198.894-.349z" fill="#cdd0d2"/><path d="m20.881 17.177.144.949.343.198c.118.068.247.101.374.101.26 0 .512-.134.65-.375zm-1.878-1.084c-.13.225-.294.422-.487.585l.845.488-.054-.357c-.026-.173.009-.344.092-.488z" fill="#cdd0d2"/><path d="m3.119 6.922-.894.35-1.463.572c-.387.151-.577.586-.426.972.115.296.398.477.698.477.091 0 .184-.017.272-.051l2.582-1.009.335-.131c.164-.064.294-.18.377-.324z" fill="#b4bcc0"/><path d="m19.4 16.322c-.083.144-.118.314-.092.488l.054.357.416 2.74c.057.371.376.637.74.637l.113-.008c.41-.062.691-.445.629-.855l-.236-1.554-.144-.949z" fill="#b4bcc0"/><path d="m4.997 8.007c-.13.225-.218.466-.263.714-.057.318-.045.647.041.968.153.572.52 1.051 1.033 1.347.349.201.729.296 1.105.296.521 0 1.033-.183 1.436-.524.19-.161.356-.356.488-.584z" fill="#b4bcc0"/><path d="m15.163 13.876c-.13.225-.218.466-.263.714-.058.318-.045.647.041.968.153.572.521 1.051 1.033 1.346.342.197.721.298 1.105.298.193 0 .388-.025.579-.077.321-.086.612-.239.857-.448.192-.163.357-.36.487-.585z" fill="#b4bcc0"/><path d="m8.188 15.001c-.26 0-.512-.134-.65-.375-.207-.359-.084-.817.274-1.024l7.625-4.402c.36-.208.818-.083 1.024.274.207.359.084.817-.274 1.024l-7.625 4.402c-.118.069-.247.101-.374.101z" fill="#eceff1"/><path d="m2.258 18.425c-.26 0-.512-.134-.65-.375-.207-.359-.084-.817.274-1.024l3.39-1.956c.36-.208.817-.084 1.024.274.207.359.084.817-.274 1.024l-3.39 1.956c-.118.069-.247.101-.374.101z" fill="#eceff1"/><path d="m18.354 9.131c-.26 0-.512-.134-.65-.375-.207-.359-.084-.817.274-1.024l3.39-1.957c.36-.208.817-.084 1.024.274.207.359.084.817-.274 1.024l-3.39 1.956c-.118.07-.247.102-.374.102z" fill="#eceff1"/><path d="m3.481 20.543-.113-.008c-.41-.063-.691-.445-.629-.854l.38-2.503-2.357-.921c-.387-.151-.577-.586-.426-.972.15-.385.589-.574.971-.426l2.917 1.14c.327.128.522.465.469.812l-.471 3.096c-.057.37-.376.636-.741.636z" fill="#cfd8dc"/><path d="m7.49 12.843c-.57-.154-1.17-.075-1.682.222-.513.296-.88.774-1.033 1.346s-.074 1.17.221 1.682c.296.513.773.88 1.345 1.034.191.052.386.077.579.077.384 0 .764-.101 1.106-.298.513-.296.88-.774 1.033-1.347.153-.572.074-1.169-.222-1.683-.296-.513-.774-.88-1.347-1.033z" fill="#cfd8dc"/><path d="m17.087 11.332c.376 0 .757-.095 1.105-.296.513-.296.88-.774 1.033-1.347.153-.572.074-1.169-.222-1.682-.295-.513-.774-.88-1.346-1.034-.572-.155-1.17-.074-1.683.222s-.88.774-1.033 1.347c-.153.572-.074 1.169.222 1.683.41.71 1.157 1.107 1.924 1.107z" fill="#cfd8dc"/><path d="m22.966 9.293c-.091 0-.184-.017-.272-.051l-2.917-1.14c-.327-.128-.521-.465-.469-.812l.471-3.096c.062-.409.444-.688.854-.629.41.063.691.445.629.854l-.38 2.503 2.357.921c.387.151.577.586.426.972-.116.297-.399.478-.699.478z" fill="#cfd8dc"/><path d="m15.163 10.224-6.326 3.652c.13.225.218.466.263.714l6.551-3.782c-.19-.16-.356-.356-.488-.584z" fill="#cdd0d2"/><path d="m3.119 17.177-1.512.873c.139.241.391.375.65.375.127 0 .256-.032.374-.101l.343-.198zm1.878-1.084-.397.229c.083.144.118.314.092.488l-.054.357.845-.488c-.192-.164-.357-.361-.486-.586z" fill="#cdd0d2"/><path d="m19.399 7.778-.396.229c.13.225.218.466.263.714l.845-.488-.335-.131c-.163-.064-.294-.18-.377-.324zm2.994-1.728-1.512.873.894.35.343-.198c.359-.208.482-.666.275-1.025z" fill="#cdd0d2"/><path d="m4.6 16.322-1.482.855-.144.949-.235 1.554c-.063.41.219.792.629.854l.113.008c.364 0 .684-.266.74-.637l.417-2.74.054-.357c.027-.172-.009-.343-.092-.486z" fill="#b4bcc0"/><path d="m8.837 13.876-3.84 2.217c.13.225.295.422.487.585.246.209.537.362.857.448.191.052.386.077.579.077.384 0 .764-.101 1.106-.298.513-.296.88-.774 1.033-1.347.086-.321.099-.65.041-.968-.045-.248-.133-.489-.263-.714z" fill="#b4bcc0"/><path d="m19.003 8.007-3.84 2.217c.132.228.298.423.488.584.403.34.915.524 1.436.524.376 0 .757-.095 1.105-.296.513-.296.88-.774 1.033-1.347.086-.321.099-.65.041-.968-.045-.248-.133-.489-.263-.714z" fill="#b4bcc0"/><path d="m20.881 6.923-1.482.855c.083.144.213.26.377.324l.335.131 2.582 1.009c.089.035.182.051.272.051.3 0 .583-.181.698-.477.151-.386-.039-.821-.426-.972l-1.463-.572z" fill="#b4bcc0"/><path d="m12 17.126c-.414 0-.75-.336-.75-.75v-8.728c0-.414.336-.75.75-.75s.75.336.75.75v8.728c0 .414-.336.75-.75.75z" fill="#eceff1"/><path d="m12 5.463c-.414 0-.75-.336-.75-.75v-3.913c0-.414.336-.75.75-.75s.75.336.75.75v3.913c0 .414-.336.75-.75.75z" fill="#eceff1"/><path d="m12 23.974c-.414 0-.75-.336-.75-.75v-3.913c0-.414.336-.75.75-.75s.75.336.75.75v3.913c0 .414-.336.75-.75.75z" fill="#eceff1"/><path d="m12 3.506c-.166 0-.332-.055-.469-.165l-2.445-1.956c-.323-.259-.376-.73-.117-1.054.26-.323.732-.375 1.055-.117l1.976 1.582 1.977-1.581c.323-.258.796-.207 1.055.117s.206.795-.117 1.054l-2.445 1.957c-.138.109-.304.163-.47.163z" fill="#cfd8dc"/><path d="m14.445 23.974c-.165 0-.33-.054-.469-.165l-1.976-1.581-1.977 1.582c-.322.259-.795.208-1.055-.117-.259-.324-.206-.795.117-1.054l2.445-1.957c.273-.22.664-.22.937 0l2.445 1.957c.323.259.376.73.117 1.054-.146.185-.364.281-.584.281z" fill="#cfd8dc"/><path d="m12 3.963c-1.223 0-2.218.995-2.218 2.218s.995 2.217 2.218 2.217 2.218-.995 2.218-2.217c0-1.223-.995-2.218-2.218-2.218z" fill="#cfd8dc"/><path d="m12 15.626c-1.223 0-2.218.995-2.218 2.217s.995 2.218 2.218 2.218 2.218-.995 2.218-2.218-.995-2.217-2.218-2.217z" fill="#cfd8dc"/><path d="m11.25 8.268v7.489c.234-.084.487-.13.75-.13v-7.229c-.263 0-.516-.046-.75-.13z" fill="#cdd0d2"/><path d="m11.25 3.117v.977c.234-.084.487-.131.75-.131v-.457c-.166 0-.332-.055-.469-.165zm.75-3.067c-.414 0-.75.336-.75.75v.396l.75.6z" fill="#cdd0d2"/><path d="m12 22.228-.75.6v.396c0 .414.336.75.75.75zm-.75-2.297v.977l.281-.225c.137-.11.303-.165.469-.165v-.456c-.263-.001-.516-.047-.75-.131z" fill="#cdd0d2"/><path d="m9.556.05c-.22 0-.438.096-.587.281-.259.324-.206.795.117 1.054l2.164 1.732.281.225c.137.11.303.165.469.165v-1.71l-.75-.6-1.227-.981c-.137-.112-.303-.166-.467-.166z" fill="#b4bcc0"/><path d="m12 20.517c-.166 0-.332.055-.469.165l-.281.225-2.164 1.732c-.323.259-.376.73-.117 1.054.149.185.367.282.587.282.165 0 .33-.054.468-.165l1.227-.981.75-.6v-1.712z" fill="#b4bcc0"/><path d="m12 3.963c-.263 0-.516.046-.75.131-.855.308-1.468 1.128-1.468 2.087s.613 1.779 1.468 2.087c.234.084.487.13.75.13z" fill="#b4bcc0"/><path d="m12 15.626c-.263 0-.516.046-.75.13-.855.308-1.468 1.127-1.468 2.087s.613 1.779 1.468 2.087c.234.084.487.131.75.131z" fill="#b4bcc0"/></svg>