<svg id="Color" enable-background="new 0 0 24 24" height="512" viewBox="0 0 24 24" width="512" xmlns="http://www.w3.org/2000/svg"><path d="m16.15 9.64c0 .17 0 .36-.01.57-.03 1.08-.14 2.69-.35 4.42-.07.59-.15 1.19-.25 1.79-.6 3.79-1.7 7.58-3.54 7.58-1.5 0-2.51-2.52-3.16-5.51-.1-.48-.2-.97-.28-1.47-.26-1.49-.44-3-.55-4.32-.05-.54-.08-1.04-.11-1.5-.03-.62-.05-1.16-.05-1.56 0-2.19 1.77-4.64 4.15-4.64 2 0 3.57 1.73 4.02 3.59.09.35.13.7.13 1.05z" fill="#ffca28"/><path d="m16.15 9.64c0 .17 0 .36-.01.57-1.87.9-4.57 1.91-8.13 2.49-.05-.54-.08-1.04-.11-1.5 3.7-.62 6.39-1.71 8.12-2.61.09.35.13.7.13 1.05z" fill="#ef5350"/><path d="m15.79 14.63c-.07.59-.15 1.19-.25 1.79-1.58.72-3.82 1.53-6.7 2.07-.1-.48-.2-.97-.28-1.47 3.33-.63 5.74-1.62 7.23-2.39z" fill="#ef5350"/><path d="m13.25.05h-2.5c-.965 0-1.75.785-1.75 1.75v2.5c0 .965.785 1.75 1.75 1.75h2.5c.965 0 1.75-.785 1.75-1.75v-2.5c0-.965-.785-1.75-1.75-1.75z" fill="#607d8b"/><path d="m9.797 5.767c-1.19.897-1.947 2.441-1.947 3.873 0 .4.02.94.05 1.56.03.46.06.96.11 1.5.11 1.32.29 2.83.55 4.32.08.5.18.99.28 1.47.65 2.99 1.66 5.51 3.16 5.51v-6.268c-.949.281-2.003.541-3.16.758-.1-.48-.2-.97-.28-1.47 1.283-.243 2.43-.539 3.44-.856v-4.37c-1.183.35-2.513.665-3.99.906-.05-.54-.08-1.04-.11-1.5 1.541-.258 2.906-.598 4.1-.971v-4.179h-1.25c-.351 0-.678-.104-.953-.283z" fill="#deb023"/><path d="m12 10.229c-1.194.373-2.559.713-4.1.971.03.46.06.96.11 1.5 1.478-.241 2.807-.556 3.99-.906z" fill="#d04846"/><path d="m12 16.164c-1.01.317-2.157.613-3.44.856.08.5.18.99.28 1.47 1.157-.217 2.211-.478 3.16-.758z" fill="#d04846"/><path d="m12 .05h-1.25c-.965 0-1.75.785-1.75 1.75v2.5c0 .614.318 1.155.797 1.467.274.179.602.283.953.283h1.25z" fill="#546d79"/></svg>