<svg id="Color" enable-background="new 0 0 24 24" height="512" viewBox="0 0 24 24" width="512" xmlns="http://www.w3.org/2000/svg"><path d="m14.68 3.287c-.108-.057-.228-.087-.35-.087h-4.66c-.122 0-.242.03-.35.086-2.827 1.49-7.57 5.323-7.57 14.264 0 .414.336.75.75.75h19c.414 0 .75-.336.75-.75 0-8.941-4.743-12.774-7.57-14.263z" fill="#ef5350"/><path d="m21.25 17h-18.5c-1.517 0-2.75 1.233-2.75 2.75v1.5c0 1.517 1.233 2.75 2.75 2.75h18.5c1.517 0 2.75-1.233 2.75-2.75v-1.5c0-1.517-1.233-2.75-2.75-2.75z" fill="#e3f2fd"/><path d="m12 .05c-1.654 0-3 1.346-3 3s1.346 3 3 3 3-1.346 3-3-1.346-3-3-3z" fill="#e3f2fd"/><path d="m9.026 3.446c-2.809 1.573-7.152 5.357-7.273 13.741.309-.121.645-.187.997-.187h9.25v-10.95c-1.52 0-2.779-1.136-2.974-2.604z" fill="#d04846"/><g fill="#c6d3dc"><path d="m12 17h-9.25c-.352 0-.688.066-.997.187-1.025.4-1.753 1.398-1.753 2.563v1.5c0 1.517 1.233 2.75 2.75 2.75h9.25z"/><path d="m12 .05c-1.654 0-3 1.346-3 3 0 .134.009.267.026.397.195 1.467 1.454 2.603 2.974 2.603z"/></g></svg>