<svg id="Color" enable-background="new 0 0 24 24" height="512" viewBox="0 0 24 24" width="512" xmlns="http://www.w3.org/2000/svg"><path d="m13.768 11.032c-.192 0-.384-.073-.53-.22-.293-.293-.293-.768 0-1.061l6.482-6.481c.293-.293.768-.293 1.061 0s.293.768 0 1.061l-6.482 6.482c-.148.146-.34.219-.531.219z" fill="#eceff1"/><path d="m3.75 21.05c-.192 0-.384-.073-.53-.22-.293-.293-.293-.768 0-1.061l6.482-6.482c.293-.293.768-.293 1.061 0s.293.768 0 1.061l-6.483 6.482c-.146.147-.338.22-.53.22z" fill="#eceff1"/><path d="m20.25 3.05c-.192 0-.384.073-.53.22l-6.482 6.482c-.292.292-.293.764-.003 1.057l7.543-7.543c-.147-.144-.338-.216-.528-.216z" fill="#cdd0d2"/><path d="m10.232 13.068c-.192 0-.384.073-.53.22l-6.482 6.482c-.292.292-.293.764-.003 1.057l7.543-7.543c-.147-.144-.337-.216-.528-.216z" fill="#cdd0d2"/><path d="m10.232 11.032c-.192 0-.384-.073-.53-.22l-6.482-6.482c-.293-.293-.293-.768 0-1.061s.768-.293 1.061 0l6.482 6.482c.293.293.293.768 0 1.061-.147.147-.339.22-.531.22z" fill="#eceff1"/><path d="m20.25 21.05c-.192 0-.384-.073-.53-.22l-6.482-6.482c-.293-.293-.293-.768 0-1.061s.768-.293 1.061 0l6.482 6.482c.293.293.293.768 0 1.061-.147.147-.339.22-.531.22z" fill="#eceff1"/><path d="m3.225 3.265c-.002.001-.004.003-.005.005-.293.293-.293.768 0 1.061l6.482 6.482c.146.146.338.22.53.22s.384-.073.53-.22c.002-.002.003-.003.005-.005z" fill="#cdd0d2"/><path d="m13.242 13.283c-.002.002-.003.003-.005.005-.293.293-.293.768 0 1.061l6.482 6.482c.146.146.338.22.53.22s.384-.073.53-.22c.002-.002.003-.003.005-.005z" fill="#cdd0d2"/><path d="m12 10.25c-.414 0-.75-.336-.75-.75v-8.75c0-.414.336-.75.75-.75s.75.336.75.75v8.75c0 .414-.336.75-.75.75z" fill="#eceff1"/><path d="m12 24c-.414 0-.75-.336-.75-.75v-8.75c0-.414.336-.75.75-.75s.75.336.75.75v8.75c0 .414-.336.75-.75.75z" fill="#eceff1"/><path d="m12 5.25c-.217 0-.424-.094-.567-.259l-3.25-3.75c-.271-.313-.237-.786.076-1.058.314-.271.787-.237 1.058.076l2.683 3.096 2.683-3.096c.271-.312.744-.347 1.058-.076.313.271.347.745.076 1.058l-3.25 3.75c-.143.165-.35.259-.567.259z" fill="#cfd8dc"/><path d="m15.25 24c-.21 0-.419-.088-.567-.259l-2.683-3.096-2.683 3.096c-.271.312-.744.347-1.058.076-.313-.271-.347-.745-.076-1.058l3.25-3.75c.285-.329.849-.329 1.134 0l3.25 3.75c.271.313.237.787-.076 1.058-.142.123-.317.183-.491.183z" fill="#cfd8dc"/><path d="m11.25 4.78v4.107c.241-.057.492-.087.75-.087v-3.55c-.217 0-.424-.094-.567-.259zm.75-4.78c-.414 0-.75.336-.75.75v1.74l.75.865z" fill="#cdd0d2"/><path d="m12 20.645-.75.865v1.739c0 .414.336.75.75.75zm-.75-5.433v4.008l.183-.211c.143-.165.355-.247.567-.247v-3.462c-.258 0-.509-.03-.75-.088z" fill="#cdd0d2"/><path d="m8.75 0c-.174 0-.349.06-.491.183-.313.272-.347.745-.076 1.058l3.067 3.539.183.211c.143.165.35.259.567.259v-1.895l-.75-.865-1.933-2.231c-.149-.171-.357-.259-.567-.259z" fill="#b4bcc0"/><path d="m12 18.762c-.212 0-.424.082-.567.247l-.183.211-3.067 3.539c-.271.313-.237.787.076 1.058.142.123.317.183.491.183.21 0 .419-.088.567-.259l1.933-2.231.75-.865z" fill="#b4bcc0"/><path d="m9.5 12.8h-8.75c-.414 0-.75-.336-.75-.75s.336-.75.75-.75h8.75c.414 0 .75.336.75.75s-.336.75-.75.75z" fill="#eceff1"/><path d="m23.25 12.8h-8.75c-.414 0-.75-.336-.75-.75s.336-.75.75-.75h8.75c.414 0 .75.336.75.75s-.336.75-.75.75z" fill="#eceff1"/><path d="m.75 16.05c-.21 0-.419-.088-.567-.259-.271-.313-.237-.787.076-1.058l3.096-2.683-3.096-2.683c-.313-.272-.347-.745-.076-1.058.271-.312.744-.347 1.058-.076l3.75 3.25c.165.143.259.35.259.567s-.094.424-.259.567l-3.75 3.25c-.142.123-.317.183-.491.183z" fill="#cfd8dc"/><path d="m23.25 16.05c-.174 0-.349-.06-.491-.183l-3.75-3.25c-.165-.143-.259-.35-.259-.567s.094-.424.259-.567l3.75-3.25c.314-.271.787-.237 1.058.076s.237.787-.076 1.058l-3.096 2.683 3.096 2.683c.313.271.347.745.076 1.058-.149.171-.358.259-.567.259z" fill="#cfd8dc"/><path d="m3.355 12.05h-3.355c0 .414.336.75.75.75h1.74zm6.895 0h-5c0 .217-.094.424-.259.567l-.211.183h4.72c.414 0 .75-.336.75-.75z" fill="#cdd0d2"/><path d="m18.75 12.05h-5c0 .414.336.75.75.75h4.72l-.211-.183c-.165-.143-.259-.35-.259-.567zm5.25 0h-3.355l.865.75h1.74c.414 0 .75-.336.75-.75z" fill="#cdd0d2"/><path d="m5.25 12.05h-1.895l-.865.75-2.231 1.933c-.313.271-.347.745-.076 1.058.148.171.357.259.567.259.174 0 .349-.06.491-.183l3.539-3.067.211-.183c.165-.143.259-.35.259-.567z" fill="#b4bcc0"/><path d="m20.645 12.05h-1.895c0 .217.094.424.259.567l.211.183 3.539 3.067c.142.123.317.183.491.183.21 0 .419-.088.567-.259.271-.313.237-.787-.076-1.058l-2.231-1.933z" fill="#b4bcc0"/><path d="m12 15.3c-1.792 0-3.25-1.458-3.25-3.25s1.458-3.25 3.25-3.25 3.25 1.458 3.25 3.25-1.458 3.25-3.25 3.25z" fill="#cfd8dc"/><path d="m12 8.8c-.258 0-.509.03-.75.087-1.432.339-2.5 1.629-2.5 3.163s1.068 2.823 2.5 3.163c.241.057.492.087.75.087z" fill="#b4bcc0"/></svg>