<svg id="Color" enable-background="new 0 0 24 24" height="512" viewBox="0 0 24 24" width="512" xmlns="http://www.w3.org/2000/svg"><path d="m14.25 5.456c-.414 0-.75-.336-.75-.75v-2.106c0-.578-.471-1.05-1.05-1.05h-.9c-.579 0-1.05.472-1.05 1.05v2.106c0 .414-.336.75-.75.75s-.75-.336-.75-.75v-2.106c0-1.406 1.144-2.55 2.55-2.55h.9c1.406 0 2.55 1.143 2.55 2.55v2.106c0 .414-.336.75-.75.75z" fill="#607d8b"/><path d="m12 4.05c-5.514 0-10 4.485-10 10s4.486 10 10 10 10-4.485 10-10-4.486-10-10-10z" fill="#66bb6a"/><path d="m17.547 14.393-2.414.677-1.685-1.02 1.686-1.02 2.413.678.203.028c.328 0 .628-.217.722-.548.112-.398-.121-.812-.52-.925l-2.02-.567.548-2.146c.103-.401-.14-.81-.541-.912-.4-.105-.81.14-.912.541l-.654 2.559-1.623.982v-2.028l1.788-1.874c.286-.3.275-.774-.025-1.06-.298-.286-.773-.276-1.06.024l-1.453 1.523-1.453-1.522c-.287-.301-.761-.311-1.06-.024-.3.285-.311.76-.025 1.06l1.788 1.874v2.028l-1.624-.982-.654-2.56c-.102-.402-.513-.647-.912-.541-.401.102-.643.51-.541.912l.548 2.146-2.02.567c-.399.112-.631.526-.52.925.093.331.394.548.722.548l.203-.028 2.413-.678 1.686 1.02-1.686 1.02-2.413-.677c-.396-.109-.812.12-.925.52-.112.398.121.812.52.924l2.02.567-.548 2.147c-.103.4.14.809.541.912l.186.023c.334 0 .64-.226.726-.564l.654-2.56 1.624-.982v2.028l-1.788 1.873c-.286.301-.275.775.024 1.061.301.287.775.275 1.061-.023l1.453-1.524 1.453 1.523c.147.154.345.231.542.231.186 0 .373-.069.518-.208.299-.285.311-.76.024-1.061l-1.788-1.873v-2.027l1.624.982.654 2.56c.086.339.392.564.726.564l.186-.023c.401-.104.644-.512.541-.912l-.548-2.147 2.02-.567c.399-.111.631-.525.52-.924-.111-.4-.525-.631-.925-.52z" fill="#eceff1"/><path d="m12 .05h-.45c-1.406 0-2.55 1.143-2.55 2.55v1.91c.485-.153.986-.27 1.5-.347v-1.563c0-.578.471-1.05 1.05-1.05h.45z" fill="#546d79"/><path d="m12 4.05c-.51 0-1.011.038-1.5.112-.514.078-1.015.194-1.5.347-4.053 1.277-7 5.071-7 9.541 0 5.515 4.486 10 10 10v-5.255l-1.453 1.523c-.147.154-.344.232-.542.232-.186 0-.373-.069-.519-.208-.299-.285-.311-.76-.024-1.061l1.788-1.873v-2.028l-1.624.982-.654 2.56c-.086.339-.392.564-.726.564l-.186-.023c-.401-.104-.644-.512-.541-.912l.548-2.147-2.02-.567c-.399-.111-.631-.525-.52-.924.093-.332.397-.547.725-.547.066 0 .134.009.2.027l2.413.677 1.686-1.02-1.686-1.02-2.413.678-.203.028c-.328 0-.628-.217-.722-.548-.112-.398.121-.812.52-.925l2.02-.567-.548-2.146c-.102-.402.14-.81.541-.912.063-.017.126-.025.188-.025.333 0 .638.227.724.566l.654 2.559 1.624.982v-2.028l-1.788-1.875c-.286-.3-.275-.774.025-1.06.145-.139.331-.208.518-.208.198 0 .395.078.542.233l1.453 1.523z" fill="#59a35c"/><path d="m10.004 7.549c-.186 0-.372.069-.518.208-.3.285-.311.76-.025 1.06l1.788 1.874v2.028l-1.624-.982-.653-2.558c-.086-.339-.391-.566-.724-.566-.062 0-.125.008-.188.025-.401.102-.643.51-.541.912l.548 2.146-2.02.567c-.399.112-.631.526-.52.925.093.331.394.548.722.548l.203-.028 2.413-.678 1.686 1.02-1.686 1.02-2.413-.677c-.067-.018-.134-.027-.2-.027-.327 0-.631.215-.725.547-.112.398.121.812.52.924l2.02.567-.548 2.147c-.103.4.14.809.541.912l.186.023c.334 0 .64-.226.726-.564l.654-2.56 1.624-.982v2.028l-1.788 1.873c-.286.301-.275.775.024 1.061.146.139.333.208.519.208.198 0 .395-.078.542-.232l1.453-1.523v-9.49l-1.453-1.522c-.148-.156-.345-.234-.543-.234z" fill="#cdd0d2"/></svg>