<svg id="Color" enable-background="new 0 0 24 24" height="512" viewBox="0 0 24 24" width="512" xmlns="http://www.w3.org/2000/svg"><path d="m20.25 1.05h-3.5c-.414 0-.75.336-.75.75v2.63c0 .182.066.357.186.494l3.5 4c.145.166.352.256.564.256l.264-.047c.293-.111.486-.391.486-.703v-6.63c0-.414-.336-.75-.75-.75z" fill="#607d8b"/><path d="m18.5 1.05h-1.75c-.414 0-.75.336-.75.75v2.63c0 .182.066.357.186.494l2.314 2.645z" fill="#546d79"/><path d="m21 11.37v10.38c0 1.24-1.01 2.25-2.25 2.25h-13.5c-1.24 0-2.25-1.01-2.25-2.25v-10.38c0-.2.08-.39.22-.53l8.26-8.24c.289-.29.77-.29 1.06 0l8.24 8.24c.14.14.22.33.22.53z" fill="#607d8b"/><path d="m23.348 10.429-9.78-9.78c-.863-.864-2.271-.864-3.135 0l-9.78 9.78c-.864.864-.864 2.27 0 3.134.862.863 2.27.865 3.134 0l1.107-1.106v.028c0 .953.775 1.729 1.728 1.729.952 0 1.728-.775 1.728-1.729v-3.485l.456-.456v.028c0 .953.775 1.729 1.728 1.729.952 0 1.728-.775 1.728-1.729v-2.962l7.952 7.952c.413.413.984.65 1.567.65.582 0 1.153-.237 1.567-.65.864-.864.864-2.269 0-3.133z" fill="#e3f2fd"/><path d="m15 15.75v8.25h-6v-8.25c0-.41.34-.75.75-.75h4.5c.41 0 .75.34.75.75z" fill="#fff"/><path d="m8.805 8.544-.456.456v3.484c0 .953-.775 1.729-1.728 1.729s-1.728-.775-1.728-1.729v-.028l-1.107 1.106c-.23.231-.499.4-.786.507v7.68c0 1.241 1.01 2.251 2.25 2.251h6.75-3v-8.25c0-.41.34-.75.75-.75h2.25v-5.516c-.305.49-.849.816-1.467.816-.953 0-1.728-.775-1.728-1.729z" fill="#546d79"/><path d="m12 0c-.568 0-1.136.216-1.567.648l-9.78 9.78c-.864.864-.864 2.27 0 3.134.431.432.999.648 1.567.648.265 0 .53-.047.781-.141.287-.108.556-.276.786-.507l1.107-1.106v.028c0 .953.775 1.729 1.728 1.729.952 0 1.728-.775 1.728-1.729v-3.484l.456-.456v.028c0 .953.775 1.729 1.728 1.729.618 0 1.161-.327 1.467-.816v-9.485z" fill="#c6d3dc"/><path d="m12 15h-2.25c-.41 0-.75.34-.75.75v8.25h3z" fill="#dedede"/></svg>