<svg id="Color" enable-background="new 0 0 24 24" height="512" viewBox="0 0 24 24" width="512" xmlns="http://www.w3.org/2000/svg"><g><path d="m7.5 4h-2c-.276 0-.5-.224-.5-.5v-3c0-.276.224-.5.5-.5h2c.276 0 .5.224.5.5v3c0 .276-.224.5-.5.5z" fill="#607d8b"/><path d="m6.5 0h-1c-.276 0-.5.224-.5.5v3c0 .276.224.5.5.5h1z" fill="#546d79"/></g><g><path d="m22 13.3v8.95c0 .96-.79 1.75-1.75 1.75h-16.5c-.96 0-1.75-.79-1.75-1.75v-8.95c0-.41.34-.75.75-.75h18.5c.41 0 .75.34.75.75z" fill="#607d8b"/><path d="m23.965 13.073-1.82-5.75c-.099-.311-.388-.523-.715-.523h-.93c-.965 0-1.75.785-1.75 1.75v1.5c0 .413-.337.75-.75.75s-.75-.337-.75-.75v-1.5c0-.965-.785-1.75-1.75-1.75h-1c-.965 0-1.75.785-1.75 1.75v1c0 .271-.5.271-.5 0v-1c0-.965-.785-1.75-1.75-1.75h-2c-.965 0-1.75.785-1.75 1.75v.5c0 .413-.337.75-.75.75s-.75-.337-.75-.75v-.5c0-.965-.785-1.75-1.75-1.75h-.93c-.327 0-.616.212-.715.523l-1.82 5.75c-.072.228-.031.478.109.67.142.192.366.307.605.307h22.5c.239 0 .464-.114.605-.307.142-.192.183-.442.111-.67z" fill="#90a4ae"/><path d="m22.146 7.324-1.18-3.75c-.099-.312-.389-.524-.716-.524h-16.5c-.327 0-.617.212-.716.524l-1.18 3.75c-.071.229-.03.477.111.67.141.192.366.306.605.306h.93c.136 0 .25.114.25.25v.5c0 1.241 1.01 2.25 2.25 2.25s2.25-1.009 2.25-2.25v-.5c0-.136.114-.25.25-.25h2c.136 0 .25.114.25.25v1c0 .965.785 1.75 1.75 1.75s1.75-.785 1.75-1.75v-1c0-.136.114-.25.25-.25h1c.136 0 .25.114.25.25v1.5c0 1.241 1.01 2.25 2.25 2.25s2.25-1.009 2.25-2.25v-1.5c0-.136.114-.25.25-.25h.93c.239 0 .464-.114.605-.306.141-.193.182-.441.111-.67z" fill="#e3f2fd"/><path d="m12 14.05h-10v8.2c0 .96.79 1.75 1.75 1.75h8.25z" fill="#546d79"/><path d="m1.846 7.352-1.811 5.721c-.072.228-.031.478.109.67.142.192.366.307.605.307h1.251 10v-2.823c-.722-.216-1.25-.886-1.25-1.677v-1c0-.136-.114-.25-.25-.25h-2c-.136 0-.25.114-.25.25v.5c0 1.241-1.01 2.25-2.25 2.25s-2.25-1.009-2.25-2.25v-.5c0-.136-.114-.25-.25-.25h-.93c-.239 0-.464-.114-.605-.306-.135-.185-.178-.421-.119-.642z" fill="#7d8f97"/><path d="m12 3.05h-8.25c-.327 0-.617.212-.716.524l-1.18 3.75c-.002.01-.005.019-.008.028-.06.221-.016.456.12.642.14.192.365.306.604.306h.93c.136 0 .25.114.25.25v.5c0 1.241 1.01 2.25 2.25 2.25s2.25-1.009 2.25-2.25v-.5c0-.136.114-.25.25-.25h2c.136 0 .25.114.25.25v1c0 .791.528 1.462 1.25 1.677z" fill="#c6d3dc"/></g><path d="m10.25 17.05h-3.5c-.41 0-.75.34-.75.75v6.2h5v-6.2c0-.41-.34-.75-.75-.75z" fill="#fff"/><path d="m8.5 17.05h-1.75c-.41 0-.75.34-.75.75v6.2h2.5z" fill="#dedede"/></svg>