<svg id="Color" enable-background="new 0 0 24 24" height="512" viewBox="0 0 24 24" width="512" xmlns="http://www.w3.org/2000/svg"><path d="m20.93 9.02v4.28c0 .2-.08.391-.22.53-.14.14-.33.22-.53.22h-16.35c-.42 0-.75-.34-.75-.75l-.01-4.28c0-.329.02-.649.06-.97.05-.51.15-1.02.29-1.5 1.01-3.49 4.1-6.12 7.83-6.42.25-.03.5-.04.75-.04s.5.01.75.04c3.73.3 6.82 2.93 7.83 6.42.14.48.24.99.29 1.5.04.32.06.64.06.97z" fill="#ffd54f"/><path d="m12.75.13v13.92h-1.5v-13.92z" fill="#607d8b"/><path d="m21.28 12.5h-18.56c-.727 0-1.403.283-1.89.785-.516.501-.799 1.178-.799 1.904 0 1.482 1.207 2.689 2.689 2.689.146 0 .289.125.289.219v2.729c0 1.216.989 2.205 2.204 2.205 1.216 0 2.205-.989 2.205-2.205v-2.106c0-.121.099-.22.22-.22h1.939c.121 0 .22.099.22.22v.167c0 1.216.989 2.205 2.205 2.205s2.205-.989 2.205-2.205v-.167c0-.121.099-.22.22-.22h1.939c.121 0 .22.099.22.22v3.076c0 1.216.989 2.204 2.205 2.204 1.215 0 2.204-.988 2.204-2.204v-3.698c0-.094.143-.219.289-.219.727 0 1.403-.283 1.89-.785.516-.501.799-1.178.799-1.904-.003-1.483-1.21-2.69-2.693-2.69z" fill="#eceff1"/><path d="m11.25 8.05h-8.12c-.04.32-.06.64-.06.97l.008 3.48h8.172zm0-7.92c-3.73.3-6.82 2.93-7.83 6.42h7.83zm.75-.04c-.25 0-.5.01-.75.04h.75z" fill="#deb945"/><path d="m12 8.05h-.75v4.45h.75zm0-7.92h-.75v6.42h.75z" fill="#546d79"/><path d="m12 12.5h-.75-8.172-.358c-.727 0-1.403.283-1.89.785-.516.501-.799 1.178-.799 1.904 0 1.482 1.207 2.689 2.689 2.689.146 0 .289.125.289.219v2.729c0 1.216.989 2.205 2.204 2.205 1.216 0 2.205-.989 2.205-2.205v-2.106c0-.121.099-.22.22-.22h1.939c.121 0 .22.099.22.22v.167c0 1.216.989 2.205 2.205 2.205v-8.592z" fill="#cdd0d2"/><g><path d="m20.87 8.05h-17.74c.05-.51.15-1.019.29-1.5h17.16c.14.48.24.99.29 1.5z" fill="#607d8b"/><path d="m20.758 7.287h-17.516c-.049.252-.087.507-.112.763h17.74c-.025-.256-.063-.511-.112-.763z" fill="#546d79"/></g></svg>