<svg id="Color" enable-background="new 0 0 24 24" height="512" viewBox="0 0 24 24" width="512" xmlns="http://www.w3.org/2000/svg"><path d="m23.963 9.275c-.093-.285-.346-.488-.645-.515l-7.617-.694-3.011-7.08c-.235-.553-1.144-.553-1.38 0l-3.011 7.08-7.617.694c-.299.027-.552.23-.645.515s-.007.598.217.796l5.76 5.071-1.699 7.512c-.066.293.048.598.292.774.243.176.568.19.825.036l6.568-3.944 6.567 3.944c.119.071.252.107.386.107.155 0 .309-.048.439-.143.244-.176.358-.48.292-.774l-1.699-7.512 5.76-5.071c.225-.198.311-.511.218-.796z" fill="#ffd54f"/><path d="m17.87 14.641-1.97-6.097c-.1-.31-.389-.52-.714-.52h-6.373c-.325 0-.614.21-.714.52l-1.97 6.096c-.099.308.01.645.271.836l5.156 3.768c.132.096.287.145.442.145s.311-.048.442-.145l5.156-3.768c.264-.19.373-.527.274-.835z" fill="#ffb300"/><path d="m12 .571c-.286 0-.572.138-.69.415l-3.011 7.08-7.617.694c-.299.027-.552.23-.645.515s-.007.598.217.796l5.76 5.071-1.699 7.512c-.066.293.048.598.292.774.13.095.285.142.439.142.133 0 .267-.035.386-.107l6.568-3.943v-.131c-.155 0-.311-.048-.442-.145l-5.156-3.768c-.262-.191-.371-.528-.271-.836l1.969-6.096c.1-.31.389-.52.714-.52h3.186z" fill="#deb945"/><path d="m12 8.025h-3.187c-.325 0-.614.21-.714.52l-1.97 6.096c-.099.308.01.645.271.836l5.156 3.768c.132.096.287.145.442.145v-11.365z" fill="#de9c00"/></svg>