<svg id="Color" enable-background="new 0 0 24 24" height="512" viewBox="0 0 24 24" width="512" xmlns="http://www.w3.org/2000/svg"><path d="m14 5.956c-.552 0-1-.448-1-1v-2.106c0-.441-.359-.8-.8-.8h-.4c-.441 0-.8.359-.8.8v2.106c0 .552-.448 1-1 1s-1-.448-1-1v-2.106c0-1.544 1.256-2.8 2.8-2.8h.4c1.544 0 2.8 1.256 2.8 2.8v2.106c0 .552-.448 1-1 1z" fill="#607d8b"/><path d="m12 3.02c-5.7 0-10 3.99-10 9.27 0 5.4 3.99 7.87 6.9 9.67 1.02.63 1.98 1.22 2.57 1.82.15.14.34.22.53.22s.38-.08.53-.22c.59-.601 1.55-1.19 2.57-1.82 2.91-1.8 6.9-4.27 6.9-9.67 0-5.28-4.3-9.27-10-9.27z" fill="#66bb6a"/><path d="m16.79 11.61-1.86 1.91.44 2.7c.04.28-.08.57-.31.73-.13.09-.28.14-.43.14-.13 0-.25-.03-.37-.09l-2.26-1.26-2.26 1.26c-.25.14-.56.12-.8-.05-.23-.16-.35-.45-.31-.73l.44-2.7-1.86-1.91c-.19-.2-.26-.5-.17-.76.09-.27.32-.46.6-.51l2.54-.38 1.14-2.44c.25-.53 1.11-.53 1.36 0l1.14 2.44 2.54.38c.28.05.51.24.6.51.09.26.02.56-.17.76z" fill="#ffd54f"/><path d="m12 .05h-.2c-1.544 0-2.8 1.256-2.8 2.8v.562c.638-.174 1.307-.292 2-.351v-.211c0-.441.359-.8.8-.8h.2z" fill="#546d79"/><path d="m12 3.02c-.339 0-.672.014-1 .042-.693.058-1.362.177-2 .35-4.144 1.127-7 4.574-7 8.878 0 5.4 3.99 7.87 6.9 9.67 1.02.63 1.98 1.22 2.57 1.82.15.14.34.22.53.22v-8.26l-2.26 1.26c-.111.062-.234.093-.357.093-.154 0-.31-.048-.443-.142-.23-.16-.35-.45-.31-.73l.44-2.7-1.86-1.91c-.19-.2-.26-.5-.17-.76.09-.27.32-.46.6-.51l2.54-.38 1.14-2.44c.125-.265.403-.397.68-.397z" fill="#59a35c"/><path d="m12 7.123c-.278 0-.555.132-.68.397l-1.14 2.44-2.54.38c-.28.05-.51.24-.6.51-.09.26-.02.56.17.76l1.86 1.91-.44 2.7c-.04.28.08.57.31.73.134.094.289.142.443.142.123 0 .246-.031.357-.093l2.26-1.259z" fill="#deb945"/></svg>