<svg id="Color" enable-background="new 0 0 24 24" height="512" viewBox="0 0 24 24" width="512" xmlns="http://www.w3.org/2000/svg"><path d="m14.25 5.456c-.414 0-.75-.336-.75-.75v-2.106c0-.578-.471-1.05-1.05-1.05h-.9c-.579 0-1.05.472-1.05 1.05v2.106c0 .414-.336.75-.75.75s-.75-.336-.75-.75v-2.106c0-1.406 1.144-2.55 2.55-2.55h.9c1.406 0 2.55 1.143 2.55 2.55v2.106c0 .414-.336.75-.75.75z" fill="#607d8b"/><path d="m12.125 4.05c-5.583 0-10.125 4.486-10.125 10 0 5.515 4.542 10 10.125 10s10.125-4.485 10.125-10c0-5.514-4.542-10-10.125-10z" fill="#ffd54f"/><path d="m14.626 19.05c-.124 0-.249-.03-.363-.094l-2.263-1.251-2.264 1.251c-.251.14-.56.122-.795-.043-.234-.165-.354-.45-.308-.733l.44-2.702-1.86-1.907c-.196-.201-.264-.495-.175-.762s.32-.461.598-.503l2.541-.389 1.144-2.437c.247-.525 1.11-.525 1.357 0l1.144 2.437 2.541.389c.278.042.509.236.598.503s.021.561-.175.762l-1.86 1.907.44 2.702c.046.283-.074.568-.308.733-.128.091-.28.137-.432.137z" fill="#ef5350"/><path d="m12 .05h-.45c-1.406 0-2.55 1.143-2.55 2.55v1.938c.485-.156.986-.276 1.5-.359v-1.579c0-.578.471-1.05 1.05-1.05h.45z" fill="#546d79"/><path d="m12 4.051c-.51.006-1.011.05-1.5.128-.514.082-1.015.202-1.5.358-4.058 1.304-7 5.076-7 9.513 0 5.474 4.474 9.933 10 9.999v-6.344l-2.264 1.251c-.113.063-.238.094-.362.094-.152 0-.303-.046-.433-.137-.234-.165-.354-.45-.308-.733l.44-2.702-1.86-1.907c-.196-.201-.264-.495-.175-.762s.32-.461.598-.503l2.541-.389 1.144-2.437c.124-.262.401-.394.679-.394z" fill="#deb945"/><path d="m12 9.086c-.278 0-.555.131-.679.394l-1.144 2.437-2.541.389c-.278.042-.509.236-.598.503s-.021.561.175.762l1.86 1.907-.44 2.702c-.046.283.074.568.308.733.129.091.281.137.433.137.125 0 .249-.031.362-.094l2.264-1.251z" fill="#d04846"/></svg>