<svg id="Color" enable-background="new 0 0 24 24" height="512" viewBox="0 0 24 24" width="512" xmlns="http://www.w3.org/2000/svg"><g fill="#ffd54f"><path d="m8.639 18.995h-6.891c-.27 0-.52-.14-.65-.38-.13-.23-.13-.521 0-.751l3.441-5.876.43.741v.01l.44.741 2.351 4.014z"/><path d="m22.902 6.111-3.441 5.876-.43-.741-.44-.751-2.351-4.014-.88-1.502h6.892c.27 0 .52.14.65.38.131.232.131.522 0 .752z"/><path d="m15.361 4.98h-6.722l2.71-4.635c.271-.46 1.03-.46 1.301 0z"/><path d="m15.361 18.995-2.71 4.635c-.141.23-.381.37-.651.37s-.51-.14-.65-.371l-2.71-4.635h6.721z"/></g><path d="m19.032 11.247-.441-.751-2.35-4.014-.44-.751-.44-.751h-.87-.871-3.24-.871-.87l-.44.751-.44.751-2.35 4.014-.441.751-.43.74.43.741v.01l.441.741 2.35 4.014.44.751.44.751h.87.871 3.24.871.87l.44-.751.44-.751 2.35-4.014.441-.741v-.01l.43-.741z" fill="#ffb300"/><path d="m12 0c-.258 0-.515.115-.65.345l-2.711 4.635h.87.871 1.62z" fill="#deb945"/><path d="m12 18.995h-3.361l2.71 4.635c.141.23.381.37.651.37z" fill="#deb945"/><path d="m12 4.98h-1.62-.871-.87l-.44.751-.44.751-2.35 4.014-.441.751-.43.74.43.741v.01l.441.741 2.35 4.014.44.751.44.751h.87.871 1.62z" fill="#de9c00"/><path d="m22.902 18.614c-.13.24-.38.38-.65.38h-6.892l.88-1.501 2.351-4.014.44-.741v-.01l.43-.741 3.44 5.876c.132.231.132.521.001.751z" fill="#ffd54f"/><path d="m8.639 4.98-.88 1.502-2.351 4.014-.44.75-.43.741-3.44-5.876c-.13-.23-.13-.52 0-.751.13-.24.38-.38.65-.38z" fill="#ffd54f"/><path d="m17.502 15.339-1.261 2.154-.88 1.501h6.892c.268 0 .516-.138.647-.374z" fill="#deb945"/><path d="m1.095 5.365c-.128.23-.127.518.003.746l3.44 5.876.43-.741.44-.75 1.083-1.85z" fill="#deb945"/><path d="m6.498 15.339 1.261 2.154.88 1.501h-6.891c-.268 0-.516-.138-.647-.374z" fill="#deb945"/><path d="m22.905 5.365c.128.23.127.518-.003.746l-3.44 5.876-.43-.741-.44-.75-1.083-1.85z" fill="#deb945"/></svg>