<svg id="Color" enable-background="new 0 0 24 24" height="512" viewBox="0 0 24 24" width="512" xmlns="http://www.w3.org/2000/svg"><path d="m12 10.354c-.414 0-.75-.336-.75-.75v-8.804c0-.414.336-.75.75-.75s.75.336.75.75v8.805c0 .414-.336.749-.75.749z" fill="#eceff1"/><path d="m12 24.05c-.414 0-.75-.336-.75-.75v-8.804c0-.414.336-.75.75-.75s.75.336.75.75v8.804c0 .414-.336.75-.75.75z" fill="#eceff1"/><path d="m11.25 4.665v4.278c.241-.058.492-.089.75-.089v-3.88c-.125 0-.251-.031-.364-.094zm.75-4.615c-.414 0-.75.336-.75.75v2.15l.75.416z" fill="#cdd0d2"/><path d="m12 20.734-.75.417v2.149c0 .414.336.75.75.75zm-.75-5.577v4.278l.386-.214c.113-.063.238-.095.364-.095v-3.88c-.258 0-.509-.031-.75-.089z" fill="#cdd0d2"/><path d="m4.045 20.755c-.192 0-.384-.073-.53-.22-.293-.293-.293-.768 0-1.061l6.226-6.226c.293-.293.768-.293 1.061 0s.293.768 0 1.061l-6.226 6.226c-.147.147-.339.22-.531.22z" fill="#eceff1"/><path d="m13.729 11.071c-.192 0-.384-.073-.53-.22-.293-.293-.293-.768 0-1.061l6.226-6.226c.293-.293.768-.293 1.061 0s.293.768 0 1.061l-6.226 6.226c-.147.147-.338.22-.531.22z" fill="#eceff1"/><path d="m10.271 13.029c-.192 0-.384.073-.53.22l-6.226 6.226c-.293.293-.293.768 0 1.061l7.286-7.286c-.147-.147-.339-.221-.53-.221z" fill="#cdd0d2"/><path d="m19.955 3.345c-.192 0-.384.073-.53.22l-6.226 6.226c-.293.293-.293.767 0 1.06l7.286-7.286c-.146-.147-.338-.22-.53-.22z" fill="#cdd0d2"/><path d="m10.27 11.071c-.192 0-.384-.073-.53-.22l-6.225-6.226c-.293-.293-.293-.768 0-1.061s.768-.293 1.06 0l6.226 6.226c.293.293.293.768 0 1.061-.147.147-.338.22-.531.22z" fill="#eceff1"/><path d="m19.955 20.755c-.192 0-.384-.073-.53-.22l-6.226-6.226c-.293-.293-.293-.768 0-1.061s.768-.293 1.061 0l6.226 6.226c.293.293.293.768 0 1.061-.147.147-.339.22-.531.22z" fill="#eceff1"/><path d="m3.515 3.565c-.293.293-.293.768 0 1.061l6.226 6.226c.146.146.338.22.53.22s.384-.073.53-.22z" fill="#cdd0d2"/><path d="m13.199 13.249c-.293.293-.293.768 0 1.06l6.226 6.226c.147.147.338.22.53.22s.384-.073.53-.22z" fill="#cdd0d2"/><path d="m9.555 12.8h-8.805c-.414 0-.75-.336-.75-.75s.336-.75.75-.75h8.805c.414 0 .75.336.75.75s-.336.75-.75.75z" fill="#eceff1"/><path d="m23.25 12.8h-8.805c-.414 0-.75-.336-.75-.75s.336-.75.75-.75h8.805c.414 0 .75.336.75.75s-.336.75-.75.75z" fill="#eceff1"/><path d="m10.305 12.05h-10.305c0 .414.336.75.75.75h8.805c.414 0 .75-.336.75-.75z" fill="#cdd0d2"/><path d="m24 12.05h-10.305c0 .414.336.75.75.75h8.805c.414 0 .75-.336.75-.75z" fill="#cdd0d2"/><path d="m12 15.246c-1.762 0-3.195-1.434-3.195-3.196s1.434-3.195 3.195-3.195c1.762 0 3.195 1.434 3.195 3.195 0 1.762-1.433 3.196-3.195 3.196z" fill="#cfd8dc"/><path d="m12 8.854c-.258 0-.509.031-.75.089-1.401.338-2.445 1.603-2.445 3.106 0 1.504 1.044 2.769 2.445 3.107.241.058.492.089.75.089z" fill="#b4bcc0"/><path d="m16.206 22.964c-.126 0-.252-.032-.364-.095l-3.842-2.135-3.842 2.136c-.198.112-.439.125-.65.038-.212-.087-.371-.266-.435-.486l-1.217-4.229-4.228-1.216c-.22-.063-.398-.223-.486-.435-.087-.211-.073-.451.038-.65l2.135-3.842-2.134-3.842c-.111-.2-.125-.439-.038-.651.087-.211.266-.371.486-.434l4.228-1.215 1.217-4.229c.064-.22.223-.398.435-.486.211-.087.451-.073.649.037l3.842 2.136 3.842-2.136c.198-.111.44-.124.65-.038.212.087.371.266.435.486l1.217 4.229 4.228 1.215c.22.063.398.223.486.434.087.211.073.451-.038.651l-2.135 3.842 2.135 3.842c.111.2.125.439.038.65-.088.211-.267.372-.486.435l-4.228 1.216-1.217 4.229c-.063.22-.223.398-.435.486-.092.038-.189.057-.286.057zm-4.206-3.838c.126 0 .251.032.364.095l3.382 1.88 1.07-3.721c.071-.248.266-.442.514-.513l3.721-1.07-1.88-3.382c-.126-.227-.126-.502 0-.729l1.879-3.382-3.72-1.069c-.248-.071-.442-.265-.514-.513l-1.07-3.722-3.382 1.88c-.227.126-.502.126-.729 0l-3.381-1.88-1.07 3.721c-.072.248-.266.442-.514.513l-3.72 1.069 1.879 3.382c.126.227.126.502 0 .729l-1.88 3.382 3.721 1.07c.248.071.442.265.514.513l1.07 3.721 3.382-1.88c.113-.062.238-.094.364-.094z" fill="#cfd8dc"/><path d="m7.795 1.136c-.097 0-.195.019-.287.056-.212.088-.371.266-.435.486l-1.217 4.229-4.227 1.216c-.22.063-.399.223-.486.434s-.074.451.038.651l2.135 3.842-2.135 3.842c-.111.2-.125.439-.038.65.088.211.267.372.486.435l4.228 1.216 1.217 4.229c.064.22.223.398.435.486.092.038.19.057.288.057.126 0 .251-.032.363-.095l3.092-1.719.748-.417v-1.608c-.126 0-.251.032-.364.095l-.386.214-2.996 1.665-1.07-3.721c-.071-.248-.266-.442-.514-.513l-3.721-1.07 1.88-3.382c.126-.227.126-.502 0-.729l-1.879-3.382 3.72-1.069c.248-.071.442-.265.514-.513l1.07-3.721 2.996 1.665.386.214c.113.063.238.095.364.095v-1.608l-.75-.417-3.092-1.719c-.112-.062-.237-.094-.363-.094z" fill="#b4bcc0"/></svg>