<svg id="Color" enable-background="new 0 0 24 24" height="512" viewBox="0 0 24 24" width="512" xmlns="http://www.w3.org/2000/svg"><path d="m20.074 18.13c-.125 0-.25-.031-.363-.094l-4.776-2.64-4.776 2.64c-.251.14-.56.122-.795-.043-.235-.166-.354-.451-.308-.734l.92-5.644-3.893-3.99c-.196-.2-.264-.495-.175-.761.089-.267.32-.46.598-.503l5.35-.818 2.4-5.112c.124-.263.389-.431.679-.431.291 0 .555.168.679.431l2.399 5.112 5.35.818c.278.042.509.236.598.503s.021.561-.175.762l-3.893 3.99.92 5.644c.046.283-.074.568-.308.734-.129.09-.279.136-.431.136z" fill="#ffb300"/><path d="m14.935 0c-.291 0-.555.168-.679.431l-2.4 5.112-5.35.818c-.277.042-.508.236-.598.503-.089.266-.021.561.175.762l3.893 3.99-.92 5.644c-.046.283.073.568.308.734.129.091.281.137.433.137.124 0 .249-.031.362-.094l4.776-2.64z" fill="#de9c00"/><path d="m14.204 24c-.125 0-.25-.031-.363-.094l-4.776-2.64-4.776 2.64c-.251.14-.56.122-.795-.043-.235-.166-.354-.451-.308-.734l.92-5.644-3.893-3.99c-.196-.201-.263-.495-.174-.762s.32-.46.598-.503l5.35-.818 2.4-5.112c.123-.262.388-.43.678-.43.291 0 .555.168.679.431l2.399 5.112 5.35.818c.278.042.509.236.598.503s.021.561-.175.762l-3.893 3.99.92 5.644c.046.283-.074.568-.308.734-.128.09-.279.136-.431.136z" fill="#ffd54f"/><path d="m9.065 5.87c-.291 0-.555.168-.679.431l-2.4 5.112-5.35.818c-.278.042-.509.236-.598.503-.088.266-.021.56.175.762l3.893 3.99-.92 5.644c-.046.283.073.568.308.734.129.09.281.136.433.136.124 0 .249-.031.362-.094l4.776-2.64z" fill="#deb945"/></svg>