<svg id="Color" enable-background="new 0 0 24 24" height="512" viewBox="0 0 24 24" width="512" xmlns="http://www.w3.org/2000/svg"><path d="m15 2.85v.61c-.64-.18-1.31-.3-2-.35v-.26c0-.44-.36-.8-.8-.8h-.4c-.439 0-.8.36-.8.8v.26c-.69.05-1.36.17-2 .34v-.6c0-1.54 1.26-2.8 2.8-2.8h.4c1.54 0 2.8 1.26 2.8 2.8z" fill="#607d8b"/><path d="m22 12.33c0 5.4-3.99 7.87-6.9 9.67-1.019.63-1.979 1.22-2.569 1.82-.15.14-.34.22-.53.22s-.38-.08-.53-.22c-.591-.6-1.551-1.19-2.571-1.82-2.91-1.8-6.9-4.269-6.9-9.67 0-5.28 4.3-9.27 10-9.27 3.27 0 6.08 1.32 7.87 3.44.37.41.68.86.96 1.33.75 1.32 1.17 2.85 1.17 4.5z" fill="#66bb6a"/><g fill="#eceff1"><path d="m11.34 7.19.141-.08c1.786-1.008 3.852-2.125 5.659-2.835-.609-.326-1.261-.596-1.953-.798l-.187.093c-.61.28-1.231.59-1.84.92l-.16.09c-.78.4-1.54.83-2.26 1.23l-.14.07c-2.586 1.458-5.034 2.836-8.047 3.288-.184.503-.321 1.027-.412 1.571l.119-.009c3.52-.42 6.22-1.93 9.08-3.54z"/><path d="m21.898 10.981c-4.544.193-8.051 2.181-11.157 3.929l-.11.06c-2.12 1.2-4.13 2.33-6.439 2.96l-.21.09 1.119 1.2c2.27-.689 4.221-1.79 6.27-2.939l.11-.061c3.098-1.748 6.316-3.577 10.511-3.739l.008-.185c0-.449-.042-.885-.102-1.315z"/><path d="m20.83 7.83c-2.36.42-4.6 1.51-7.27 3.02-3.25 1.83-6.78 3.64-11.18 4.15l-.3-1.47c4.17-.46 7.6-2.22 10.75-3.99 2.53-1.43 4.729-2.51 7.04-3.04.37.41.68.86.96 1.33z"/><path d="m12.83 18.65c-.36.199-.73.42-1.12.64-1.199.689-2.559 1.479-3.837 2.028.352.227.698.441 1.029.646l.498.306c1.06-.52 2.109-1.13 3.069-1.68.38-.22.74-.43 1.11-.64 2.498-1.409 4.687-2.648 7.216-3.06.277-.476.516-.988.706-1.541l-.261-.029c-3.09.33-5.55 1.72-8.41 3.33z"/></g><path d="m12 .05h-.2c-1.54 0-2.8 1.26-2.8 2.8v.6c.132-.035.266-.068.4-.099.516-.119 1.05-.203 1.6-.249v-.252c0-.44.36-.8.8-.8h.2z" fill="#546d79"/><path d="m12 6.818c-.175.098-.349.195-.52.292l-.14.08c-2.86 1.61-5.56 3.12-9.08 3.54l-.119.009c.077-.459.186-.903.329-1.333-.306.912-.47 1.894-.47 2.924 0 5.4 3.99 7.87 6.9 9.67 1.02.63 1.979 1.22 2.569 1.82.15.14.34.22.53.22v-3.181c-.828.474-1.71.974-2.6 1.41l-.498-.305c-.331-.205-.678-.42-1.029-.646 1.278-.55 2.638-1.339 3.837-2.028.098-.055.194-.11.29-.165v-3.198c-.174.098-.347.195-.52.293l-.11.061c-2.05 1.149-4 2.25-6.27 2.939l-1.119-1.2.21-.09c2.31-.63 4.319-1.76 6.439-2.96l.11-.06c.412-.232.832-.468 1.26-.704v-2.497c-2.823 1.509-5.912 2.862-9.619 3.291l-.3-1.47c3.807-.42 6.996-1.923 9.92-3.529zm0-3.758c-.339 0-.672.014-1 .042-.55.046-1.084.13-1.599.25-3.259.754-5.782 2.916-6.847 5.816 3.013-.452 5.46-1.83 8.046-3.288l.141-.07c.407-.227.829-.463 1.259-.699z" fill="#59a35c"/><path d="m12 5.111c-.43.235-.852.472-1.26.699l-.14.07c-2.586 1.458-5.033 2.836-8.046 3.288h-.001c-.029.079-.057.158-.083.238-.143.43-.253.874-.329 1.333l.119-.009c3.52-.42 6.221-1.93 9.08-3.54l.141-.08c.171-.096.344-.194.52-.292v-1.707z" fill="#cdd0d2"/><path d="m12 14.206c-.428.236-.847.472-1.26.704l-.11.06c-2.12 1.2-4.13 2.33-6.439 2.96l-.21.09 1.119 1.2c2.27-.689 4.221-1.79 6.27-2.939l.11-.061c.173-.098.346-.195.52-.293z" fill="#cdd0d2"/><path d="m12 10.002c-2.924 1.605-6.113 3.109-9.92 3.529l.3 1.469c3.707-.429 6.796-1.782 9.62-3.291z" fill="#cdd0d2"/><path d="m12 19.125c-.096.055-.192.11-.29.165-1.199.689-2.559 1.479-3.837 2.028.352.227.698.441 1.029.646l.498.306c.889-.436 1.771-.936 2.6-1.41z" fill="#cdd0d2"/></svg>