<svg id="Color" enable-background="new 0 0 24 24" height="512" viewBox="0 0 24 24" width="512" xmlns="http://www.w3.org/2000/svg"><path d="m14.25 5.456c-.414 0-.75-.336-.75-.75v-2.106c0-.578-.471-1.05-1.05-1.05h-.9c-.579 0-1.05.472-1.05 1.05v2.106c0 .414-.336.75-.75.75s-.75-.336-.75-.75v-2.106c0-1.406 1.145-2.55 2.55-2.55h.9c1.405 0 2.55 1.143 2.55 2.55v2.106c0 .414-.336.75-.75.75z" fill="#607d8b"/><path d="m22 14.05c0 .66-.06 1.3-.19 1.931-.1.539-.25 1.06-.439 1.56-1.42 3.8-5.09 6.51-9.37 6.51-1.51 0-2.95-.34-4.23-.939-.581-.272-1.131-.592-1.641-.972-.79-.58-1.49-1.26-2.09-2.04-.32-.42-.6-.859-.85-1.319-.46-.87-.811-1.811-1-2.8-.1-.481-.16-.971-.18-1.481-.01-.15-.01-.3-.01-.45 0-.66.06-1.31.2-1.95.06-.369.16-.73.269-1.09.061-.18.12-.35.19-.52 1.461-3.87 5.151-6.44 9.341-6.44 1.43 0 2.78.3 4.01.84.59.261 1.16.57 1.681.94.819.58 1.56 1.27 2.19 2.06.32.42.62.87.87 1.341.5.88.85 1.85 1.06 2.859.091.49.16.98.181 1.49.008.15.008.31.008.47z" fill="#ef5350"/><g fill="#ffd54f"><path d="m17.69 5.83c-3.421 1.37-4.551 2-5.73 2.66l-.41.23c-2.48 1.38-5.08 2.69-9.35 3.38.06-.369.16-.73.269-1.09.061-.18.12-.35.19-.52 3.6-.66 5.859-1.79 8.17-3.08l.4-.231c1.09-.609 2.13-1.189 4.779-2.29.592.261 1.162.571 1.682.941z"/><path d="m20.75 9.23c-3.61.81-5.29 1.76-7.21 2.84l-.86.489c-2.43 1.381-4.94 2.811-10.49 3.421l-.18-1.48c5.25-.58 7.53-1.88 9.92-3.24l.811-.46c1.98-1.12 3.68-2.09 7.14-2.91.319.42.619.87.869 1.34z"/><path d="m21.99 13.58c-4.971.35-7.75 1.9-10.431 3.41-1.799 1.01-3.989 2.13-7.519 3.11-.32-.42-.6-.859-.85-1.319 3.64-.971 5.84-2.101 7.64-3.101 2.82-1.58 5.729-3.199 10.979-3.59.091.49.161.98.181 1.49z"/><path d="m21.81 15.98c-.1.539-.25 1.06-.439 1.56-3.7.5-5.83 1.7-7.9 2.85l-.1.051c-1.34.75-2.71 1.52-5.601 2.67-.58-.271-1.13-.591-1.64-.971 3.561-1.359 5.061-2.199 6.51-3.01l.101-.05c2.199-1.23 4.679-2.62 9.069-3.1z"/></g><path d="m12 .05h-.45c-1.405 0-2.55 1.143-2.55 2.55v1.905c.486-.152.987-.267 1.5-.344v-1.561c0-.578.471-1.05 1.05-1.05h.45z" fill="#546d79"/><path d="m12 8.468c-.013.007-.027.015-.04.022l-.41.23c-2.48 1.38-5.08 2.69-9.35 3.38-.14.64-.2 1.29-.2 1.95 0 .15 0 .3.01.45.021.51.08 1 .181 1.48.189.989.54 1.93 1 2.8.249.46.529.9.849 1.32.6.78 1.3 1.46 2.09 2.04.51.38 1.061.7 1.64.971 1.28.6 2.721.939 4.23.939v-2.858c-1.023.54-2.281 1.143-4.23 1.918-.58-.27-1.13-.59-1.64-.97 3.044-1.162 4.582-1.945 5.87-2.654v-2.743c-.147.083-.294.165-.44.248-1.8 1.009-3.99 2.129-7.52 3.109-.32-.42-.6-.859-.85-1.319 3.64-.971 5.84-2.101 7.64-3.101.386-.216.774-.434 1.17-.648v-2.087c-2.241 1.254-4.774 2.483-9.81 3.037l-.18-1.482c5.25-.58 7.53-1.88 9.92-3.24l.07-.04zm0-4.418c-.508 0-1.009.038-1.5.111-.513.077-1.014.192-1.5.344-2.884.9-5.242 3.075-6.34 5.985 3.6-.66 5.859-1.79 8.17-3.08l.4-.231c.252-.141.502-.281.77-.425z" fill="#d04846"/><path d="m12 6.754c-.268.145-.517.284-.77.425l-.4.231c-2.31 1.29-4.57 2.42-8.17 3.08-.07.17-.13.34-.19.52-.11.36-.21.72-.27 1.09 4.27-.689 6.87-2 9.35-3.38l.41-.23c.013-.007.027-.015.04-.022z" fill="#deb945"/><path d="m12 11.22-.07.04c-2.39 1.36-4.67 2.66-9.92 3.24l.181 1.48c5.036-.554 7.569-1.782 9.81-3.037v-1.723z" fill="#deb945"/><path d="m12 15.031c-.395.215-.784.432-1.17.648-1.8 1-4 2.13-7.64 3.101.25.46.53.9.85 1.32 3.53-.98 5.72-2.1 7.52-3.109.146-.082.293-.165.44-.248z" fill="#deb945"/><path d="m12 19.486c-1.288.709-2.826 1.492-5.87 2.654.51.38 1.061.7 1.64.971 1.949-.776 3.207-1.378 4.23-1.918z" fill="#deb945"/></svg>