<svg id="Color" enable-background="new 0 0 24 24" height="512" viewBox="0 0 24 24" width="512" xmlns="http://www.w3.org/2000/svg"><path d="m11 10.8c-.552 0-1-.448-1-1v-2.25c0-.552.448-1 1-1s1 .448 1 1v2.25c0 .552-.448 1-1 1z" fill="#607d8b"/><path d="m13.25 9.05h-4.5c-.965 0-1.75.785-1.75 1.75v9.5c0 .414.336.75.75.75h6.5c.414 0 .75-.336.75-.75v-9.5c0-.965-.785-1.75-1.75-1.75z" fill="#e3f2fd"/><path d="m11.585.431c-.285-.354-.886-.354-1.171 0-.402.503-2.414 3.086-2.414 4.519 0 1.654 1.346 3 3 3s3-1.346 3-3c0-1.433-2.012-4.016-2.415-4.519z" fill="#ffca28"/><path d="m20.5 19.55h-19c-.414 0-.75.336-.75.75 0 2.067 1.682 3.75 3.75 3.75h13c2.068 0 3.75-1.57 3.75-3.5v-.25c0-.414-.336-.75-.75-.75z" fill="#607d8b"/><path d="m20.5 21.05c-1.378 0-2.5-1.122-2.5-2.5s1.122-2.5 2.5-2.5 2.5 1.122 2.5 2.5-1.122 2.5-2.5 2.5zm0-3.5c-.551 0-1 .448-1 1s.449 1 1 1 1-.448 1-1-.449-1-1-1z" fill="#607d8b"/><path d="m10 7.779v1.271h1v-1.1c-.35 0-.687-.06-1-.171z" fill="#546d79"/><path d="m11 9.05h-1-1.25c-.965 0-1.75.785-1.75 1.75v8.75h4z" fill="#c6d3dc"/><path d="m11 .165c-.221 0-.443.089-.585.266-.403.503-2.415 3.086-2.415 4.519 0 1.304.836 2.416 2 2.829.313.111.65.171 1 .171z" fill="#deb023"/><path d="m11 19.55h-4-5.5c-.414 0-.75.336-.75.75 0 2.067 1.682 3.75 3.75 3.75h6.5z" fill="#546d79"/></svg>