<svg id="Color" enable-background="new 0 0 24 24" height="512" viewBox="0 0 24 24" width="512" xmlns="http://www.w3.org/2000/svg"><path d="m14 5.956c-.552 0-1-.448-1-1v-2.106c0-.441-.359-.8-.8-.8h-.4c-.441 0-.8.359-.8.8v2.106c0 .552-.448 1-1 1s-1-.448-1-1v-2.106c0-1.544 1.256-2.8 2.8-2.8h.4c1.544 0 2.8 1.256 2.8 2.8v2.106c0 .552-.448 1-1 1z" fill="#607d8b"/><path d="m22 12.3v.25c-.02.65-.09 1.25-.22 1.811-.11.55-.27 1.06-.48 1.529-1.26 3.02-4.03 4.731-6.2 6.07-1.02.63-1.98 1.23-2.57 1.82-.15.15-.34.22-.53.22s-.38-.07-.53-.22c-.59-.59-1.55-1.19-2.57-1.82-2.17-1.34-4.94-3.05-6.2-6.07-.21-.47-.37-.979-.48-1.529-.13-.561-.2-1.161-.22-1.811v-.25c0-.62.06-1.23.18-1.81.86-4.37 4.79-7.46 9.82-7.46s8.96 3.09 9.82 7.46c.12.58.18 1.19.18 1.81z" fill="#ef5350"/><path d="m22 12.3v.25l-3.61-2.87-2.45 2.45c-.28.28-.72.3-1.02.04l-2.92-2.5-2.92 2.5c-.3.26-.74.24-1.02-.04l-2.45-2.45-3.61 2.87v-.25c0-.62.06-1.23.18-1.81l3.03-2.4c.29-.23.72-.21.99.06l2.43 2.43 2.88-2.47c.28-.24.7-.24.98 0l2.88 2.47 2.43-2.43c.27-.27.7-.29.99-.06l3.03 2.4c.12.58.18 1.19.18 1.81z" fill="#ffd54f"/><path d="m21.78 14.36c-.11.55-.27 1.06-.48 1.529l-2.91-2.31-2.45 2.45c-.28.279-.72.29-1.02.04l-2.92-2.509-2.92 2.51c-.3.25-.74.239-1.02-.04l-2.45-2.45-2.91 2.31c-.21-.47-.37-.979-.48-1.529l2.98-2.37c.3-.24.73-.21 1 .06l2.43 2.431 2.88-2.471c.28-.24.7-.24.98 0l2.88 2.471 2.43-2.431c.27-.27.7-.3 1-.06z" fill="#ffd54f"/><path d="m12 .05h-.2c-1.544 0-2.8 1.256-2.8 2.8v.571c.638-.173 1.307-.291 2-.349v-.222c0-.441.359-.8.8-.8h.2z" fill="#546d79"/><path d="m12 9.67-2.92 2.5c-.142.123-.315.183-.487.183-.193 0-.385-.075-.533-.223l-2.45-2.45-3.61 2.87v-.25.25c.02.65.09 1.25.22 1.811.11.55.27 1.06.48 1.529 1.26 3.02 4.03 4.731 6.2 6.07 1.02.63 1.98 1.23 2.57 1.82.15.15.34.22.53.22v-10.44l-2.92 2.51c-.143.119-.317.179-.491.179-.192 0-.382-.073-.529-.219l-2.45-2.45-2.91 2.31c-.21-.47-.37-.979-.48-1.529l2.98-2.37c.137-.11.301-.163.464-.163.195 0 .389.076.536.222l2.43 2.431 2.88-2.471c.14-.12.315-.18.49-.18zm0-6.64c-.339 0-.672.014-1 .041-.693.059-1.362.177-2 .35-3.543.961-6.14 3.615-6.82 7.069l3.03-2.4c.133-.106.296-.159.46-.159.192 0 .384.073.53.219l2.43 2.43 2.88-2.47c.14-.12.315-.18.49-.18z" fill="#d04846"/><g fill="#deb945"><path d="m12 7.93c-.175 0-.35.06-.49.18l-2.88 2.47-2.43-2.43c-.146-.146-.338-.219-.53-.219-.163 0-.327.053-.46.159l-3.03 2.4c-.12.58-.18 1.19-.18 1.81v.25l3.61-2.87 2.45 2.45c.148.148.34.223.533.223.173 0 .346-.06.487-.183l2.92-2.5z"/><path d="m5.664 11.827c-.163 0-.327.053-.464.163l-2.98 2.37c.11.55.27 1.06.48 1.529l2.91-2.31 2.45 2.45c.147.146.337.219.529.219.174 0 .349-.06.491-.179l2.92-2.509v-1.73c-.175 0-.35.06-.49.18l-2.88 2.47-2.43-2.43c-.147-.147-.341-.223-.536-.223z"/></g></svg>